<?xml version="1.0" encoding="UTF-8" standalone="no"?>
<!DOCTYPE svg PUBLIC "-//W3C//DTD SVG 1.1//EN"
 "http://www.w3.org/Graphics/SVG/1.1/DTD/svg11.dtd">
<!-- Generated by graphviz version 14.1.1 (20251213.1925)
 -->
<!-- Title: MLOps Network and Security Ecosystem &#45; SIPML v3 Pages: 1 -->
<svg width="14209pt" height="8566pt"
 viewBox="0.00 0.00 14209.00 8566.00" xmlns="http://www.w3.org/2000/svg" xmlns:xlink="http://www.w3.org/1999/xlink">
<g id="graph0" class="graph" transform="scale(8.33333 8.33333) rotate(0) translate(21.6 1006.35)">
<title>MLOps Network and Security Ecosystem &#45; SIPML v3</title>
<polygon fill="white" stroke="none" points="-21.6,21.6 -21.6,-1006.35 1683.45,-1006.35 1683.45,21.6 -21.6,21.6"/>
<text xml:space="preserve" text-anchor="middle" x="830.92" y="-7.55" font-family="Arial" font-size="16.00" fill="#2d3436">MLOps Network and Security Ecosystem &#45; SIPML v3</text>
<g id="clust1" class="cluster">
<title>cluster_Origens de Tráfego</title>
<path fill="#e5f5fd" stroke="#aeb6be" d="M20,-397.75C20,-397.75 112.8,-397.75 112.8,-397.75 118.8,-397.75 124.8,-403.75 124.8,-409.75 124.8,-409.75 124.8,-843.75 124.8,-843.75 124.8,-849.75 118.8,-855.75 112.8,-855.75 112.8,-855.75 20,-855.75 20,-855.75 14,-855.75 8,-849.75 8,-843.75 8,-843.75 8,-409.75 8,-409.75 8,-403.75 14,-397.75 20,-397.75"/>
<text xml:space="preserve" text-anchor="middle" x="66.25" y="-840.35" font-family="Sans-Serif" font-size="12.00" fill="#2d3436">Origens de Tráfego</text>
</g>
<g id="clust2" class="cluster">
<title>cluster_Spoke de Modelagem (Ingestão/Treino)</title>
<path fill="#e5f5fd" stroke="#aeb6be" d="M646.4,-34.75C646.4,-34.75 1365.6,-34.75 1365.6,-34.75 1371.6,-34.75 1377.6,-40.75 1377.6,-46.75 1377.6,-46.75 1377.6,-228.75 1377.6,-228.75 1377.6,-234.75 1371.6,-240.75 1365.6,-240.75 1365.6,-240.75 646.4,-240.75 646.4,-240.75 640.4,-240.75 634.4,-234.75 634.4,-228.75 634.4,-228.75 634.4,-46.75 634.4,-46.75 634.4,-40.75 640.4,-34.75 646.4,-34.75"/>
<text xml:space="preserve" text-anchor="middle" x="746.65" y="-225.35" font-family="Sans-Serif" font-size="12.00" fill="#2d3436">Spoke de Modelagem (Ingestão/Treino)</text>
</g>
<g id="clust3" class="cluster">
<title>cluster_Spoke de Inferência (Consumo/Serving)</title>
<path fill="#e5f5fd" stroke="#aeb6be" d="M228.8,-770.75C228.8,-770.75 1365.6,-770.75 1365.6,-770.75 1371.6,-770.75 1377.6,-776.75 1377.6,-782.75 1377.6,-782.75 1377.6,-964.75 1377.6,-964.75 1377.6,-970.75 1371.6,-976.75 1365.6,-976.75 1365.6,-976.75 228.8,-976.75 228.8,-976.75 222.8,-976.75 216.8,-970.75 216.8,-964.75 216.8,-964.75 216.8,-782.75 216.8,-782.75 216.8,-776.75 222.8,-770.75 228.8,-770.75"/>
<text xml:space="preserve" text-anchor="middle" x="330.55" y="-961.35" font-family="Sans-Serif" font-size="12.00" fill="#2d3436">Spoke de Inferência (Consumo/Serving)</text>
</g>
<g id="clust4" class="cluster">
<title>cluster_Dados e Segurança (Shared VPC)</title>
<path fill="#e5f5fd" stroke="#aeb6be" d="M1481.6,-41.75C1481.6,-41.75 1649.85,-41.75 1649.85,-41.75 1655.85,-41.75 1661.85,-47.75 1661.85,-53.75 1661.85,-53.75 1661.85,-961.75 1661.85,-961.75 1661.85,-967.75 1655.85,-973.75 1649.85,-973.75 1649.85,-973.75 1481.6,-973.75 1481.6,-973.75 1475.6,-973.75 1469.6,-967.75 1469.6,-961.75 1469.6,-961.75 1469.6,-53.75 1469.6,-53.75 1469.6,-47.75 1475.6,-41.75 1481.6,-41.75"/>
<text xml:space="preserve" text-anchor="middle" x="1565.72" y="-958.35" font-family="Sans-Serif" font-size="12.00" fill="#2d3436">Dados e Segurança (Shared VPC)</text>
</g>
<!-- d0a63875fb8e4eaeb4ef7d45d8ab0769 -->
<g id="node1" class="node">
<title>d0a63875fb8e4eaeb4ef7d45d8ab0769</title>
<image xlink:href="C:\Users\A450373\AppData\Local\Programs\Python\Python312\Lib\site-packages\resources/onprem/client\users.png" width="100.8px" height="100.8px" preserveAspectRatio="xMinYMin meet" x="16" y="-539.15"/>
<text xml:space="preserve" text-anchor="middle" x="66.4" y="-426.6" font-family="Sans-Serif" font-size="13.00" fill="#2d3436">Cientistas de Dados /</text>
<text xml:space="preserve" text-anchor="middle" x="66.4" y="-410.1" font-family="Sans-Serif" font-size="13.00" fill="#2d3436">Engenheiros</text>
</g>
<!-- eb89cbc220794924bfce86d17a6f6de2 -->
<g id="node3" class="node">
<title>eb89cbc220794924bfce86d17a6f6de2</title>
<image xlink:href="C:\Users\A450373\AppData\Local\Programs\Python\Python312\Lib\site-packages\resources/gcp/network\dns.png" width="100.8px" height="100.8px" preserveAspectRatio="xMinYMin meet" x="642.4" y="-176.15"/>
<text xml:space="preserve" text-anchor="middle" x="692.8" y="-63.6" font-family="Sans-Serif" font-size="13.00" fill="#2d3436">Cloud DNS</text>
<text xml:space="preserve" text-anchor="middle" x="692.8" y="-47.1" font-family="Sans-Serif" font-size="13.00" fill="#2d3436">(Internal)</text>
</g>
<!-- d0a63875fb8e4eaeb4ef7d45d8ab0769&#45;&gt;eb89cbc220794924bfce86d17a6f6de2 -->
<g id="edge1" class="edge">
<title>d0a63875fb8e4eaeb4ef7d45d8ab0769&#45;&gt;eb89cbc220794924bfce86d17a6f6de2</title>
<path fill="none" stroke="#7b8894" d="M116.61,-414C265.26,-414 692.85,-414 692.85,-414 692.85,-414 692.85,-219.86 692.85,-219.86"/>
<polygon fill="#7b8894" stroke="#7b8894" points="696.35,-219.86 692.85,-209.86 689.35,-219.86 696.35,-219.86"/>
</g>
<!-- 0e69719877774abb8107917da2671fa6 -->
<g id="node2" class="node">
<title>0e69719877774abb8107917da2671fa6</title>
<image xlink:href="C:\Users\A450373\AppData\Local\Programs\Python\Python312\Lib\site-packages\resources/onprem/client\client.png" width="100.8px" height="100.8px" preserveAspectRatio="xMinYMin meet" x="16" y="-791.15"/>
<text xml:space="preserve" text-anchor="middle" x="66.4" y="-678.6" font-family="Sans-Serif" font-size="13.00" fill="#2d3436">Aplicações Consumidoras</text>
<text xml:space="preserve" text-anchor="middle" x="66.4" y="-662.1" font-family="Sans-Serif" font-size="13.00" fill="#2d3436">/ Sistemas Legados</text>
</g>
<!-- 0380ba9537194f029ee97160dce5b33b -->
<g id="node7" class="node">
<title>0380ba9537194f029ee97160dce5b33b</title>
<image xlink:href="C:\Users\A450373\AppData\Local\Programs\Python\Python312\Lib\site-packages\resources/gcp/network\dns.png" width="100.8px" height="100.8px" preserveAspectRatio="xMinYMin meet" x="224.8" y="-912.15"/>
<text xml:space="preserve" text-anchor="middle" x="275.2" y="-799.6" font-family="Sans-Serif" font-size="13.00" fill="#2d3436">Cloud DNS</text>
<text xml:space="preserve" text-anchor="middle" x="275.2" y="-783.1" font-family="Sans-Serif" font-size="13.00" fill="#2d3436">(External)</text>
</g>
<!-- 0e69719877774abb8107917da2671fa6&#45;&gt;0380ba9537194f029ee97160dce5b33b -->
<g id="edge6" class="edge">
<title>0e69719877774abb8107917da2671fa6&#45;&gt;0380ba9537194f029ee97160dce5b33b</title>
<path fill="none" stroke="#7b8894" d="M116.68,-801.25C116.68,-801.25 213.48,-801.25 213.48,-801.25"/>
<polygon fill="#7b8894" stroke="#7b8894" points="213.48,-804.75 223.48,-801.25 213.48,-797.75 213.48,-804.75"/>
</g>
<!-- be0ea1bc95484492ac403cc674f59af5 -->
<g id="node4" class="node">
<title>be0ea1bc95484492ac403cc674f59af5</title>
<image xlink:href="C:\Users\A450373\AppData\Local\Programs\Python\Python312\Lib\site-packages\resources/gcp/network\load-balancing.png" width="100.8px" height="100.8px" preserveAspectRatio="xMinYMin meet" x="851.2" y="-176.15"/>
<text xml:space="preserve" text-anchor="middle" x="901.6" y="-61.5" font-family="Sans-Serif" font-size="13.00" fill="#2d3436">Internal HTTP(S) LB</text>
</g>
<!-- eb89cbc220794924bfce86d17a6f6de2&#45;&gt;be0ea1bc95484492ac403cc674f59af5 -->
<g id="edge2" class="edge">
<title>eb89cbc220794924bfce86d17a6f6de2&#45;&gt;be0ea1bc95484492ac403cc674f59af5</title>
<path fill="none" stroke="#7b8894" d="M743.08,-125.75C743.08,-125.75 839.88,-125.75 839.88,-125.75"/>
<polygon fill="#7b8894" stroke="#7b8894" points="839.88,-129.25 849.88,-125.75 839.88,-122.25 839.88,-129.25"/>
</g>
<!-- 0ea6d74603cc4df5b99a03a51921d7d4 -->
<g id="node5" class="node">
<title>0ea6d74603cc4df5b99a03a51921d7d4</title>
<image xlink:href="C:\Users\A450373\AppData\Local\Programs\Python\Python312\Lib\site-packages\resources/gcp/ml\ai-platform.png" width="100.8px" height="100.8px" preserveAspectRatio="xMinYMin meet" x="1060" y="-176.15"/>
<text xml:space="preserve" text-anchor="middle" x="1110.4" y="-63.6" font-family="Sans-Serif" font-size="13.00" fill="#2d3436">Vertex AI Workbench</text>
<text xml:space="preserve" text-anchor="middle" x="1110.4" y="-47.1" font-family="Sans-Serif" font-size="13.00" fill="#2d3436">(VPC Service Controls)</text>
</g>
<!-- be0ea1bc95484492ac403cc674f59af5&#45;&gt;0ea6d74603cc4df5b99a03a51921d7d4 -->
<g id="edge3" class="edge">
<title>be0ea1bc95484492ac403cc674f59af5&#45;&gt;0ea6d74603cc4df5b99a03a51921d7d4</title>
<path fill="none" stroke="#7b8894" d="M951.88,-125.75C951.88,-125.75 1048.68,-125.75 1048.68,-125.75"/>
<polygon fill="#7b8894" stroke="#7b8894" points="1048.68,-129.25 1058.68,-125.75 1048.68,-122.25 1048.68,-129.25"/>
</g>
<!-- be9f4ea9b3174e53ba6f1da632ad85d0 -->
<g id="node6" class="node">
<title>be9f4ea9b3174e53ba6f1da632ad85d0</title>
<image xlink:href="C:\Users\A450373\AppData\Local\Programs\Python\Python312\Lib\site-packages\resources/gcp/ml\ai-platform.png" width="100.8px" height="100.8px" preserveAspectRatio="xMinYMin meet" x="1268.8" y="-183.15"/>
<text xml:space="preserve" text-anchor="middle" x="1319.2" y="-68.5" font-family="Sans-Serif" font-size="13.00" fill="#2d3436">Custom Training Jobs</text>
</g>
<!-- 0ea6d74603cc4df5b99a03a51921d7d4&#45;&gt;be9f4ea9b3174e53ba6f1da632ad85d0 -->
<g id="edge4" class="edge">
<title>0ea6d74603cc4df5b99a03a51921d7d4&#45;&gt;be9f4ea9b3174e53ba6f1da632ad85d0</title>
<path fill="none" stroke="#7b8894" d="M1160.68,-132.75C1160.68,-132.75 1257.48,-132.75 1257.48,-132.75"/>
<polygon fill="#7b8894" stroke="#7b8894" points="1257.48,-136.25 1267.48,-132.75 1257.48,-129.25 1257.48,-136.25"/>
</g>
<!-- 3bed82ce76154432beb5dc4778c2197d -->
<g id="node14" class="node">
<title>3bed82ce76154432beb5dc4778c2197d</title>
<image xlink:href="C:\Users\A450373\AppData\Local\Programs\Python\Python312\Lib\site-packages\resources/gcp/security\secret-manager.png" width="100.8px" height="100.8px" preserveAspectRatio="xMinYMin meet" x="1514.82" y="-420.15"/>
<text xml:space="preserve" text-anchor="middle" x="1565.22" y="-305.5" font-family="Sans-Serif" font-size="13.00" fill="#2d3436">Cloud Secret Manager</text>
</g>
<!-- 0ea6d74603cc4df5b99a03a51921d7d4&#45;&gt;3bed82ce76154432beb5dc4778c2197d -->
<g id="edge18" class="edge">
<title>0ea6d74603cc4df5b99a03a51921d7d4&#45;&gt;3bed82ce76154432beb5dc4778c2197d</title>
<path fill="none" stroke="#7b8894" d="M1135.85,-208.47C1135.85,-279.69 1135.85,-371.08 1135.85,-371.08 1135.85,-371.08 1503.62,-371.08 1503.62,-371.08"/>
<polygon fill="#7b8894" stroke="#7b8894" points="1503.62,-374.58 1513.62,-371.08 1503.62,-367.58 1503.62,-374.58"/>
</g>
<!-- 59bcb3603f0e4548a536810ac16c3d48 -->
<g id="node15" class="node">
<title>59bcb3603f0e4548a536810ac16c3d48</title>
<image xlink:href="C:\Users\A450373\AppData\Local\Programs\Python\Python312\Lib\site-packages\resources/gcp/operations\monitoring.png" width="100.8px" height="100.8px" preserveAspectRatio="xMinYMin meet" x="1514.82" y="-183.15"/>
<text xml:space="preserve" text-anchor="middle" x="1565.22" y="-70.6" font-family="Sans-Serif" font-size="13.00" fill="#2d3436">Cloud Operations Suite</text>
<text xml:space="preserve" text-anchor="middle" x="1565.22" y="-54.1" font-family="Sans-Serif" font-size="13.00" fill="#2d3436">(Logging/Monitoring)</text>
</g>
<!-- 0ea6d74603cc4df5b99a03a51921d7d4&#45;&gt;59bcb3603f0e4548a536810ac16c3d48 -->
<g id="edge14" class="edge">
<title>0ea6d74603cc4df5b99a03a51921d7d4&#45;&gt;59bcb3603f0e4548a536810ac16c3d48</title>
<path fill="none" stroke="#7b8894" d="M1160.38,-57.15C1160.38,-57.15 1503.65,-57.15 1503.65,-57.15"/>
<polygon fill="#7b8894" stroke="#7b8894" points="1503.65,-60.65 1513.65,-57.15 1503.65,-53.65 1503.65,-60.65"/>
</g>
<!-- cfae53ba4f9c48218755c5509c3df578 -->
<g id="node13" class="node">
<title>cfae53ba4f9c48218755c5509c3df578</title>
<image xlink:href="C:\Users\A450373\AppData\Local\Programs\Python\Python312\Lib\site-packages\resources/gcp/analytics\bigquery.png" width="100.8px" height="100.8px" preserveAspectRatio="xMinYMin meet" x="1514.82" y="-657.15"/>
<text xml:space="preserve" text-anchor="middle" x="1565.22" y="-544.6" font-family="Sans-Serif" font-size="13.00" fill="#2d3436">BigQuery</text>
<text xml:space="preserve" text-anchor="middle" x="1565.22" y="-528.1" font-family="Sans-Serif" font-size="13.00" fill="#2d3436">(VPC Private Service Connect)</text>
</g>
<!-- be9f4ea9b3174e53ba6f1da632ad85d0&#45;&gt;cfae53ba4f9c48218755c5509c3df578 -->
<g id="edge5" class="edge">
<title>be9f4ea9b3174e53ba6f1da632ad85d0&#45;&gt;cfae53ba4f9c48218755c5509c3df578</title>
<path fill="none" stroke="#7b8894" d="M1318.85,-200.81C1318.85,-318.55 1318.85,-547.75 1318.85,-547.75 1318.85,-547.75 1503.56,-547.75 1503.56,-547.75"/>
<polygon fill="#7b8894" stroke="#7b8894" points="1503.56,-551.25 1513.56,-547.75 1503.56,-544.25 1503.56,-551.25"/>
</g>
<!-- be9f4ea9b3174e53ba6f1da632ad85d0&#45;&gt;3bed82ce76154432beb5dc4778c2197d -->
<g id="edge19" class="edge">
<title>be9f4ea9b3174e53ba6f1da632ad85d0&#45;&gt;3bed82ce76154432beb5dc4778c2197d</title>
<path fill="none" stroke="#7b8894" d="M1352.85,-201.07C1352.85,-260.18 1352.85,-336.22 1352.85,-336.22 1352.85,-336.22 1503.38,-336.22 1503.38,-336.22"/>
<polygon fill="#7b8894" stroke="#7b8894" points="1503.38,-339.72 1513.38,-336.22 1503.38,-332.72 1503.38,-339.72"/>
</g>
<!-- be9f4ea9b3174e53ba6f1da632ad85d0&#45;&gt;59bcb3603f0e4548a536810ac16c3d48 -->
<g id="edge15" class="edge">
<title>be9f4ea9b3174e53ba6f1da632ad85d0&#45;&gt;59bcb3603f0e4548a536810ac16c3d48</title>
<path fill="none" stroke="#7b8894" d="M1369.58,-132.75C1369.58,-132.75 1503.4,-132.75 1503.4,-132.75"/>
<polygon fill="#7b8894" stroke="#7b8894" points="1503.4,-136.25 1513.4,-132.75 1503.4,-129.25 1503.4,-136.25"/>
</g>
<!-- c6afa7bd6b7646bdb694165cdd1c8ed0 -->
<g id="node8" class="node">
<title>c6afa7bd6b7646bdb694165cdd1c8ed0</title>
<image xlink:href="C:\Users\A450373\AppData\Local\Programs\Python\Python312\Lib\site-packages\resources/gcp/network\armor.png" width="100.8px" height="100.8px" preserveAspectRatio="xMinYMin meet" x="433.6" y="-912.15"/>
<text xml:space="preserve" text-anchor="middle" x="484" y="-799.6" font-family="Sans-Serif" font-size="13.00" fill="#2d3436">Cloud Armor</text>
<text xml:space="preserve" text-anchor="middle" x="484" y="-783.1" font-family="Sans-Serif" font-size="13.00" fill="#2d3436">(WAF/Anti&#45;DDoS)</text>
</g>
<!-- 0380ba9537194f029ee97160dce5b33b&#45;&gt;c6afa7bd6b7646bdb694165cdd1c8ed0 -->
<g id="edge7" class="edge">
<title>0380ba9537194f029ee97160dce5b33b&#45;&gt;c6afa7bd6b7646bdb694165cdd1c8ed0</title>
<path fill="none" stroke="#7b8894" d="M325.48,-861.75C325.48,-861.75 422.28,-861.75 422.28,-861.75"/>
<polygon fill="#7b8894" stroke="#7b8894" points="422.28,-865.25 432.28,-861.75 422.28,-858.25 422.28,-865.25"/>
</g>
<!-- 6b73c39dcd9541beb06f23f9473ece9e -->
<g id="node9" class="node">
<title>6b73c39dcd9541beb06f23f9473ece9e</title>
<image xlink:href="C:\Users\A450373\AppData\Local\Programs\Python\Python312\Lib\site-packages\resources/gcp/network\load-balancing.png" width="100.8px" height="100.8px" preserveAspectRatio="xMinYMin meet" x="642.4" y="-912.15"/>
<text xml:space="preserve" text-anchor="middle" x="692.8" y="-797.5" font-family="Sans-Serif" font-size="13.00" fill="#2d3436">External HTTP(S) LB</text>
</g>
<!-- c6afa7bd6b7646bdb694165cdd1c8ed0&#45;&gt;6b73c39dcd9541beb06f23f9473ece9e -->
<g id="edge8" class="edge">
<title>c6afa7bd6b7646bdb694165cdd1c8ed0&#45;&gt;6b73c39dcd9541beb06f23f9473ece9e</title>
<path fill="none" stroke="#7b8894" d="M534.28,-861.75C534.28,-861.75 631.08,-861.75 631.08,-861.75"/>
<polygon fill="#7b8894" stroke="#7b8894" points="631.08,-865.25 641.08,-861.75 631.08,-858.25 631.08,-865.25"/>
</g>
<!-- 51441a06547e4566a8d946670d2dc96a -->
<g id="node10" class="node">
<title>51441a06547e4566a8d946670d2dc96a</title>
<image xlink:href="C:\Users\A450373\AppData\Local\Programs\Python\Python312\Lib\site-packages\resources/gcp/api\api-gateway.png" width="100.8px" height="100.8px" preserveAspectRatio="xMinYMin meet" x="851.2" y="-912.15"/>
<text xml:space="preserve" text-anchor="middle" x="901.6" y="-797.5" font-family="Sans-Serif" font-size="13.00" fill="#2d3436">Cloud API Gateway</text>
</g>
<!-- 6b73c39dcd9541beb06f23f9473ece9e&#45;&gt;51441a06547e4566a8d946670d2dc96a -->
<g id="edge9" class="edge">
<title>6b73c39dcd9541beb06f23f9473ece9e&#45;&gt;51441a06547e4566a8d946670d2dc96a</title>
<path fill="none" stroke="#7b8894" d="M743.08,-861.75C743.08,-861.75 839.88,-861.75 839.88,-861.75"/>
<polygon fill="#7b8894" stroke="#7b8894" points="839.88,-865.25 849.88,-861.75 839.88,-858.25 839.88,-865.25"/>
</g>
<!-- 2f11a76fc8f5480c9a5782e84acdb3d4 -->
<g id="node12" class="node">
<title>2f11a76fc8f5480c9a5782e84acdb3d4</title>
<image xlink:href="C:\Users\A450373\AppData\Local\Programs\Python\Python312\Lib\site-packages\resources/gcp/compute\run.png" width="100.8px" height="100.8px" preserveAspectRatio="xMinYMin meet" x="1060" y="-912.15"/>
<text xml:space="preserve" text-anchor="middle" x="1110.4" y="-799.6" font-family="Sans-Serif" font-size="13.00" fill="#2d3436">Cloud Run</text>
<text xml:space="preserve" text-anchor="middle" x="1110.4" y="-783.1" font-family="Sans-Serif" font-size="13.00" fill="#2d3436">(Business Rules)</text>
</g>
<!-- 51441a06547e4566a8d946670d2dc96a&#45;&gt;2f11a76fc8f5480c9a5782e84acdb3d4 -->
<g id="edge10" class="edge">
<title>51441a06547e4566a8d946670d2dc96a&#45;&gt;2f11a76fc8f5480c9a5782e84acdb3d4</title>
<path fill="none" stroke="#7b8894" d="M951.88,-861.75C951.88,-861.75 1048.68,-861.75 1048.68,-861.75"/>
<polygon fill="#7b8894" stroke="#7b8894" points="1048.68,-865.25 1058.68,-861.75 1048.68,-858.25 1048.68,-865.25"/>
</g>
<!-- dcdb14f20e46474e96de8857a2fe1890 -->
<g id="node11" class="node">
<title>dcdb14f20e46474e96de8857a2fe1890</title>
<image xlink:href="C:\Users\A450373\AppData\Local\Programs\Python\Python312\Lib\site-packages\resources/gcp/ml\ai-platform.png" width="100.8px" height="100.8px" preserveAspectRatio="xMinYMin meet" x="1268.8" y="-927.15"/>
<text xml:space="preserve" text-anchor="middle" x="1319.2" y="-812.5" font-family="Sans-Serif" font-size="13.00" fill="#2d3436">Vertex AI Endpoints</text>
</g>
<!-- dcdb14f20e46474e96de8857a2fe1890&#45;&gt;cfae53ba4f9c48218755c5509c3df578 -->
<g id="edge12" class="edge">
<title>dcdb14f20e46474e96de8857a2fe1890&#45;&gt;cfae53ba4f9c48218755c5509c3df578</title>
<path fill="none" stroke="#7b8894" d="M1335.85,-808.59C1335.85,-749.62 1335.85,-673.75 1335.85,-673.75 1335.85,-673.75 1503.37,-673.75 1503.37,-673.75"/>
<polygon fill="#7b8894" stroke="#7b8894" points="1503.37,-677.25 1513.37,-673.75 1503.37,-670.25 1503.37,-677.25"/>
</g>
<!-- dcdb14f20e46474e96de8857a2fe1890&#45;&gt;3bed82ce76154432beb5dc4778c2197d -->
<g id="edge20" class="edge">
<title>dcdb14f20e46474e96de8857a2fe1890&#45;&gt;3bed82ce76154432beb5dc4778c2197d</title>
<path fill="none" stroke="#7b8894" d="M1302.85,-808.43C1302.85,-683.31 1302.85,-430.1 1302.85,-430.1 1302.85,-430.1 1503.43,-430.1 1503.43,-430.1"/>
<polygon fill="#7b8894" stroke="#7b8894" points="1503.43,-433.6 1513.43,-430.1 1503.43,-426.6 1503.43,-433.6"/>
</g>
<!-- dcdb14f20e46474e96de8857a2fe1890&#45;&gt;59bcb3603f0e4548a536810ac16c3d48 -->
<g id="edge16" class="edge">
<title>dcdb14f20e46474e96de8857a2fe1890&#45;&gt;59bcb3603f0e4548a536810ac16c3d48</title>
<path fill="none" stroke="#7b8894" d="M1285.85,-808.55C1285.85,-639.23 1285.85,-213.22 1285.85,-213.22 1285.85,-213.22 1503.44,-213.22 1503.44,-213.22"/>
<polygon fill="#7b8894" stroke="#7b8894" points="1503.44,-216.72 1513.44,-213.22 1503.44,-209.72 1503.44,-216.72"/>
</g>
<!-- 2f11a76fc8f5480c9a5782e84acdb3d4&#45;&gt;dcdb14f20e46474e96de8857a2fe1890 -->
<g id="edge11" class="edge">
<title>2f11a76fc8f5480c9a5782e84acdb3d4&#45;&gt;dcdb14f20e46474e96de8857a2fe1890</title>
<path fill="none" stroke="#7b8894" d="M1160.68,-876.45C1160.68,-876.45 1257.48,-876.45 1257.48,-876.45"/>
<polygon fill="#7b8894" stroke="#7b8894" points="1257.48,-879.95 1267.48,-876.45 1257.48,-872.95 1257.48,-879.95"/>
</g>
<!-- 2f11a76fc8f5480c9a5782e84acdb3d4&#45;&gt;3bed82ce76154432beb5dc4778c2197d -->
<g id="edge21" class="edge">
<title>2f11a76fc8f5480c9a5782e84acdb3d4&#45;&gt;3bed82ce76154432beb5dc4778c2197d</title>
<path fill="none" stroke="#7b8894" d="M1110.85,-779.05C1110.85,-651.68 1110.85,-422.05 1110.85,-422.05 1110.85,-422.05 1503.35,-422.05 1503.35,-422.05"/>
<polygon fill="#7b8894" stroke="#7b8894" points="1503.35,-425.55 1513.35,-422.05 1503.35,-418.55 1503.35,-425.55"/>
</g>
<!-- 2f11a76fc8f5480c9a5782e84acdb3d4&#45;&gt;59bcb3603f0e4548a536810ac16c3d48 -->
<g id="edge17" class="edge">
<title>2f11a76fc8f5480c9a5782e84acdb3d4&#45;&gt;59bcb3603f0e4548a536810ac16c3d48</title>
<path fill="none" stroke="#7b8894" d="M1084.85,-778.99C1084.85,-603.68 1084.85,-210.88 1084.85,-210.88 1084.85,-210.88 1503.66,-210.88 1503.66,-210.88"/>
<polygon fill="#7b8894" stroke="#7b8894" points="1503.66,-214.38 1513.66,-210.88 1503.66,-207.38 1503.66,-214.38"/>
</g>
<!-- de381579bcf34471bd503510669d84af -->
<g id="node16" class="node">
<title>de381579bcf34471bd503510669d84af</title>
<image xlink:href="C:\Users\A450373\AppData\Local\Programs\Python\Python312\Lib\site-packages\resources/gcp/database\spanner.png" width="100.8px" height="100.8px" preserveAspectRatio="xMinYMin meet" x="1514.82" y="-909.15"/>
<text xml:space="preserve" text-anchor="middle" x="1565.22" y="-796.6" font-family="Sans-Serif" font-size="13.00" fill="#2d3436">Cloud Spanner</text>
<text xml:space="preserve" text-anchor="middle" x="1565.22" y="-780.1" font-family="Sans-Serif" font-size="13.00" fill="#2d3436">(Transacional)</text>
</g>
<!-- 2f11a76fc8f5480c9a5782e84acdb3d4&#45;&gt;de381579bcf34471bd503510669d84af -->
<g id="edge13" class="edge">
<title>2f11a76fc8f5480c9a5782e84acdb3d4&#45;&gt;de381579bcf34471bd503510669d84af</title>
<path fill="none" stroke="#7b8894" d="M1160.38,-793.65C1160.38,-793.65 1503.65,-793.65 1503.65,-793.65"/>
<polygon fill="#7b8894" stroke="#7b8894" points="1503.65,-797.15 1513.65,-793.65 1503.65,-790.15 1503.65,-797.15"/>
</g>
</g>
</svg>
