<?xml version="1.0" encoding="UTF-8" standalone="no"?>
<!DOCTYPE svg PUBLIC "-//W3C//DTD SVG 1.1//EN"
 "http://www.w3.org/Graphics/SVG/1.1/DTD/svg11.dtd">
<!-- Generated by graphviz version 14.1.1 (20251213.1925)
 -->
<!-- Title: MLOps Network and Security Ecosystem &#45; SIPML v4 Pages: 1 -->
<svg width="19376pt" height="14241pt"
 viewBox="0.00 0.00 19376.00 14241.00" xmlns="http://www.w3.org/2000/svg" xmlns:xlink="http://www.w3.org/1999/xlink">
<g id="graph0" class="graph" transform="scale(8.33333 8.33333) rotate(0) translate(21.6 1687.35)">
<title>MLOps Network and Security Ecosystem &#45; SIPML v4</title>
<polygon fill="white" stroke="none" points="-21.6,21.6 -21.6,-1687.35 2303.5,-1687.35 2303.5,21.6 -21.6,21.6"/>
<text xml:space="preserve" text-anchor="middle" x="1140.95" y="-7.55" font-family="Arial" font-size="16.00" fill="#2d3436">MLOps Network and Security Ecosystem &#45; SIPML v4</text>
<g id="clust1" class="cluster">
<title>cluster_Origens de Tráfego</title>
<path fill="#e5f5fd" stroke="#aeb6be" d="M20,-34.75C20,-34.75 112.8,-34.75 112.8,-34.75 118.8,-34.75 124.8,-40.75 124.8,-46.75 124.8,-46.75 124.8,-480.75 124.8,-480.75 124.8,-486.75 118.8,-492.75 112.8,-492.75 112.8,-492.75 20,-492.75 20,-492.75 14,-492.75 8,-486.75 8,-480.75 8,-480.75 8,-46.75 8,-46.75 8,-40.75 14,-34.75 20,-34.75"/>
<text xml:space="preserve" text-anchor="middle" x="66.25" y="-477.35" font-family="Sans-Serif" font-size="12.00" fill="#2d3436">Origens de Tráfego</text>
</g>
<g id="clust2" class="cluster">
<title>cluster_Spoke de Modelagem
(prj&#45;sipml&#45;modelagem&#45;anl)</title>
<path fill="#e5f5fd" stroke="#aeb6be" d="M229.8,-383.75C229.8,-383.75 742.2,-383.75 742.2,-383.75 748.2,-383.75 754.2,-389.75 754.2,-395.75 754.2,-395.75 754.2,-592.75 754.2,-592.75 754.2,-598.75 748.2,-604.75 742.2,-604.75 742.2,-604.75 229.8,-604.75 229.8,-604.75 223.8,-604.75 217.8,-598.75 217.8,-592.75 217.8,-592.75 217.8,-395.75 217.8,-395.75 217.8,-389.75 223.8,-383.75 229.8,-383.75"/>
<text xml:space="preserve" text-anchor="middle" x="296.67" y="-589.35" font-family="Sans-Serif" font-size="12.00" fill="#2d3436">Spoke de Modelagem</text>
<text xml:space="preserve" text-anchor="middle" x="296.67" y="-573.6" font-family="Sans-Serif" font-size="12.00" fill="#2d3436">(prj&#45;sipml&#45;modelagem&#45;anl)</text>
</g>
<g id="clust3" class="cluster">
<title>cluster_Hub Central de Orquestração
(prj&#45;sipml&#45;gateway&#45;prd)</title>
<path fill="#e5f5fd" stroke="#aeb6be" d="M229.8,-612.75C229.8,-612.75 1331.05,-612.75 1331.05,-612.75 1337.05,-612.75 1343.05,-618.75 1343.05,-624.75 1343.05,-624.75 1343.05,-1325.75 1343.05,-1325.75 1343.05,-1331.75 1337.05,-1337.75 1331.05,-1337.75 1331.05,-1337.75 229.8,-1337.75 229.8,-1337.75 223.8,-1337.75 217.8,-1331.75 217.8,-1325.75 217.8,-1325.75 217.8,-624.75 217.8,-624.75 217.8,-618.75 223.8,-612.75 229.8,-612.75"/>
<text xml:space="preserve" text-anchor="middle" x="302.3" y="-1322.35" font-family="Sans-Serif" font-size="12.00" fill="#2d3436">Hub Central de Orquestração</text>
<text xml:space="preserve" text-anchor="middle" x="302.3" y="-1306.6" font-family="Sans-Serif" font-size="12.00" fill="#2d3436">(prj&#45;sipml&#45;gateway&#45;prd)</text>
</g>
<g id="clust4" class="cluster">
<title>cluster_Spoke de Inferência e Serving
(prj&#45;sipml&#45;inferencia&#45;prd)</title>
<path fill="#e5f5fd" stroke="#aeb6be" d="M1604.55,-976.75C1604.55,-976.75 2261.9,-976.75 2261.9,-976.75 2267.9,-976.75 2273.9,-982.75 2273.9,-988.75 2273.9,-988.75 2273.9,-1437.75 2273.9,-1437.75 2273.9,-1443.75 2267.9,-1449.75 2261.9,-1449.75 2261.9,-1449.75 1604.55,-1449.75 1604.55,-1449.75 1598.55,-1449.75 1592.55,-1443.75 1592.55,-1437.75 1592.55,-1437.75 1592.55,-988.75 1592.55,-988.75 1592.55,-982.75 1598.55,-976.75 1604.55,-976.75"/>
<text xml:space="preserve" text-anchor="middle" x="1679.68" y="-1434.35" font-family="Sans-Serif" font-size="12.00" fill="#2d3436">Spoke de Inferência e Serving</text>
<text xml:space="preserve" text-anchor="middle" x="1679.68" y="-1418.6" font-family="Sans-Serif" font-size="12.00" fill="#2d3436">(prj&#45;sipml&#45;inferencia&#45;prd)</text>
</g>
<g id="clust5" class="cluster">
<title>cluster_Bureaus de Crédito Externos</title>
<path fill="#e5f5fd" stroke="#aeb6be" d="M1910.1,-1481.75C1910.1,-1481.75 2052.1,-1481.75 2052.1,-1481.75 2058.1,-1481.75 2064.1,-1487.75 2064.1,-1493.75 2064.1,-1493.75 2064.1,-1645.75 2064.1,-1645.75 2064.1,-1651.75 2058.1,-1657.75 2052.1,-1657.75 2052.1,-1657.75 1910.1,-1657.75 1910.1,-1657.75 1904.1,-1657.75 1898.1,-1651.75 1898.1,-1645.75 1898.1,-1645.75 1898.1,-1493.75 1898.1,-1493.75 1898.1,-1487.75 1904.1,-1481.75 1910.1,-1481.75"/>
<text xml:space="preserve" text-anchor="middle" x="1981.1" y="-1642.35" font-family="Sans-Serif" font-size="12.00" fill="#2d3436">Bureaus de Crédito Externos</text>
</g>
<!-- eb1d7dc695fa4aea99e2d05cb5bf2aae -->
<g id="node1" class="node">
<title>eb1d7dc695fa4aea99e2d05cb5bf2aae</title>
<image xlink:href="C:\Users\A450373\AppData\Local\Programs\Python\Python312\Lib\site-packages\resources/onprem/client\users.png" width="100.8px" height="100.8px" preserveAspectRatio="xMinYMin meet" x="16" y="-176.15"/>
<text xml:space="preserve" text-anchor="middle" x="66.4" y="-63.6" font-family="Sans-Serif" font-size="13.00" fill="#2d3436">Cientistas de Dados /</text>
<text xml:space="preserve" text-anchor="middle" x="66.4" y="-47.1" font-family="Sans-Serif" font-size="13.00" fill="#2d3436">Engenheiros</text>
</g>
<!-- ac2296a7ed0c4db780a84a2a63a02ee7 -->
<g id="node3" class="node">
<title>ac2296a7ed0c4db780a84a2a63a02ee7</title>
<image xlink:href="C:\Users\A450373\AppData\Local\Programs\Python\Python312\Lib\site-packages\resources/gcp/ml\ai-platform.png" width="100.8px" height="100.8px" preserveAspectRatio="xMinYMin meet" x="225.8" y="-525.15"/>
<text xml:space="preserve" text-anchor="middle" x="276.2" y="-412.6" font-family="Sans-Serif" font-size="13.00" fill="#2d3436">Vertex AI</text>
<text xml:space="preserve" text-anchor="middle" x="276.2" y="-396.1" font-family="Sans-Serif" font-size="13.00" fill="#2d3436">Workbench</text>
</g>
<!-- eb1d7dc695fa4aea99e2d05cb5bf2aae&#45;&gt;ac2296a7ed0c4db780a84a2a63a02ee7 -->
<g id="edge12" class="edge">
<title>eb1d7dc695fa4aea99e2d05cb5bf2aae&#45;&gt;ac2296a7ed0c4db780a84a2a63a02ee7</title>
<path fill="none" stroke="#7b8894" d="M116.67,-98.15C183.4,-98.15 292.9,-98.15 292.9,-98.15 292.9,-98.15 292.9,-380.59 292.9,-380.59"/>
<polygon fill="#7b8894" stroke="#7b8894" points="289.4,-380.59 292.9,-390.59 296.4,-380.59 289.4,-380.59"/>
</g>
<!-- eb1d7dc695fa4aea99e2d05cb5bf2aae&#45;&gt;ac2296a7ed0c4db780a84a2a63a02ee7 -->
<!-- e4aaf12cc8b14b179a87b1f75e940583 -->
<g id="node2" class="node">
<title>e4aaf12cc8b14b179a87b1f75e940583</title>
<image xlink:href="C:\Users\A450373\AppData\Local\Programs\Python\Python312\Lib\site-packages\resources/onprem/client\client.png" width="100.8px" height="100.8px" preserveAspectRatio="xMinYMin meet" x="16" y="-428.15"/>
<text xml:space="preserve" text-anchor="middle" x="66.4" y="-315.6" font-family="Sans-Serif" font-size="13.00" fill="#2d3436">Aplicações Consumidoras</text>
<text xml:space="preserve" text-anchor="middle" x="66.4" y="-299.1" font-family="Sans-Serif" font-size="13.00" fill="#2d3436">/ Sistemas Legados</text>
</g>
<!-- 2af8171df35648b3b251b704830ff50b -->
<g id="node5" class="node">
<title>2af8171df35648b3b251b704830ff50b</title>
<image xlink:href="C:\Users\A450373\AppData\Local\Programs\Python\Python312\Lib\site-packages\resources/gcp/analytics\bigquery.png" width="100.8px" height="100.8px" preserveAspectRatio="xMinYMin meet" x="645.4" y="-525.15"/>
<text xml:space="preserve" text-anchor="middle" x="695.8" y="-412.6" font-family="Sans-Serif" font-size="13.00" fill="#2d3436">BigQuery</text>
<text xml:space="preserve" text-anchor="middle" x="695.8" y="-396.1" font-family="Sans-Serif" font-size="13.00" fill="#2d3436">(Sandbox)</text>
</g>
<!-- e4aaf12cc8b14b179a87b1f75e940583&#45;&gt;2af8171df35648b3b251b704830ff50b -->
<!-- 54e11baf51cb45eebbb278fc06a06082 -->
<g id="node6" class="node">
<title>54e11baf51cb45eebbb278fc06a06082</title>
<image xlink:href="C:\Users\A450373\AppData\Local\Programs\Python\Python312\Lib\site-packages\resources/gcp/network\armor.png" width="100.8px" height="100.8px" preserveAspectRatio="xMinYMin meet" x="225.8" y="-840.15"/>
<text xml:space="preserve" text-anchor="middle" x="276.2" y="-727.6" font-family="Sans-Serif" font-size="13.00" fill="#2d3436">Cloud Armor</text>
<text xml:space="preserve" text-anchor="middle" x="276.2" y="-711.1" font-family="Sans-Serif" font-size="13.00" fill="#2d3436">(Proteção WAF)</text>
</g>
<!-- e4aaf12cc8b14b179a87b1f75e940583&#45;&gt;54e11baf51cb45eebbb278fc06a06082 -->
<g id="edge13" class="edge">
<title>e4aaf12cc8b14b179a87b1f75e940583&#45;&gt;54e11baf51cb45eebbb278fc06a06082</title>
<path fill="none" stroke="#7b8894" d="M65.9,-460.13C65.9,-580.37 65.9,-789.75 65.9,-789.75 65.9,-789.75 214.31,-789.75 214.31,-789.75"/>
<polygon fill="#7b8894" stroke="#7b8894" points="214.31,-793.25 224.31,-789.75 214.31,-786.25 214.31,-793.25"/>
</g>
<!-- d9c0b3f896e6495ab37df447d6885bb4 -->
<g id="node4" class="node">
<title>d9c0b3f896e6495ab37df447d6885bb4</title>
<image xlink:href="C:\Users\A450373\AppData\Local\Programs\Python\Python312\Lib\site-packages\resources/gcp/ml\ai-platform.png" width="100.8px" height="100.8px" preserveAspectRatio="xMinYMin meet" x="435.6" y="-525.15"/>
<text xml:space="preserve" text-anchor="middle" x="486" y="-412.6" font-family="Sans-Serif" font-size="13.00" fill="#2d3436">Vertex AI</text>
<text xml:space="preserve" text-anchor="middle" x="486" y="-396.1" font-family="Sans-Serif" font-size="13.00" fill="#2d3436">Pipelines</text>
</g>
<!-- ac2296a7ed0c4db780a84a2a63a02ee7&#45;&gt;d9c0b3f896e6495ab37df447d6885bb4 -->
<g id="edge1" class="edge">
<title>ac2296a7ed0c4db780a84a2a63a02ee7&#45;&gt;d9c0b3f896e6495ab37df447d6885bb4</title>
<path fill="none" stroke="#7b8894" d="M326.45,-474.75C326.45,-474.75 424.28,-474.75 424.28,-474.75"/>
<polygon fill="#7b8894" stroke="#7b8894" points="424.28,-478.25 434.28,-474.75 424.28,-471.25 424.28,-478.25"/>
</g>
<!-- 0eed1a4bdbcc4099b12a33cf9bb748a7 -->
<g id="node8" class="node">
<title>0eed1a4bdbcc4099b12a33cf9bb748a7</title>
<image xlink:href="C:\Users\A450373\AppData\Local\Programs\Python\Python312\Lib\site-packages\resources/gcp/api\api-gateway.png" width="100.8px" height="100.8px" preserveAspectRatio="xMinYMin meet" x="645.4" y="-1001.15"/>
<text xml:space="preserve" text-anchor="middle" x="695.8" y="-888.6" font-family="Sans-Serif" font-size="13.00" fill="#2d3436">Cloud API Gateway</text>
<text xml:space="preserve" text-anchor="middle" x="695.8" y="-872.1" font-family="Sans-Serif" font-size="13.00" fill="#2d3436">(Contratos e Rate Limit)</text>
</g>
<!-- ac2296a7ed0c4db780a84a2a63a02ee7&#45;&gt;0eed1a4bdbcc4099b12a33cf9bb748a7 -->
<!-- d9c0b3f896e6495ab37df447d6885bb4&#45;&gt;2af8171df35648b3b251b704830ff50b -->
<g id="edge2" class="edge">
<title>d9c0b3f896e6495ab37df447d6885bb4&#45;&gt;2af8171df35648b3b251b704830ff50b</title>
<path fill="none" stroke="#7b8894" d="M536.25,-474.75C536.25,-474.75 634.08,-474.75 634.08,-474.75"/>
<polygon fill="#7b8894" stroke="#7b8894" points="634.08,-478.25 644.08,-474.75 634.08,-471.25 634.08,-478.25"/>
</g>
<!-- 594628b8763d43a08c108eab0f28c6fa -->
<g id="node11" class="node">
<title>594628b8763d43a08c108eab0f28c6fa</title>
<image xlink:href="C:\Users\A450373\AppData\Local\Programs\Python\Python312\Lib\site-packages\resources/gcp/database\spanner.png" width="100.8px" height="100.8px" preserveAspectRatio="xMinYMin meet" x="1234.25" y="-754.15"/>
<text xml:space="preserve" text-anchor="middle" x="1284.65" y="-641.6" font-family="Sans-Serif" font-size="13.00" fill="#2d3436">Cloud Spanner</text>
<text xml:space="preserve" text-anchor="middle" x="1284.65" y="-625.1" font-family="Sans-Serif" font-size="13.00" fill="#2d3436">(Audit Vault &amp; Cache)</text>
</g>
<!-- 2af8171df35648b3b251b704830ff50b&#45;&gt;594628b8763d43a08c108eab0f28c6fa -->
<!-- 9879cf0801cb41faaaead8ac0f058014 -->
<g id="node7" class="node">
<title>9879cf0801cb41faaaead8ac0f058014</title>
<image xlink:href="C:\Users\A450373\AppData\Local\Programs\Python\Python312\Lib\site-packages\resources/gcp/network\load-balancing.png" width="100.8px" height="100.8px" preserveAspectRatio="xMinYMin meet" x="435.6" y="-992.15"/>
<text xml:space="preserve" text-anchor="middle" x="486" y="-879.6" font-family="Sans-Serif" font-size="13.00" fill="#2d3436">Cloud Load</text>
<text xml:space="preserve" text-anchor="middle" x="486" y="-863.1" font-family="Sans-Serif" font-size="13.00" fill="#2d3436">Balancing (HTTPS)</text>
</g>
<!-- 54e11baf51cb45eebbb278fc06a06082&#45;&gt;9879cf0801cb41faaaead8ac0f058014 -->
<g id="edge3" class="edge">
<title>54e11baf51cb45eebbb278fc06a06082&#45;&gt;9879cf0801cb41faaaead8ac0f058014</title>
<path fill="none" stroke="#7b8894" d="M326.45,-865.75C326.45,-865.75 424.28,-865.75 424.28,-865.75"/>
<polygon fill="#7b8894" stroke="#7b8894" points="424.28,-869.25 434.28,-865.75 424.28,-862.25 424.28,-869.25"/>
</g>
<!-- 9879cf0801cb41faaaead8ac0f058014&#45;&gt;0eed1a4bdbcc4099b12a33cf9bb748a7 -->
<g id="edge4" class="edge">
<title>9879cf0801cb41faaaead8ac0f058014&#45;&gt;0eed1a4bdbcc4099b12a33cf9bb748a7</title>
<path fill="none" stroke="#7b8894" d="M536.25,-946.25C536.25,-946.25 634.08,-946.25 634.08,-946.25"/>
<polygon fill="#7b8894" stroke="#7b8894" points="634.08,-949.75 644.08,-946.25 634.08,-942.75 634.08,-949.75"/>
</g>
<!-- 7af1667f0b2f41ba9b3c770ee81cc055 -->
<g id="node9" class="node">
<title>7af1667f0b2f41ba9b3c770ee81cc055</title>
<image xlink:href="C:\Users\A450373\AppData\Local\Programs\Python\Python312\Lib\site-packages\resources/gcp/compute\run.png" width="100.8px" height="100.8px" preserveAspectRatio="xMinYMin meet" x="855.2" y="-1006.15"/>
<text xml:space="preserve" text-anchor="middle" x="905.6" y="-893.6" font-family="Sans-Serif" font-size="13.00" fill="#2d3436">Cloud Run</text>
<text xml:space="preserve" text-anchor="middle" x="905.6" y="-877.1" font-family="Sans-Serif" font-size="13.00" fill="#2d3436">(Decision Broker)</text>
</g>
<!-- 0eed1a4bdbcc4099b12a33cf9bb748a7&#45;&gt;7af1667f0b2f41ba9b3c770ee81cc055 -->
<g id="edge5" class="edge">
<title>0eed1a4bdbcc4099b12a33cf9bb748a7&#45;&gt;7af1667f0b2f41ba9b3c770ee81cc055</title>
<path fill="none" stroke="#7b8894" d="M746.05,-953.25C746.05,-953.25 843.88,-953.25 843.88,-953.25"/>
<polygon fill="#7b8894" stroke="#7b8894" points="843.88,-956.75 853.88,-953.25 843.88,-949.75 843.88,-956.75"/>
</g>
<!-- fd8c5b8751b3400d92612908e1dcc275 -->
<g id="node13" class="node">
<title>fd8c5b8751b3400d92612908e1dcc275</title>
<image xlink:href="C:\Users\A450373\AppData\Local\Programs\Python\Python312\Lib\site-packages\resources/gcp/ml\ai-platform.png" width="100.8px" height="100.8px" preserveAspectRatio="xMinYMin meet" x="1600.55" y="-1370.15"/>
<text xml:space="preserve" text-anchor="middle" x="1650.95" y="-1257.6" font-family="Sans-Serif" font-size="13.00" fill="#2d3436">Vertex AI</text>
<text xml:space="preserve" text-anchor="middle" x="1650.95" y="-1241.1" font-family="Sans-Serif" font-size="13.00" fill="#2d3436">Endpoint (Online)</text>
</g>
<!-- 0eed1a4bdbcc4099b12a33cf9bb748a7&#45;&gt;fd8c5b8751b3400d92612908e1dcc275 -->
<!-- 109ae4ce1b214c1a8a01fe956b04b087 -->
<g id="node10" class="node">
<title>109ae4ce1b214c1a8a01fe956b04b087</title>
<image xlink:href="C:\Users\A450373\AppData\Local\Programs\Python\Python312\Lib\site-packages\resources/gcp/security\secret-manager.png" width="100.8px" height="100.8px" preserveAspectRatio="xMinYMin meet" x="1234.25" y="-1006.15"/>
<text xml:space="preserve" text-anchor="middle" x="1284.65" y="-893.6" font-family="Sans-Serif" font-size="13.00" fill="#2d3436">Secret Manager</text>
<text xml:space="preserve" text-anchor="middle" x="1284.65" y="-877.1" font-family="Sans-Serif" font-size="13.00" fill="#2d3436">(Chaves/Certificados)</text>
</g>
<!-- 7af1667f0b2f41ba9b3c770ee81cc055&#45;&gt;109ae4ce1b214c1a8a01fe956b04b087 -->
<g id="edge6" class="edge">
<title>7af1667f0b2f41ba9b3c770ee81cc055&#45;&gt;109ae4ce1b214c1a8a01fe956b04b087</title>
<path fill="none" stroke="#7b8894" stroke-dasharray="5,2" d="M955.93,-955.75C955.93,-955.75 1222.9,-955.75 1222.9,-955.75"/>
<polygon fill="#7b8894" stroke="#7b8894" points="1222.9,-959.25 1232.9,-955.75 1222.9,-952.25 1222.9,-959.25"/>
<text xml:space="preserve" text-anchor="middle" x="1095.13" y="-959.9" font-family="Sans-Serif" font-size="13.00" fill="#2d3436">1. Obtém Credenciais</text>
</g>
<!-- 7af1667f0b2f41ba9b3c770ee81cc055&#45;&gt;594628b8763d43a08c108eab0f28c6fa -->
<g id="edge7" class="edge">
<title>7af1667f0b2f41ba9b3c770ee81cc055&#45;&gt;594628b8763d43a08c108eab0f28c6fa</title>
<path fill="none" stroke="#7b8894" d="M905.9,-873.15C905.9,-814.73 905.9,-746.75 905.9,-746.75 905.9,-746.75 1222.84,-746.75 1222.84,-746.75"/>
<polygon fill="#7b8894" stroke="#7b8894" points="1222.84,-750.25 1232.84,-746.75 1222.84,-743.25 1222.84,-750.25"/>
<text xml:space="preserve" text-anchor="middle" x="1095.13" y="-781.9" font-family="Sans-Serif" font-size="13.00" fill="#2d3436">2. Persistência de Logs/Cache</text>
</g>
<!-- c77d405f1999457ca77079c628efa639 -->
<g id="node12" class="node">
<title>c77d405f1999457ca77079c628efa639</title>
<image xlink:href="C:\Users\A450373\AppData\Local\Programs\Python\Python312\Lib\site-packages\resources/gcp/network\dns.png" width="100.8px" height="100.8px" preserveAspectRatio="xMinYMin meet" x="1234.25" y="-1258.15"/>
<text xml:space="preserve" text-anchor="middle" x="1284.65" y="-1145.6" font-family="Sans-Serif" font-size="13.00" fill="#2d3436">Cloud DNS / PSC</text>
<text xml:space="preserve" text-anchor="middle" x="1284.65" y="-1129.1" font-family="Sans-Serif" font-size="13.00" fill="#2d3436">(Private Service Connect)</text>
</g>
<!-- 7af1667f0b2f41ba9b3c770ee81cc055&#45;&gt;c77d405f1999457ca77079c628efa639 -->
<g id="edge8" class="edge">
<title>7af1667f0b2f41ba9b3c770ee81cc055&#45;&gt;c77d405f1999457ca77079c628efa639</title>
<path fill="none" stroke="#7b8894" d="M921.9,-1038.26C921.9,-1111.76 921.9,-1207.75 921.9,-1207.75 921.9,-1207.75 1223.08,-1207.75 1223.08,-1207.75"/>
<polygon fill="#7b8894" stroke="#7b8894" points="1223.08,-1211.25 1233.08,-1207.75 1223.08,-1204.25 1223.08,-1211.25"/>
<text xml:space="preserve" text-anchor="middle" x="1095.13" y="-1139.9" font-family="Sans-Serif" font-size="13.00" fill="#2d3436">4. Roteamento Privado (PSC)</text>
</g>
<!-- fe8e50c63eb1480ca5277c3e2c86d06a -->
<g id="node17" class="node">
<title>fe8e50c63eb1480ca5277c3e2c86d06a</title>
<image xlink:href="C:\Users\A450373\AppData\Local\Programs\Python\Python312\Lib\site-packages\resources/onprem/compute\server.png" width="100.8px" height="100.8px" preserveAspectRatio="xMinYMin meet" x="1930.2" y="-1608.15"/>
<text xml:space="preserve" text-anchor="middle" x="1980.6" y="-1493.5" font-family="Sans-Serif" font-size="13.00" fill="#2d3436">Bureaus</text>
</g>
<!-- 7af1667f0b2f41ba9b3c770ee81cc055&#45;&gt;fe8e50c63eb1480ca5277c3e2c86d06a -->
<g id="edge14" class="edge">
<title>7af1667f0b2f41ba9b3c770ee81cc055&#45;&gt;fe8e50c63eb1480ca5277c3e2c86d06a</title>
<path fill="none" stroke="blue" d="M888.9,-1038.4C888.9,-1208.21 888.9,-1580.55 888.9,-1580.55 888.9,-1580.55 1918.98,-1580.55 1918.98,-1580.55"/>
<polygon fill="blue" stroke="blue" points="1918.98,-1584.05 1928.98,-1580.55 1918.98,-1577.05 1918.98,-1584.05"/>
<text xml:space="preserve" text-anchor="middle" x="1467.8" y="-1598.9" font-family="Sans-Serif" font-size="13.00" fill="#2d3436">3. Consulta Externa (HTTP)</text>
</g>
<!-- 62883628c2e341d0a5abc788f939da17 -->
<g id="node16" class="node">
<title>62883628c2e341d0a5abc788f939da17</title>
<image xlink:href="C:\Users\A450373\AppData\Local\Programs\Python\Python312\Lib\site-packages\resources/gcp/analytics\bigquery.png" width="100.8px" height="100.8px" preserveAspectRatio="xMinYMin meet" x="2165.1" y="-1244.15"/>
<text xml:space="preserve" text-anchor="middle" x="2215.5" y="-1131.6" font-family="Sans-Serif" font-size="13.00" fill="#2d3436">BigQuery</text>
<text xml:space="preserve" text-anchor="middle" x="2215.5" y="-1115.1" font-family="Sans-Serif" font-size="13.00" fill="#2d3436">(Logs Operacionais)</text>
</g>
<!-- 594628b8763d43a08c108eab0f28c6fa&#45;&gt;62883628c2e341d0a5abc788f939da17 -->
<!-- c77d405f1999457ca77079c628efa639&#45;&gt;fd8c5b8751b3400d92612908e1dcc275 -->
<g id="edge15" class="edge">
<title>c77d405f1999457ca77079c628efa639&#45;&gt;fd8c5b8751b3400d92612908e1dcc275</title>
<path fill="none" stroke="darkgreen" d="M1334.81,-1263.75C1334.81,-1263.75 1589.29,-1263.75 1589.29,-1263.75"/>
<polygon fill="darkgreen" stroke="darkgreen" points="1589.29,-1267.25 1599.29,-1263.75 1589.29,-1260.25 1589.29,-1267.25"/>
<text xml:space="preserve" text-anchor="middle" x="1467.8" y="-1285.9" font-family="Sans-Serif" font-size="13.00" fill="#2d3436">Aciona Inferência</text>
</g>
<!-- 1481e014967d4246ba9d1355eb724db1 -->
<g id="node14" class="node">
<title>1481e014967d4246ba9d1355eb724db1</title>
<image xlink:href="C:\Users\A450373\AppData\Local\Programs\Python\Python312\Lib\site-packages\resources/gcp/analytics\bigquery.png" width="100.8px" height="100.8px" preserveAspectRatio="xMinYMin meet" x="1930.2" y="-1118.15"/>
<text xml:space="preserve" text-anchor="middle" x="1980.6" y="-1005.6" font-family="Sans-Serif" font-size="13.00" fill="#2d3436">BigQuery</text>
<text xml:space="preserve" text-anchor="middle" x="1980.6" y="-989.1" font-family="Sans-Serif" font-size="13.00" fill="#2d3436">(Repositório de Features)</text>
</g>
<!-- fd8c5b8751b3400d92612908e1dcc275&#45;&gt;1481e014967d4246ba9d1355eb724db1 -->
<g id="edge9" class="edge">
<title>fd8c5b8751b3400d92612908e1dcc275&#45;&gt;1481e014967d4246ba9d1355eb724db1</title>
<path fill="none" stroke="#7b8894" d="M1650.9,-1237C1650.9,-1188.93 1650.9,-1137.75 1650.9,-1137.75 1650.9,-1137.75 1919.01,-1137.75 1919.01,-1137.75"/>
<polygon fill="#7b8894" stroke="#7b8894" points="1919.01,-1141.25 1929.01,-1137.75 1919.01,-1134.25 1919.01,-1141.25"/>
<text xml:space="preserve" text-anchor="middle" x="1803.73" y="-1144.9" font-family="Sans-Serif" font-size="13.00" fill="#2d3436">Lookup Variáveis</text>
</g>
<!-- 4052dfca6f11415baaaca09560cc70bd -->
<g id="node15" class="node">
<title>4052dfca6f11415baaaca09560cc70bd</title>
<image xlink:href="C:\Users\A450373\AppData\Local\Programs\Python\Python312\Lib\site-packages\resources/gcp/operations\monitoring.png" width="100.8px" height="100.8px" preserveAspectRatio="xMinYMin meet" x="1930.2" y="-1370.15"/>
<text xml:space="preserve" text-anchor="middle" x="1980.6" y="-1257.6" font-family="Sans-Serif" font-size="13.00" fill="#2d3436">Vertex AI</text>
<text xml:space="preserve" text-anchor="middle" x="1980.6" y="-1241.1" font-family="Sans-Serif" font-size="13.00" fill="#2d3436">Model Monitoring</text>
</g>
<!-- fd8c5b8751b3400d92612908e1dcc275&#45;&gt;4052dfca6f11415baaaca09560cc70bd -->
<g id="edge10" class="edge">
<title>fd8c5b8751b3400d92612908e1dcc275&#45;&gt;4052dfca6f11415baaaca09560cc70bd</title>
<path fill="none" stroke="#7b8894" d="M1701.02,-1319.75C1701.02,-1319.75 1918.82,-1319.75 1918.82,-1319.75"/>
<polygon fill="#7b8894" stroke="#7b8894" points="1918.82,-1323.25 1928.82,-1319.75 1918.82,-1316.25 1918.82,-1323.25"/>
<text xml:space="preserve" text-anchor="middle" x="1803.73" y="-1323.9" font-family="Sans-Serif" font-size="13.00" fill="#2d3436">Telemetria</text>
</g>
<!-- fd8c5b8751b3400d92612908e1dcc275&#45;&gt;fe8e50c63eb1480ca5277c3e2c86d06a -->
<!-- 4052dfca6f11415baaaca09560cc70bd&#45;&gt;62883628c2e341d0a5abc788f939da17 -->
<g id="edge11" class="edge">
<title>4052dfca6f11415baaaca09560cc70bd&#45;&gt;62883628c2e341d0a5abc788f939da17</title>
<path fill="none" stroke="#7b8894" d="M2030.99,-1256.75C2030.99,-1256.75 2153.68,-1256.75 2153.68,-1256.75"/>
<polygon fill="#7b8894" stroke="#7b8894" points="2153.68,-1260.25 2163.68,-1256.75 2153.68,-1253.25 2153.68,-1260.25"/>
</g>
</g>
</svg>
