<?xml version="1.0" encoding="UTF-8" standalone="no"?>
<!DOCTYPE svg PUBLIC "-//W3C//DTD SVG 1.1//EN"
 "http://www.w3.org/Graphics/SVG/1.1/DTD/svg11.dtd">
<!-- Generated by graphviz version 14.1.1 (20251213.1925)
 -->
<!-- Title: MLOps Network and Security Ecosystem &#45; SIPML v4 Pages: 1 -->
<svg width="18966pt" height="14241pt"
 viewBox="0.00 0.00 18966.00 14241.00" xmlns="http://www.w3.org/2000/svg" xmlns:xlink="http://www.w3.org/1999/xlink">
<g id="graph0" class="graph" transform="scale(8.33333 8.33333) rotate(0) translate(21.6 1687.35)">
<title>MLOps Network and Security Ecosystem &#45; SIPML v4</title>
<polygon fill="white" stroke="none" points="-21.6,21.6 -21.6,-1687.35 2254.3,-1687.35 2254.3,21.6 -21.6,21.6"/>
<text xml:space="preserve" text-anchor="middle" x="1116.35" y="-7.55" font-family="Arial" font-size="16.00" fill="#2d3436">MLOps Network and Security Ecosystem &#45; SIPML v4</text>
<g id="clust1" class="cluster">
<title>cluster_Origens de Tráfego</title>
<path fill="#e5f5fd" stroke="#aeb6be" d="M20,-34.75C20,-34.75 112.8,-34.75 112.8,-34.75 118.8,-34.75 124.8,-40.75 124.8,-46.75 124.8,-46.75 124.8,-480.75 124.8,-480.75 124.8,-486.75 118.8,-492.75 112.8,-492.75 112.8,-492.75 20,-492.75 20,-492.75 14,-492.75 8,-486.75 8,-480.75 8,-480.75 8,-46.75 8,-46.75 8,-40.75 14,-34.75 20,-34.75"/>
<text xml:space="preserve" text-anchor="middle" x="66.25" y="-477.35" font-family="Sans-Serif" font-size="12.00" fill="#2d3436">Origens de Tráfego</text>
</g>
<g id="clust2" class="cluster">
<title>cluster_Spoke de Modelagem
(prj&#45;sipml&#45;modelagem&#45;anl)</title>
<path fill="#e5f5fd" stroke="#aeb6be" d="M229.8,-383.75C229.8,-383.75 742.2,-383.75 742.2,-383.75 748.2,-383.75 754.2,-389.75 754.2,-395.75 754.2,-395.75 754.2,-592.75 754.2,-592.75 754.2,-598.75 748.2,-604.75 742.2,-604.75 742.2,-604.75 229.8,-604.75 229.8,-604.75 223.8,-604.75 217.8,-598.75 217.8,-592.75 217.8,-592.75 217.8,-395.75 217.8,-395.75 217.8,-389.75 223.8,-383.75 229.8,-383.75"/>
<text xml:space="preserve" text-anchor="middle" x="296.67" y="-589.35" font-family="Sans-Serif" font-size="12.00" fill="#2d3436">Spoke de Modelagem</text>
<text xml:space="preserve" text-anchor="middle" x="296.67" y="-573.6" font-family="Sans-Serif" font-size="12.00" fill="#2d3436">(prj&#45;sipml&#45;modelagem&#45;anl)</text>
</g>
<g id="clust3" class="cluster">
<title>cluster_Hub Central de Orquestração
(prj&#45;sipml&#45;gateway&#45;prd)</title>
<path fill="#e5f5fd" stroke="#aeb6be" d="M229.8,-612.75C229.8,-612.75 1331.05,-612.75 1331.05,-612.75 1337.05,-612.75 1343.05,-618.75 1343.05,-624.75 1343.05,-624.75 1343.05,-1325.75 1343.05,-1325.75 1343.05,-1331.75 1337.05,-1337.75 1331.05,-1337.75 1331.05,-1337.75 229.8,-1337.75 229.8,-1337.75 223.8,-1337.75 217.8,-1331.75 217.8,-1325.75 217.8,-1325.75 217.8,-624.75 217.8,-624.75 217.8,-618.75 223.8,-612.75 229.8,-612.75"/>
<text xml:space="preserve" text-anchor="middle" x="302.3" y="-1322.35" font-family="Sans-Serif" font-size="12.00" fill="#2d3436">Hub Central de Orquestração</text>
<text xml:space="preserve" text-anchor="middle" x="302.3" y="-1306.6" font-family="Sans-Serif" font-size="12.00" fill="#2d3436">(prj&#45;sipml&#45;gateway&#45;prd)</text>
</g>
<g id="clust4" class="cluster">
<title>cluster_Spoke de Inferência e Serving
(prj&#45;sipml&#45;inferencia&#45;prd)</title>
<path fill="#e5f5fd" stroke="#aeb6be" d="M1604.55,-976.75C1604.55,-976.75 2212.7,-976.75 2212.7,-976.75 2218.7,-976.75 2224.7,-982.75 2224.7,-988.75 2224.7,-988.75 2224.7,-1437.75 2224.7,-1437.75 2224.7,-1443.75 2218.7,-1449.75 2212.7,-1449.75 2212.7,-1449.75 1604.55,-1449.75 1604.55,-1449.75 1598.55,-1449.75 1592.55,-1443.75 1592.55,-1437.75 1592.55,-1437.75 1592.55,-988.75 1592.55,-988.75 1592.55,-982.75 1598.55,-976.75 1604.55,-976.75"/>
<text xml:space="preserve" text-anchor="middle" x="1679.68" y="-1434.35" font-family="Sans-Serif" font-size="12.00" fill="#2d3436">Spoke de Inferência e Serving</text>
<text xml:space="preserve" text-anchor="middle" x="1679.68" y="-1418.6" font-family="Sans-Serif" font-size="12.00" fill="#2d3436">(prj&#45;sipml&#45;inferencia&#45;prd)</text>
</g>
<g id="clust5" class="cluster">
<title>cluster_Bureaus Externos</title>
<path fill="#e5f5fd" stroke="#aeb6be" d="M1910.1,-1481.75C1910.1,-1481.75 2002.9,-1481.75 2002.9,-1481.75 2008.9,-1481.75 2014.9,-1487.75 2014.9,-1493.75 2014.9,-1493.75 2014.9,-1645.75 2014.9,-1645.75 2014.9,-1651.75 2008.9,-1657.75 2002.9,-1657.75 2002.9,-1657.75 1910.1,-1657.75 1910.1,-1657.75 1904.1,-1657.75 1898.1,-1651.75 1898.1,-1645.75 1898.1,-1645.75 1898.1,-1493.75 1898.1,-1493.75 1898.1,-1487.75 1904.1,-1481.75 1910.1,-1481.75"/>
<text xml:space="preserve" text-anchor="middle" x="1951.85" y="-1642.35" font-family="Sans-Serif" font-size="12.00" fill="#2d3436">Bureaus Externos</text>
</g>
<!-- 70f0328063a54c869d422e342178ff2e -->
<g id="node1" class="node">
<title>70f0328063a54c869d422e342178ff2e</title>
<image xlink:href="C:\Users\A450373\OneDrive - ATOS\source-code\pessoal\architect-kit\backend\venv\Lib\site-packages\resources/onprem/client\users.png" width="100.8px" height="100.8px" preserveAspectRatio="xMinYMin meet" x="16" y="-176.15"/>
<text xml:space="preserve" text-anchor="middle" x="66.4" y="-63.6" font-family="Sans-Serif" font-size="13.00" fill="#2d3436">Cientistas de Dados /</text>
<text xml:space="preserve" text-anchor="middle" x="66.4" y="-47.1" font-family="Sans-Serif" font-size="13.00" fill="#2d3436">Engenheiros</text>
</g>
<!-- 40f75754bb144393a1c6cc328d7920c1 -->
<g id="node3" class="node">
<title>40f75754bb144393a1c6cc328d7920c1</title>
<image xlink:href="C:\Users\A450373\OneDrive - ATOS\source-code\pessoal\architect-kit\backend\venv\Lib\site-packages\resources/gcp/ml\ai-platform.png" width="100.8px" height="100.8px" preserveAspectRatio="xMinYMin meet" x="225.8" y="-525.15"/>
<text xml:space="preserve" text-anchor="middle" x="276.2" y="-412.6" font-family="Sans-Serif" font-size="13.00" fill="#2d3436">Vertex AI</text>
<text xml:space="preserve" text-anchor="middle" x="276.2" y="-396.1" font-family="Sans-Serif" font-size="13.00" fill="#2d3436">Workbench</text>
</g>
<!-- 70f0328063a54c869d422e342178ff2e&#45;&gt;40f75754bb144393a1c6cc328d7920c1 -->
<g id="edge12" class="edge">
<title>70f0328063a54c869d422e342178ff2e&#45;&gt;40f75754bb144393a1c6cc328d7920c1</title>
<path fill="none" stroke="#7b8894" d="M116.68,-153.35C173.96,-153.35 259.7,-153.35 259.7,-153.35 259.7,-153.35 259.7,-380.47 259.7,-380.47"/>
<polygon fill="#7b8894" stroke="#7b8894" points="256.2,-380.47 259.7,-390.47 263.2,-380.47 256.2,-380.47"/>
</g>
<!-- 70f0328063a54c869d422e342178ff2e&#45;&gt;40f75754bb144393a1c6cc328d7920c1 -->
<!-- a271a909ad5f4baa9224a4bff98f65b9 -->
<g id="node2" class="node">
<title>a271a909ad5f4baa9224a4bff98f65b9</title>
<image xlink:href="C:\Users\A450373\OneDrive - ATOS\source-code\pessoal\architect-kit\backend\venv\Lib\site-packages\resources/onprem/client\client.png" width="100.8px" height="100.8px" preserveAspectRatio="xMinYMin meet" x="16" y="-428.15"/>
<text xml:space="preserve" text-anchor="middle" x="66.4" y="-315.6" font-family="Sans-Serif" font-size="13.00" fill="#2d3436">Aplicações Consumidoras</text>
<text xml:space="preserve" text-anchor="middle" x="66.4" y="-299.1" font-family="Sans-Serif" font-size="13.00" fill="#2d3436">/ Sistemas Legados</text>
</g>
<!-- dc4a348cf73b4bf9b5048f6d0893cdea -->
<g id="node5" class="node">
<title>dc4a348cf73b4bf9b5048f6d0893cdea</title>
<image xlink:href="C:\Users\A450373\OneDrive - ATOS\source-code\pessoal\architect-kit\backend\venv\Lib\site-packages\resources/gcp/analytics\bigquery.png" width="100.8px" height="100.8px" preserveAspectRatio="xMinYMin meet" x="645.4" y="-525.15"/>
<text xml:space="preserve" text-anchor="middle" x="695.8" y="-412.6" font-family="Sans-Serif" font-size="13.00" fill="#2d3436">BigQuery</text>
<text xml:space="preserve" text-anchor="middle" x="695.8" y="-396.1" font-family="Sans-Serif" font-size="13.00" fill="#2d3436">(Sandbox)</text>
</g>
<!-- a271a909ad5f4baa9224a4bff98f65b9&#45;&gt;dc4a348cf73b4bf9b5048f6d0893cdea -->
<!-- c923a70e92a14952833c0ab5cd59c7b7 -->
<g id="node6" class="node">
<title>c923a70e92a14952833c0ab5cd59c7b7</title>
<image xlink:href="C:\Users\A450373\OneDrive - ATOS\source-code\pessoal\architect-kit\backend\venv\Lib\site-packages\resources/gcp/network\armor.png" width="100.8px" height="100.8px" preserveAspectRatio="xMinYMin meet" x="225.8" y="-840.15"/>
<text xml:space="preserve" text-anchor="middle" x="276.2" y="-727.6" font-family="Sans-Serif" font-size="13.00" fill="#2d3436">Cloud Armor</text>
<text xml:space="preserve" text-anchor="middle" x="276.2" y="-711.1" font-family="Sans-Serif" font-size="13.00" fill="#2d3436">(Proteção WAF)</text>
</g>
<!-- a271a909ad5f4baa9224a4bff98f65b9&#45;&gt;c923a70e92a14952833c0ab5cd59c7b7 -->
<g id="edge13" class="edge">
<title>a271a909ad5f4baa9224a4bff98f65b9&#45;&gt;c923a70e92a14952833c0ab5cd59c7b7</title>
<path fill="none" stroke="#7b8894" d="M66.7,-460.13C66.7,-580.37 66.7,-789.75 66.7,-789.75 66.7,-789.75 214.51,-789.75 214.51,-789.75"/>
<polygon fill="#7b8894" stroke="#7b8894" points="214.51,-793.25 224.51,-789.75 214.51,-786.25 214.51,-793.25"/>
</g>
<!-- 471af20871ca496a9319cac8306814e9 -->
<g id="node4" class="node">
<title>471af20871ca496a9319cac8306814e9</title>
<image xlink:href="C:\Users\A450373\OneDrive - ATOS\source-code\pessoal\architect-kit\backend\venv\Lib\site-packages\resources/gcp/ml\ai-platform.png" width="100.8px" height="100.8px" preserveAspectRatio="xMinYMin meet" x="435.6" y="-525.15"/>
<text xml:space="preserve" text-anchor="middle" x="486" y="-412.6" font-family="Sans-Serif" font-size="13.00" fill="#2d3436">Vertex AI</text>
<text xml:space="preserve" text-anchor="middle" x="486" y="-396.1" font-family="Sans-Serif" font-size="13.00" fill="#2d3436">Pipelines</text>
</g>
<!-- 40f75754bb144393a1c6cc328d7920c1&#45;&gt;471af20871ca496a9319cac8306814e9 -->
<g id="edge1" class="edge">
<title>40f75754bb144393a1c6cc328d7920c1&#45;&gt;471af20871ca496a9319cac8306814e9</title>
<path fill="none" stroke="#7b8894" d="M326.45,-474.75C326.45,-474.75 424.28,-474.75 424.28,-474.75"/>
<polygon fill="#7b8894" stroke="#7b8894" points="424.28,-478.25 434.28,-474.75 424.28,-471.25 424.28,-478.25"/>
</g>
<!-- eb0c2ee5d0bb469fad030bbaa52dc5e6 -->
<g id="node8" class="node">
<title>eb0c2ee5d0bb469fad030bbaa52dc5e6</title>
<image xlink:href="C:\Users\A450373\OneDrive - ATOS\source-code\pessoal\architect-kit\backend\venv\Lib\site-packages\resources/gcp/api\api-gateway.png" width="100.8px" height="100.8px" preserveAspectRatio="xMinYMin meet" x="645.4" y="-1001.15"/>
<text xml:space="preserve" text-anchor="middle" x="695.8" y="-888.6" font-family="Sans-Serif" font-size="13.00" fill="#2d3436">Cloud API Gateway</text>
<text xml:space="preserve" text-anchor="middle" x="695.8" y="-872.1" font-family="Sans-Serif" font-size="13.00" fill="#2d3436">(Contratos e Rate Limit)</text>
</g>
<!-- 40f75754bb144393a1c6cc328d7920c1&#45;&gt;eb0c2ee5d0bb469fad030bbaa52dc5e6 -->
<!-- 471af20871ca496a9319cac8306814e9&#45;&gt;dc4a348cf73b4bf9b5048f6d0893cdea -->
<g id="edge2" class="edge">
<title>471af20871ca496a9319cac8306814e9&#45;&gt;dc4a348cf73b4bf9b5048f6d0893cdea</title>
<path fill="none" stroke="#7b8894" d="M536.25,-474.75C536.25,-474.75 634.08,-474.75 634.08,-474.75"/>
<polygon fill="#7b8894" stroke="#7b8894" points="634.08,-478.25 644.08,-474.75 634.08,-471.25 634.08,-478.25"/>
</g>
<!-- 88d21932f5b640049b45d7c9e5264b1f -->
<g id="node11" class="node">
<title>88d21932f5b640049b45d7c9e5264b1f</title>
<image xlink:href="C:\Users\A450373\OneDrive - ATOS\source-code\pessoal\architect-kit\backend\venv\Lib\site-packages\resources/gcp/database\spanner.png" width="100.8px" height="100.8px" preserveAspectRatio="xMinYMin meet" x="1234.25" y="-754.15"/>
<text xml:space="preserve" text-anchor="middle" x="1284.65" y="-641.6" font-family="Sans-Serif" font-size="13.00" fill="#2d3436">Cloud Spanner</text>
<text xml:space="preserve" text-anchor="middle" x="1284.65" y="-625.1" font-family="Sans-Serif" font-size="13.00" fill="#2d3436">(Audit Vault &amp; Cache)</text>
</g>
<!-- dc4a348cf73b4bf9b5048f6d0893cdea&#45;&gt;88d21932f5b640049b45d7c9e5264b1f -->
<!-- 6d180a20bc8045d0b74529ff32b9f064 -->
<g id="node7" class="node">
<title>6d180a20bc8045d0b74529ff32b9f064</title>
<image xlink:href="C:\Users\A450373\OneDrive - ATOS\source-code\pessoal\architect-kit\backend\venv\Lib\site-packages\resources/gcp/network\load-balancing.png" width="100.8px" height="100.8px" preserveAspectRatio="xMinYMin meet" x="435.6" y="-992.15"/>
<text xml:space="preserve" text-anchor="middle" x="486" y="-879.6" font-family="Sans-Serif" font-size="13.00" fill="#2d3436">Cloud Load</text>
<text xml:space="preserve" text-anchor="middle" x="486" y="-863.1" font-family="Sans-Serif" font-size="13.00" fill="#2d3436">Balancing (HTTPS)</text>
</g>
<!-- c923a70e92a14952833c0ab5cd59c7b7&#45;&gt;6d180a20bc8045d0b74529ff32b9f064 -->
<g id="edge3" class="edge">
<title>c923a70e92a14952833c0ab5cd59c7b7&#45;&gt;6d180a20bc8045d0b74529ff32b9f064</title>
<path fill="none" stroke="#7b8894" d="M326.45,-865.75C326.45,-865.75 424.28,-865.75 424.28,-865.75"/>
<polygon fill="#7b8894" stroke="#7b8894" points="424.28,-869.25 434.28,-865.75 424.28,-862.25 424.28,-869.25"/>
</g>
<!-- 6d180a20bc8045d0b74529ff32b9f064&#45;&gt;eb0c2ee5d0bb469fad030bbaa52dc5e6 -->
<g id="edge4" class="edge">
<title>6d180a20bc8045d0b74529ff32b9f064&#45;&gt;eb0c2ee5d0bb469fad030bbaa52dc5e6</title>
<path fill="none" stroke="#7b8894" d="M536.25,-946.25C536.25,-946.25 634.08,-946.25 634.08,-946.25"/>
<polygon fill="#7b8894" stroke="#7b8894" points="634.08,-949.75 644.08,-946.25 634.08,-942.75 634.08,-949.75"/>
</g>
<!-- 4c4f5639cb77497cbc30bc24ef311866 -->
<g id="node9" class="node">
<title>4c4f5639cb77497cbc30bc24ef311866</title>
<image xlink:href="C:\Users\A450373\OneDrive - ATOS\source-code\pessoal\architect-kit\backend\venv\Lib\site-packages\resources/gcp/compute\run.png" width="100.8px" height="100.8px" preserveAspectRatio="xMinYMin meet" x="855.2" y="-1006.15"/>
<text xml:space="preserve" text-anchor="middle" x="905.6" y="-893.6" font-family="Sans-Serif" font-size="13.00" fill="#2d3436">Cloud Run</text>
<text xml:space="preserve" text-anchor="middle" x="905.6" y="-877.1" font-family="Sans-Serif" font-size="13.00" fill="#2d3436">(Decision Broker)</text>
</g>
<!-- eb0c2ee5d0bb469fad030bbaa52dc5e6&#45;&gt;4c4f5639cb77497cbc30bc24ef311866 -->
<g id="edge5" class="edge">
<title>eb0c2ee5d0bb469fad030bbaa52dc5e6&#45;&gt;4c4f5639cb77497cbc30bc24ef311866</title>
<path fill="none" stroke="#7b8894" d="M746.05,-953.25C746.05,-953.25 843.88,-953.25 843.88,-953.25"/>
<polygon fill="#7b8894" stroke="#7b8894" points="843.88,-956.75 853.88,-953.25 843.88,-949.75 843.88,-956.75"/>
</g>
<!-- 3d34c0a4492845a392dfe8d4f112fa99 -->
<g id="node13" class="node">
<title>3d34c0a4492845a392dfe8d4f112fa99</title>
<image xlink:href="C:\Users\A450373\OneDrive - ATOS\source-code\pessoal\architect-kit\backend\venv\Lib\site-packages\resources/gcp/ml\ai-platform.png" width="100.8px" height="100.8px" preserveAspectRatio="xMinYMin meet" x="1600.55" y="-1370.15"/>
<text xml:space="preserve" text-anchor="middle" x="1650.95" y="-1257.6" font-family="Sans-Serif" font-size="13.00" fill="#2d3436">Vertex AI</text>
<text xml:space="preserve" text-anchor="middle" x="1650.95" y="-1241.1" font-family="Sans-Serif" font-size="13.00" fill="#2d3436">Endpoint (Online)</text>
</g>
<!-- eb0c2ee5d0bb469fad030bbaa52dc5e6&#45;&gt;3d34c0a4492845a392dfe8d4f112fa99 -->
<!-- 8d6ca789820d45789191f269c6d3ab32 -->
<g id="node10" class="node">
<title>8d6ca789820d45789191f269c6d3ab32</title>
<image xlink:href="C:\Users\A450373\OneDrive - ATOS\source-code\pessoal\architect-kit\backend\venv\Lib\site-packages\resources/gcp/security\secret-manager.png" width="100.8px" height="100.8px" preserveAspectRatio="xMinYMin meet" x="1234.25" y="-1006.15"/>
<text xml:space="preserve" text-anchor="middle" x="1284.65" y="-893.6" font-family="Sans-Serif" font-size="13.00" fill="#2d3436">Secret Manager</text>
<text xml:space="preserve" text-anchor="middle" x="1284.65" y="-877.1" font-family="Sans-Serif" font-size="13.00" fill="#2d3436">(Chaves/Certificados)</text>
</g>
<!-- 4c4f5639cb77497cbc30bc24ef311866&#45;&gt;8d6ca789820d45789191f269c6d3ab32 -->
<g id="edge6" class="edge">
<title>4c4f5639cb77497cbc30bc24ef311866&#45;&gt;8d6ca789820d45789191f269c6d3ab32</title>
<path fill="none" stroke="#7b8894" stroke-dasharray="5,2" d="M955.93,-955.75C955.93,-955.75 1222.9,-955.75 1222.9,-955.75"/>
<polygon fill="#7b8894" stroke="#7b8894" points="1222.9,-959.25 1232.9,-955.75 1222.9,-952.25 1222.9,-959.25"/>
<text xml:space="preserve" text-anchor="middle" x="1095.13" y="-959.9" font-family="Sans-Serif" font-size="13.00" fill="#2d3436">1. Obtém Credenciais</text>
</g>
<!-- 4c4f5639cb77497cbc30bc24ef311866&#45;&gt;88d21932f5b640049b45d7c9e5264b1f -->
<g id="edge7" class="edge">
<title>4c4f5639cb77497cbc30bc24ef311866&#45;&gt;88d21932f5b640049b45d7c9e5264b1f</title>
<path fill="none" stroke="#7b8894" d="M905.7,-873.15C905.7,-814.73 905.7,-746.75 905.7,-746.75 905.7,-746.75 1222.81,-746.75 1222.81,-746.75"/>
<polygon fill="#7b8894" stroke="#7b8894" points="1222.81,-750.25 1232.81,-746.75 1222.81,-743.25 1222.81,-750.25"/>
<text xml:space="preserve" text-anchor="middle" x="1095.13" y="-781.9" font-family="Sans-Serif" font-size="13.00" fill="#2d3436">2. Persistência de Logs/Cache</text>
</g>
<!-- f20f93f240e641509f41fb5665397342 -->
<g id="node12" class="node">
<title>f20f93f240e641509f41fb5665397342</title>
<image xlink:href="C:\Users\A450373\OneDrive - ATOS\source-code\pessoal\architect-kit\backend\venv\Lib\site-packages\resources/gcp/network\dns.png" width="100.8px" height="100.8px" preserveAspectRatio="xMinYMin meet" x="1234.25" y="-1258.15"/>
<text xml:space="preserve" text-anchor="middle" x="1284.65" y="-1145.6" font-family="Sans-Serif" font-size="13.00" fill="#2d3436">Cloud DNS / PSC</text>
<text xml:space="preserve" text-anchor="middle" x="1284.65" y="-1129.1" font-family="Sans-Serif" font-size="13.00" fill="#2d3436">(Private Service Connect)</text>
</g>
<!-- 4c4f5639cb77497cbc30bc24ef311866&#45;&gt;f20f93f240e641509f41fb5665397342 -->
<g id="edge8" class="edge">
<title>4c4f5639cb77497cbc30bc24ef311866&#45;&gt;f20f93f240e641509f41fb5665397342</title>
<path fill="none" stroke="#7b8894" d="M922.7,-1038.26C922.7,-1111.76 922.7,-1207.75 922.7,-1207.75 922.7,-1207.75 1222.81,-1207.75 1222.81,-1207.75"/>
<polygon fill="#7b8894" stroke="#7b8894" points="1222.81,-1211.25 1232.81,-1207.75 1222.81,-1204.25 1222.81,-1211.25"/>
<text xml:space="preserve" text-anchor="middle" x="1095.13" y="-1139.9" font-family="Sans-Serif" font-size="13.00" fill="#2d3436">4. Roteamento Privado (PSC)</text>
</g>
<!-- 87aea39b7fe344d981956cbcc6c06ce6 -->
<g id="node17" class="node">
<title>87aea39b7fe344d981956cbcc6c06ce6</title>
<image xlink:href="C:\Users\A450373\OneDrive - ATOS\source-code\pessoal\architect-kit\backend\venv\Lib\site-packages\resources/onprem/compute\server.png" width="100.8px" height="100.8px" preserveAspectRatio="xMinYMin meet" x="1906.1" y="-1608.15"/>
<text xml:space="preserve" text-anchor="middle" x="1956.5" y="-1493.5" font-family="Sans-Serif" font-size="13.00" fill="#2d3436">APIs</text>
</g>
<!-- 4c4f5639cb77497cbc30bc24ef311866&#45;&gt;87aea39b7fe344d981956cbcc6c06ce6 -->
<g id="edge14" class="edge">
<title>4c4f5639cb77497cbc30bc24ef311866&#45;&gt;87aea39b7fe344d981956cbcc6c06ce6</title>
<path fill="none" stroke="blue" d="M888.7,-1038.4C888.7,-1208.21 888.7,-1580.55 888.7,-1580.55 888.7,-1580.55 1894.92,-1580.55 1894.92,-1580.55"/>
<polygon fill="blue" stroke="blue" points="1894.92,-1584.05 1904.92,-1580.55 1894.92,-1577.05 1894.92,-1584.05"/>
<text xml:space="preserve" text-anchor="middle" x="1467.8" y="-1598.9" font-family="Sans-Serif" font-size="13.00" fill="#2d3436">3. Consulta Externa (HTTP)</text>
</g>
<!-- a93c3393f60a4f3e9876c6a37ffc9b3a -->
<g id="node16" class="node">
<title>a93c3393f60a4f3e9876c6a37ffc9b3a</title>
<image xlink:href="C:\Users\A450373\OneDrive - ATOS\source-code\pessoal\architect-kit\backend\venv\Lib\site-packages\resources/gcp/analytics\bigquery.png" width="100.8px" height="100.8px" preserveAspectRatio="xMinYMin meet" x="2115.9" y="-1244.15"/>
<text xml:space="preserve" text-anchor="middle" x="2166.3" y="-1131.6" font-family="Sans-Serif" font-size="13.00" fill="#2d3436">BigQuery</text>
<text xml:space="preserve" text-anchor="middle" x="2166.3" y="-1115.1" font-family="Sans-Serif" font-size="13.00" fill="#2d3436">(Logs Operacionais)</text>
</g>
<!-- 88d21932f5b640049b45d7c9e5264b1f&#45;&gt;a93c3393f60a4f3e9876c6a37ffc9b3a -->
<!-- f20f93f240e641509f41fb5665397342&#45;&gt;3d34c0a4492845a392dfe8d4f112fa99 -->
<g id="edge15" class="edge">
<title>f20f93f240e641509f41fb5665397342&#45;&gt;3d34c0a4492845a392dfe8d4f112fa99</title>
<path fill="none" stroke="darkgreen" d="M1334.81,-1263.75C1334.81,-1263.75 1589.29,-1263.75 1589.29,-1263.75"/>
<polygon fill="darkgreen" stroke="darkgreen" points="1589.29,-1267.25 1599.29,-1263.75 1589.29,-1260.25 1589.29,-1267.25"/>
<text xml:space="preserve" text-anchor="middle" x="1467.8" y="-1285.9" font-family="Sans-Serif" font-size="13.00" fill="#2d3436">Aciona Inferência</text>
</g>
<!-- ba146a19c4304547a589f53205291fc5 -->
<g id="node14" class="node">
<title>ba146a19c4304547a589f53205291fc5</title>
<image xlink:href="C:\Users\A450373\OneDrive - ATOS\source-code\pessoal\architect-kit\backend\venv\Lib\site-packages\resources/gcp/analytics\bigquery.png" width="100.8px" height="100.8px" preserveAspectRatio="xMinYMin meet" x="1906.1" y="-1118.15"/>
<text xml:space="preserve" text-anchor="middle" x="1956.5" y="-1005.6" font-family="Sans-Serif" font-size="13.00" fill="#2d3436">BigQuery</text>
<text xml:space="preserve" text-anchor="middle" x="1956.5" y="-989.1" font-family="Sans-Serif" font-size="13.00" fill="#2d3436">(Repositório de Features)</text>
</g>
<!-- 3d34c0a4492845a392dfe8d4f112fa99&#45;&gt;ba146a19c4304547a589f53205291fc5 -->
<g id="edge9" class="edge">
<title>3d34c0a4492845a392dfe8d4f112fa99&#45;&gt;ba146a19c4304547a589f53205291fc5</title>
<path fill="none" stroke="#7b8894" d="M1650.7,-1237C1650.7,-1188.93 1650.7,-1137.75 1650.7,-1137.75 1650.7,-1137.75 1894.83,-1137.75 1894.83,-1137.75"/>
<polygon fill="#7b8894" stroke="#7b8894" points="1894.83,-1141.25 1904.83,-1137.75 1894.83,-1134.25 1894.83,-1141.25"/>
<text xml:space="preserve" text-anchor="middle" x="1803.73" y="-1144.9" font-family="Sans-Serif" font-size="13.00" fill="#2d3436">Lookup Variáveis</text>
</g>
<!-- d11f4a2c7ddf417cbb8364f440d461f3 -->
<g id="node15" class="node">
<title>d11f4a2c7ddf417cbb8364f440d461f3</title>
<image xlink:href="C:\Users\A450373\OneDrive - ATOS\source-code\pessoal\architect-kit\backend\venv\Lib\site-packages\resources/gcp/operations\monitoring.png" width="100.8px" height="100.8px" preserveAspectRatio="xMinYMin meet" x="1906.1" y="-1370.15"/>
<text xml:space="preserve" text-anchor="middle" x="1956.5" y="-1257.6" font-family="Sans-Serif" font-size="13.00" fill="#2d3436">Vertex AI</text>
<text xml:space="preserve" text-anchor="middle" x="1956.5" y="-1241.1" font-family="Sans-Serif" font-size="13.00" fill="#2d3436">Model Monitoring</text>
</g>
<!-- 3d34c0a4492845a392dfe8d4f112fa99&#45;&gt;d11f4a2c7ddf417cbb8364f440d461f3 -->
<g id="edge10" class="edge">
<title>3d34c0a4492845a392dfe8d4f112fa99&#45;&gt;d11f4a2c7ddf417cbb8364f440d461f3</title>
<path fill="none" stroke="#7b8894" d="M1701.06,-1319.75C1701.06,-1319.75 1894.59,-1319.75 1894.59,-1319.75"/>
<polygon fill="#7b8894" stroke="#7b8894" points="1894.59,-1323.25 1904.59,-1319.75 1894.59,-1316.25 1894.59,-1323.25"/>
<text xml:space="preserve" text-anchor="middle" x="1803.73" y="-1323.9" font-family="Sans-Serif" font-size="13.00" fill="#2d3436">Telemetria</text>
</g>
<!-- 3d34c0a4492845a392dfe8d4f112fa99&#45;&gt;87aea39b7fe344d981956cbcc6c06ce6 -->
<!-- d11f4a2c7ddf417cbb8364f440d461f3&#45;&gt;a93c3393f60a4f3e9876c6a37ffc9b3a -->
<g id="edge11" class="edge">
<title>d11f4a2c7ddf417cbb8364f440d461f3&#45;&gt;a93c3393f60a4f3e9876c6a37ffc9b3a</title>
<path fill="none" stroke="#7b8894" d="M2006.75,-1256.75C2006.75,-1256.75 2104.58,-1256.75 2104.58,-1256.75"/>
<polygon fill="#7b8894" stroke="#7b8894" points="2104.58,-1260.25 2114.58,-1256.75 2104.58,-1253.25 2104.58,-1260.25"/>
</g>
</g>
</svg>
