<?xml version="1.0" encoding="UTF-8" standalone="no"?>
<!DOCTYPE svg PUBLIC "-//W3C//DTD SVG 1.1//EN"
 "http://www.w3.org/Graphics/SVG/1.1/DTD/svg11.dtd">
<!-- Generated by graphviz version 14.1.1 (20251213.1925)
 -->
<!-- Title: GCP TPU VM Fine&#45;Tuning Workaround Architecture Pages: 1 -->
<svg width="10061pt" height="7433pt"
 viewBox="0.00 0.00 10061.00 7433.00" xmlns="http://www.w3.org/2000/svg" xmlns:xlink="http://www.w3.org/1999/xlink">
<g id="graph0" class="graph" transform="scale(8.33333 8.33333) rotate(0) translate(21.6 870.35)">
<title>GCP TPU VM Fine&#45;Tuning Workaround Architecture</title>
<polygon fill="white" stroke="none" points="-21.6,21.6 -21.6,-870.35 1185.75,-870.35 1185.75,21.6 -21.6,21.6"/>
<text xml:space="preserve" text-anchor="middle" x="582.08" y="-7.55" font-family="Arial" font-size="16.00" fill="#2d3436">GCP TPU VM Fine&#45;Tuning Workaround Architecture</text>
<g id="clust1" class="cluster">
<title>cluster_Google Cloud Project (GCP)</title>
<path fill="#e5f5fd" stroke="#aeb6be" d="M256.8,-34.75C256.8,-34.75 1152.15,-34.75 1152.15,-34.75 1158.15,-34.75 1164.15,-40.75 1164.15,-46.75 1164.15,-46.75 1164.15,-828.75 1164.15,-828.75 1164.15,-834.75 1158.15,-840.75 1152.15,-840.75 1152.15,-840.75 256.8,-840.75 256.8,-840.75 250.8,-840.75 244.8,-834.75 244.8,-828.75 244.8,-828.75 244.8,-46.75 244.8,-46.75 244.8,-40.75 250.8,-34.75 256.8,-34.75"/>
<text xml:space="preserve" text-anchor="middle" x="326.68" y="-825.35" font-family="Sans-Serif" font-size="12.00" fill="#2d3436">Google Cloud Project (GCP)</text>
</g>
<g id="clust2" class="cluster">
<title>cluster_VPC Network</title>
<path fill="#ebf3e7" stroke="#aeb6be" d="M603.85,-42.75C603.85,-42.75 1144.15,-42.75 1144.15,-42.75 1150.15,-42.75 1156.15,-48.75 1156.15,-54.75 1156.15,-54.75 1156.15,-796.75 1156.15,-796.75 1156.15,-802.75 1150.15,-808.75 1144.15,-808.75 1144.15,-808.75 603.85,-808.75 603.85,-808.75 597.85,-808.75 591.85,-802.75 591.85,-796.75 591.85,-796.75 591.85,-54.75 591.85,-54.75 591.85,-48.75 597.85,-42.75 603.85,-42.75"/>
<text xml:space="preserve" text-anchor="middle" x="634.73" y="-793.35" font-family="Sans-Serif" font-size="12.00" fill="#2d3436">VPC Network</text>
</g>
<g id="clust3" class="cluster">
<title>cluster_Subnet Privada</title>
<path fill="#ece8f6" stroke="#aeb6be" d="M611.85,-50.75C611.85,-50.75 1136.15,-50.75 1136.15,-50.75 1142.15,-50.75 1148.15,-56.75 1148.15,-62.75 1148.15,-62.75 1148.15,-764.75 1148.15,-764.75 1148.15,-770.75 1142.15,-776.75 1136.15,-776.75 1136.15,-776.75 611.85,-776.75 611.85,-776.75 605.85,-776.75 599.85,-770.75 599.85,-764.75 599.85,-764.75 599.85,-62.75 599.85,-62.75 599.85,-56.75 605.85,-50.75 611.85,-50.75"/>
<text xml:space="preserve" text-anchor="middle" x="647.6" y="-761.35" font-family="Sans-Serif" font-size="12.00" fill="#2d3436">Subnet Privada</text>
</g>
<g id="clust4" class="cluster">
<title>cluster_Cloud TPU VM Instance (us&#45;central1)</title>
<path fill="#fdf7e3" stroke="#aeb6be" d="M619.85,-58.75C619.85,-58.75 1128.15,-58.75 1128.15,-58.75 1134.15,-58.75 1140.15,-64.75 1140.15,-70.75 1140.15,-70.75 1140.15,-732.75 1140.15,-732.75 1140.15,-738.75 1134.15,-744.75 1128.15,-744.75 1128.15,-744.75 619.85,-744.75 619.85,-744.75 613.85,-744.75 607.85,-738.75 607.85,-732.75 607.85,-732.75 607.85,-70.75 607.85,-70.75 607.85,-64.75 613.85,-58.75 619.85,-58.75"/>
<text xml:space="preserve" text-anchor="middle" x="713.35" y="-729.35" font-family="Sans-Serif" font-size="12.00" fill="#2d3436">Cloud TPU VM Instance (us&#45;central1)</text>
</g>
<g id="clust5" class="cluster">
<title>cluster_Docker Container (Privilegiado)</title>
<path fill="#e5f5fd" stroke="#aeb6be" d="M962.4,-282.75C962.4,-282.75 1120.15,-282.75 1120.15,-282.75 1126.15,-282.75 1132.15,-288.75 1132.15,-294.75 1132.15,-294.75 1132.15,-700.75 1132.15,-700.75 1132.15,-706.75 1126.15,-712.75 1120.15,-712.75 1120.15,-712.75 962.4,-712.75 962.4,-712.75 956.4,-712.75 950.4,-706.75 950.4,-700.75 950.4,-700.75 950.4,-294.75 950.4,-294.75 950.4,-288.75 956.4,-282.75 962.4,-282.75"/>
<text xml:space="preserve" text-anchor="middle" x="1041.28" y="-697.35" font-family="Sans-Serif" font-size="12.00" fill="#2d3436">Docker Container (Privilegiado)</text>
</g>
<!-- 7c7a736750ee4a208b37f7fa1efae86c -->
<g id="node1" class="node">
<title>7c7a736750ee4a208b37f7fa1efae86c</title>
<image xlink:href="C:\Users\A450373\OneDrive - ATOS\source-code\pessoal\architect-kit\backend\venv\Lib\site-packages\resources/onprem/client\user.png" width="100.8px" height="100.8px" preserveAspectRatio="xMinYMin meet" x="8.52651e-14" y="-200.15"/>
<text xml:space="preserve" text-anchor="middle" x="50.4" y="-87.6" font-family="Sans-Serif" font-size="13.00" fill="#2d3436">Estacao do</text>
<text xml:space="preserve" text-anchor="middle" x="50.4" y="-71.1" font-family="Sans-Serif" font-size="13.00" fill="#2d3436">Desenvolvedor</text>
</g>
<!-- 76999fba1d3242388ed196cbbb2e5952 -->
<g id="node2" class="node">
<title>76999fba1d3242388ed196cbbb2e5952</title>
<image xlink:href="C:\Users\A450373\OneDrive - ATOS\source-code\pessoal\architect-kit\backend\venv\Lib\site-packages\resources/gcp/security\iam.png" width="100.8px" height="100.8px" preserveAspectRatio="xMinYMin meet" x="252.8" y="-200.15"/>
<text xml:space="preserve" text-anchor="middle" x="303.2" y="-87.6" font-family="Sans-Serif" font-size="13.00" fill="#2d3436">Identity&#45;Aware Proxy</text>
<text xml:space="preserve" text-anchor="middle" x="303.2" y="-71.1" font-family="Sans-Serif" font-size="13.00" fill="#2d3436">(IAP)</text>
</g>
<!-- 7c7a736750ee4a208b37f7fa1efae86c&#45;&gt;76999fba1d3242388ed196cbbb2e5952 -->
<g id="edge1" class="edge">
<title>7c7a736750ee4a208b37f7fa1efae86c&#45;&gt;76999fba1d3242388ed196cbbb2e5952</title>
<path fill="none" stroke="red" stroke-dasharray="5,2" d="M100.65,-149.75C100.65,-149.75 241.53,-149.75 241.53,-149.75"/>
<polygon fill="red" stroke="red" points="241.53,-153.25 251.53,-149.75 241.53,-146.25 241.53,-153.25"/>
<text xml:space="preserve" text-anchor="middle" x="176.8" y="-170.4" font-family="Sans-Serif" font-size="13.00" fill="#2d3436">SSH Tunnel</text>
<text xml:space="preserve" text-anchor="middle" x="176.8" y="-153.9" font-family="Sans-Serif" font-size="13.00" fill="#2d3436">(Porta 22)</text>
</g>
<!-- e4d4894dfc05460bb0648d6bc2d2e05a -->
<g id="node3" class="node">
<title>e4d4894dfc05460bb0648d6bc2d2e05a</title>
<image xlink:href="C:\Users\A450373\OneDrive - ATOS\source-code\pessoal\architect-kit\backend\venv\Lib\site-packages\resources/gcp/compute\compute-engine.png" width="100.8px" height="100.8px" preserveAspectRatio="xMinYMin meet" x="615.85" y="-424.15"/>
<text xml:space="preserve" text-anchor="middle" x="666.25" y="-311.6" font-family="Sans-Serif" font-size="13.00" fill="#2d3436">TPU VM Host</text>
<text xml:space="preserve" text-anchor="middle" x="666.25" y="-295.1" font-family="Sans-Serif" font-size="13.00" fill="#2d3436">(OS: Ubuntu)</text>
</g>
<!-- 76999fba1d3242388ed196cbbb2e5952&#45;&gt;e4d4894dfc05460bb0648d6bc2d2e05a -->
<g id="edge2" class="edge">
<title>76999fba1d3242388ed196cbbb2e5952&#45;&gt;e4d4894dfc05460bb0648d6bc2d2e05a</title>
<path fill="none" stroke="blue" d="M353.5,-177.35C449.45,-177.35 649.15,-177.35 649.15,-177.35 649.15,-177.35 649.15,-279.51 649.15,-279.51"/>
<polygon fill="blue" stroke="blue" points="645.65,-279.51 649.15,-289.51 652.65,-279.51 645.65,-279.51"/>
<text xml:space="preserve" text-anchor="middle" x="484.73" y="-234.4" font-family="Sans-Serif" font-size="13.00" fill="#2d3436">Mapeamento Local</text>
<text xml:space="preserve" text-anchor="middle" x="484.73" y="-217.9" font-family="Sans-Serif" font-size="13.00" fill="#2d3436">localhost:8888 / localhost:8080</text>
</g>
<!-- 89356818a2844c10bc23f5fd45db6ed1 -->
<g id="node6" class="node">
<title>89356818a2844c10bc23f5fd45db6ed1</title>
<image xlink:href="C:\Users\A450373\OneDrive - ATOS\source-code\pessoal\architect-kit\backend\venv\Lib\site-packages\resources/gcp/ml\tpu.png" width="100.8px" height="100.8px" preserveAspectRatio="xMinYMin meet" x="990.375" y="-200.15"/>
<text xml:space="preserve" text-anchor="middle" x="1040.78" y="-87.6" font-family="Sans-Serif" font-size="13.00" fill="#2d3436">TPU Hardware</text>
<text xml:space="preserve" text-anchor="middle" x="1040.78" y="-71.1" font-family="Sans-Serif" font-size="13.00" fill="#2d3436">(ex: TPU v5e&#45;8)</text>
</g>
<!-- e4d4894dfc05460bb0648d6bc2d2e05a&#45;&gt;89356818a2844c10bc23f5fd45db6ed1 -->
<g id="edge5" class="edge">
<title>e4d4894dfc05460bb0648d6bc2d2e05a&#45;&gt;89356818a2844c10bc23f5fd45db6ed1</title>
<path fill="none" stroke="purple" d="M683.15,-291.02C683.15,-217.69 683.15,-122.15 683.15,-122.15 683.15,-122.15 979.16,-122.15 979.16,-122.15"/>
<polygon fill="purple" stroke="purple" points="979.16,-125.65 989.16,-122.15 979.16,-118.65 979.16,-125.65"/>
<text xml:space="preserve" text-anchor="middle" x="821.53" y="-262.4" font-family="Sans-Serif" font-size="13.00" fill="#2d3436">&#45;&#45;privileged</text>
<text xml:space="preserve" text-anchor="middle" x="821.53" y="-245.9" font-family="Sans-Serif" font-size="13.00" fill="#2d3436">(Acesso direto à TPU)</text>
</g>
<!-- b7eed6766ca64699aba2fbe32ce732d1 -->
<g id="node7" class="node">
<title>b7eed6766ca64699aba2fbe32ce732d1</title>
<image xlink:href="C:\Users\A450373\OneDrive - ATOS\source-code\pessoal\architect-kit\backend\venv\Lib\site-packages\resources/gcp/compute\compute-engine.png" width="100.8px" height="100.8px" preserveAspectRatio="xMinYMin meet" x="990.375" y="-424.15"/>
<text xml:space="preserve" text-anchor="middle" x="1040.78" y="-311.6" font-family="Sans-Serif" font-size="13.00" fill="#2d3436">Jupyter Server</text>
<text xml:space="preserve" text-anchor="middle" x="1040.78" y="-295.1" font-family="Sans-Serif" font-size="13.00" fill="#2d3436">(Porta 8888)</text>
</g>
<!-- e4d4894dfc05460bb0648d6bc2d2e05a&#45;&gt;b7eed6766ca64699aba2fbe32ce732d1 -->
<g id="edge6" class="edge">
<title>e4d4894dfc05460bb0648d6bc2d2e05a&#45;&gt;b7eed6766ca64699aba2fbe32ce732d1</title>
<path fill="none" stroke="#7b8894" d="M716.37,-373.75C716.37,-373.75 979.14,-373.75 979.14,-373.75"/>
<polygon fill="#7b8894" stroke="#7b8894" points="979.14,-377.25 989.14,-373.75 979.14,-370.25 979.14,-377.25"/>
</g>
<!-- 3d0b37794de84644832a5dee081867a7 -->
<g id="node8" class="node">
<title>3d0b37794de84644832a5dee081867a7</title>
<image xlink:href="C:\Users\A450373\OneDrive - ATOS\source-code\pessoal\architect-kit\backend\venv\Lib\site-packages\resources/gcp/compute\compute-engine.png" width="100.8px" height="100.8px" preserveAspectRatio="xMinYMin meet" x="990.375" y="-648.15"/>
<text xml:space="preserve" text-anchor="middle" x="1040.78" y="-535.6" font-family="Sans-Serif" font-size="13.00" fill="#2d3436">VS Code Web (code&#45;server)</text>
<text xml:space="preserve" text-anchor="middle" x="1040.78" y="-519.1" font-family="Sans-Serif" font-size="13.00" fill="#2d3436">(Porta 8080)</text>
</g>
<!-- e4d4894dfc05460bb0648d6bc2d2e05a&#45;&gt;3d0b37794de84644832a5dee081867a7 -->
<g id="edge7" class="edge">
<title>e4d4894dfc05460bb0648d6bc2d2e05a&#45;&gt;3d0b37794de84644832a5dee081867a7</title>
<path fill="none" stroke="#7b8894" d="M683.15,-456.47C683.15,-510.15 683.15,-570.15 683.15,-570.15 683.15,-570.15 979.16,-570.15 979.16,-570.15"/>
<polygon fill="#7b8894" stroke="#7b8894" points="979.16,-573.65 989.16,-570.15 979.16,-566.65 979.16,-573.65"/>
</g>
<!-- 59ff5105cbb4447ead00d85ec74b631b -->
<g id="node4" class="node">
<title>59ff5105cbb4447ead00d85ec74b631b</title>
<image xlink:href="C:\Users\A450373\OneDrive - ATOS\source-code\pessoal\architect-kit\backend\venv\Lib\site-packages\resources/gcp/devtools\container-registry.png" width="100.8px" height="100.8px" preserveAspectRatio="xMinYMin meet" x="252.8" y="-424.15"/>
<text xml:space="preserve" text-anchor="middle" x="303.2" y="-311.6" font-family="Sans-Serif" font-size="13.00" fill="#2d3436">Artifact Registry</text>
<text xml:space="preserve" text-anchor="middle" x="303.2" y="-295.1" font-family="Sans-Serif" font-size="13.00" fill="#2d3436">(Custom Dev Image)</text>
</g>
<!-- 59ff5105cbb4447ead00d85ec74b631b&#45;&gt;e4d4894dfc05460bb0648d6bc2d2e05a -->
<g id="edge3" class="edge">
<title>59ff5105cbb4447ead00d85ec74b631b&#45;&gt;e4d4894dfc05460bb0648d6bc2d2e05a</title>
<path fill="none" stroke="darkgreen" stroke-dasharray="5,2" d="M353.3,-373.75C353.3,-373.75 604.57,-373.75 604.57,-373.75"/>
<polygon fill="darkgreen" stroke="darkgreen" points="604.57,-377.25 614.57,-373.75 604.57,-370.25 604.57,-377.25"/>
<text xml:space="preserve" text-anchor="middle" x="484.73" y="-377.9" font-family="Sans-Serif" font-size="13.00" fill="#2d3436">docker pull</text>
</g>
<!-- 6b81e2fd720841bcacf41a9e351bd587 -->
<g id="node5" class="node">
<title>6b81e2fd720841bcacf41a9e351bd587</title>
<image xlink:href="C:\Users\A450373\OneDrive - ATOS\source-code\pessoal\architect-kit\backend\venv\Lib\site-packages\resources/gcp/storage\storage.png" width="100.8px" height="100.8px" preserveAspectRatio="xMinYMin meet" x="252.8" y="-648.15"/>
<text xml:space="preserve" text-anchor="middle" x="303.2" y="-535.6" font-family="Sans-Serif" font-size="13.00" fill="#2d3436">Cloud Storage Bucket</text>
<text xml:space="preserve" text-anchor="middle" x="303.2" y="-519.1" font-family="Sans-Serif" font-size="13.00" fill="#2d3436">(Gemma Weights &amp; Datasets)</text>
</g>
<!-- 6b81e2fd720841bcacf41a9e351bd587&#45;&gt;e4d4894dfc05460bb0648d6bc2d2e05a -->
<g id="edge4" class="edge">
<title>6b81e2fd720841bcacf41a9e351bd587&#45;&gt;e4d4894dfc05460bb0648d6bc2d2e05a</title>
<path fill="none" stroke="darkorange" d="M353.5,-625.35C449.45,-625.35 649.15,-625.35 649.15,-625.35 649.15,-625.35 649.15,-468 649.15,-468"/>
<polygon fill="darkorange" stroke="darkorange" points="652.65,-468 649.15,-458 645.65,-468 652.65,-468"/>
<text xml:space="preserve" text-anchor="middle" x="484.73" y="-546.4" font-family="Sans-Serif" font-size="13.00" fill="#2d3436">gcsfuse mount</text>
<text xml:space="preserve" text-anchor="middle" x="484.73" y="-529.9" font-family="Sans-Serif" font-size="13.00" fill="#2d3436">/data</text>
</g>
</g>
</svg>
