<?xml version="1.0" encoding="UTF-8" standalone="no"?>
<!DOCTYPE svg PUBLIC "-//W3C//DTD SVG 1.1//EN"
 "http://www.w3.org/Graphics/SVG/1.1/DTD/svg11.dtd">
<!-- Generated by graphviz version 14.1.1 (20251213.1925)
 -->
<!-- Title: GKE TPU v6e Fine&#45;Tuning Architecture (southamerica&#45;east1) Pages: 1 -->
<svg width="14935pt" height="8325pt"
 viewBox="0.00 0.00 14935.00 8325.00" xmlns="http://www.w3.org/2000/svg" xmlns:xlink="http://www.w3.org/1999/xlink">
<g id="graph0" class="graph" transform="scale(8.33333 8.33333) rotate(0) translate(21.6 977.35)">
<title>GKE TPU v6e Fine&#45;Tuning Architecture (southamerica&#45;east1)</title>
<polygon fill="white" stroke="none" points="-21.6,21.6 -21.6,-977.35 1770.55,-977.35 1770.55,21.6 -21.6,21.6"/>
<text xml:space="preserve" text-anchor="middle" x="874.48" y="-7.55" font-family="Arial" font-size="16.00" fill="#2d3436">GKE TPU v6e Fine&#45;Tuning Architecture (southamerica&#45;east1)</text>
<g id="clust1" class="cluster">
<title>cluster_Google Cloud Platform &#45; Regiao: southamerica&#45;west1</title>
<path fill="#e5f5fd" stroke="#aeb6be" d="M298.8,-34.75C298.8,-34.75 1728.95,-34.75 1728.95,-34.75 1734.95,-34.75 1740.95,-40.75 1740.95,-46.75 1740.95,-46.75 1740.95,-935.75 1740.95,-935.75 1740.95,-941.75 1734.95,-947.75 1728.95,-947.75 1728.95,-947.75 298.8,-947.75 298.8,-947.75 292.8,-947.75 286.8,-941.75 286.8,-935.75 286.8,-935.75 286.8,-46.75 286.8,-46.75 286.8,-40.75 292.8,-34.75 298.8,-34.75"/>
<text xml:space="preserve" text-anchor="middle" x="435.43" y="-932.35" font-family="Sans-Serif" font-size="12.00" fill="#2d3436">Google Cloud Platform &#45; Regiao: southamerica&#45;west1</text>
</g>
<g id="clust2" class="cluster">
<title>cluster_VPC Network (VPC Privada)</title>
<path fill="#ebf3e7" stroke="#aeb6be" d="M610.6,-42.75C610.6,-42.75 1720.95,-42.75 1720.95,-42.75 1726.95,-42.75 1732.95,-48.75 1732.95,-54.75 1732.95,-54.75 1732.95,-580.75 1732.95,-580.75 1732.95,-586.75 1726.95,-592.75 1720.95,-592.75 1720.95,-592.75 610.6,-592.75 610.6,-592.75 604.6,-592.75 598.6,-586.75 598.6,-580.75 598.6,-580.75 598.6,-54.75 598.6,-54.75 598.6,-48.75 604.6,-42.75 610.6,-42.75"/>
<text xml:space="preserve" text-anchor="middle" x="680.1" y="-577.35" font-family="Sans-Serif" font-size="12.00" fill="#2d3436">VPC Network (VPC Privada)</text>
</g>
<g id="clust3" class="cluster">
<title>cluster_Subnet: southamerica&#45;east1&#45;a</title>
<path fill="#ece8f6" stroke="#aeb6be" d="M618.6,-50.75C618.6,-50.75 1712.95,-50.75 1712.95,-50.75 1718.95,-50.75 1724.95,-56.75 1724.95,-62.75 1724.95,-62.75 1724.95,-548.75 1724.95,-548.75 1724.95,-554.75 1718.95,-560.75 1712.95,-560.75 1712.95,-560.75 618.6,-560.75 618.6,-560.75 612.6,-560.75 606.6,-554.75 606.6,-548.75 606.6,-548.75 606.6,-62.75 606.6,-62.75 606.6,-56.75 612.6,-50.75 618.6,-50.75"/>
<text xml:space="preserve" text-anchor="middle" x="693.35" y="-545.35" font-family="Sans-Serif" font-size="12.00" fill="#2d3436">Subnet: southamerica&#45;east1&#45;a</text>
</g>
<g id="clust4" class="cluster">
<title>cluster_GKE Cluster (Autopilot / Standard)</title>
<path fill="#fdf7e3" stroke="#aeb6be" d="M626.6,-58.75C626.6,-58.75 1704.95,-58.75 1704.95,-58.75 1710.95,-58.75 1716.95,-64.75 1716.95,-70.75 1716.95,-70.75 1716.95,-516.75 1716.95,-516.75 1716.95,-522.75 1710.95,-528.75 1704.95,-528.75 1704.95,-528.75 626.6,-528.75 626.6,-528.75 620.6,-528.75 614.6,-522.75 614.6,-516.75 614.6,-516.75 614.6,-70.75 614.6,-70.75 614.6,-64.75 620.6,-58.75 626.6,-58.75"/>
<text xml:space="preserve" text-anchor="middle" x="713.73" y="-513.35" font-family="Sans-Serif" font-size="12.00" fill="#2d3436">GKE Cluster (Autopilot / Standard)</text>
</g>
<g id="clust5" class="cluster">
<title>cluster_Kubernetes Pods Namespace</title>
<path fill="#e5f5fd" stroke="#aeb6be" d="M977.5,-66.75C977.5,-66.75 1389.55,-66.75 1389.55,-66.75 1395.55,-66.75 1401.55,-72.75 1401.55,-78.75 1401.55,-78.75 1401.55,-484.75 1401.55,-484.75 1401.55,-490.75 1395.55,-496.75 1389.55,-496.75 1389.55,-496.75 977.5,-496.75 977.5,-496.75 971.5,-496.75 965.5,-490.75 965.5,-484.75 965.5,-484.75 965.5,-78.75 965.5,-78.75 965.5,-72.75 971.5,-66.75 977.5,-66.75"/>
<text xml:space="preserve" text-anchor="middle" x="1048.88" y="-481.35" font-family="Sans-Serif" font-size="12.00" fill="#2d3436">Kubernetes Pods Namespace</text>
</g>
<g id="clust6" class="cluster">
<title>cluster_TPU Node Pool</title>
<path fill="#e5f5fd" stroke="#aeb6be" d="M1604.15,-176.75C1604.15,-176.75 1696.95,-176.75 1696.95,-176.75 1702.95,-176.75 1708.95,-182.75 1708.95,-188.75 1708.95,-188.75 1708.95,-370.75 1708.95,-370.75 1708.95,-376.75 1702.95,-382.75 1696.95,-382.75 1696.95,-382.75 1604.15,-382.75 1604.15,-382.75 1598.15,-382.75 1592.15,-376.75 1592.15,-370.75 1592.15,-370.75 1592.15,-188.75 1592.15,-188.75 1592.15,-182.75 1598.15,-176.75 1604.15,-176.75"/>
<text xml:space="preserve" text-anchor="middle" x="1639.9" y="-367.35" font-family="Sans-Serif" font-size="12.00" fill="#2d3436">TPU Node Pool</text>
</g>
<!-- 97f81949755b4c858757f1618cfd12b7 -->
<g id="node1" class="node">
<title>97f81949755b4c858757f1618cfd12b7</title>
<image xlink:href="C:\Users\A450373\OneDrive - ATOS\source-code\pessoal\architect-kit\backend\venv\Lib\site-packages\resources/onprem/client\user.png" width="100.8px" height="100.8px" preserveAspectRatio="xMinYMin meet" x="8.52651e-14" y="-208.15"/>
<text xml:space="preserve" text-anchor="middle" x="50.4" y="-95.6" font-family="Sans-Serif" font-size="13.00" fill="#2d3436">Arquiteto / Dev</text>
<text xml:space="preserve" text-anchor="middle" x="50.4" y="-79.1" font-family="Sans-Serif" font-size="13.00" fill="#2d3436">(Estacao Local)</text>
</g>
<!-- 1eeb84064cb24422ba42517eaefbbda9 -->
<g id="node2" class="node">
<title>1eeb84064cb24422ba42517eaefbbda9</title>
<image xlink:href="C:\Users\A450373\OneDrive - ATOS\source-code\pessoal\architect-kit\backend\venv\Lib\site-packages\resources/gcp/security\iam.png" width="100.8px" height="100.8px" preserveAspectRatio="xMinYMin meet" x="294.8" y="-208.15"/>
<text xml:space="preserve" text-anchor="middle" x="345.2" y="-95.6" font-family="Sans-Serif" font-size="13.00" fill="#2d3436">Identity&#45;Aware Proxy</text>
<text xml:space="preserve" text-anchor="middle" x="345.2" y="-79.1" font-family="Sans-Serif" font-size="13.00" fill="#2d3436">(IAP&#45;secured Tunnel)</text>
</g>
<!-- 97f81949755b4c858757f1618cfd12b7&#45;&gt;1eeb84064cb24422ba42517eaefbbda9 -->
<g id="edge1" class="edge">
<title>97f81949755b4c858757f1618cfd12b7&#45;&gt;1eeb84064cb24422ba42517eaefbbda9</title>
<path fill="none" stroke="red" stroke-dasharray="5,2" d="M100.74,-157.75C100.74,-157.75 283.55,-157.75 283.55,-157.75"/>
<polygon fill="red" stroke="red" points="283.55,-161.25 293.55,-157.75 283.55,-154.25 283.55,-161.25"/>
<text xml:space="preserve" text-anchor="middle" x="197.8" y="-178.4" font-family="Sans-Serif" font-size="13.00" fill="#2d3436">Tunnel TCP via IAP</text>
<text xml:space="preserve" text-anchor="middle" x="197.8" y="-161.9" font-family="Sans-Serif" font-size="13.00" fill="#2d3436">(Porta 22)</text>
</g>
<!-- 0c91b07b61514bdcbf05faf6db0c4044 -->
<g id="node5" class="node">
<title>0c91b07b61514bdcbf05faf6db0c4044</title>
<image xlink:href="C:\Users\A450373\OneDrive - ATOS\source-code\pessoal\architect-kit\backend\venv\Lib\site-packages\resources/gcp/compute\kubernetes-engine.png" width="100.8px" height="100.8px" preserveAspectRatio="xMinYMin meet" x="622.6" y="-208.15"/>
<text xml:space="preserve" text-anchor="middle" x="673" y="-93.5" font-family="Sans-Serif" font-size="13.00" fill="#2d3436">GKE Control Plane</text>
</g>
<!-- 1eeb84064cb24422ba42517eaefbbda9&#45;&gt;0c91b07b61514bdcbf05faf6db0c4044 -->
<g id="edge2" class="edge">
<title>1eeb84064cb24422ba42517eaefbbda9&#45;&gt;0c91b07b61514bdcbf05faf6db0c4044</title>
<path fill="none" stroke="blue" d="M395.34,-157.75C395.34,-157.75 611.35,-157.75 611.35,-157.75"/>
<polygon fill="blue" stroke="blue" points="611.35,-161.25 621.35,-157.75 611.35,-154.25 611.35,-161.25"/>
<text xml:space="preserve" text-anchor="middle" x="509.1" y="-178.4" font-family="Sans-Serif" font-size="13.00" fill="#2d3436">kubectl port&#45;forward</text>
<text xml:space="preserve" text-anchor="middle" x="509.1" y="-161.9" font-family="Sans-Serif" font-size="13.00" fill="#2d3436">(localhost:8888 &#45;&gt; 8888)</text>
</g>
<!-- 253a2b14d88747bbaec6ddb2e64ef6ae -->
<g id="node3" class="node">
<title>253a2b14d88747bbaec6ddb2e64ef6ae</title>
<image xlink:href="C:\Users\A450373\OneDrive - ATOS\source-code\pessoal\architect-kit\backend\venv\Lib\site-packages\resources/gcp/devtools\container-registry.png" width="100.8px" height="100.8px" preserveAspectRatio="xMinYMin meet" x="973.5" y="-734.15"/>
<text xml:space="preserve" text-anchor="middle" x="1023.9" y="-621.6" font-family="Sans-Serif" font-size="13.00" fill="#2d3436">Artifact Registry</text>
<text xml:space="preserve" text-anchor="middle" x="1023.9" y="-605.1" font-family="Sans-Serif" font-size="13.00" fill="#2d3436">(SouthAmerica Docker Repo)</text>
</g>
<!-- c2d1a3a90b1141baa62c425d5dc348b7 -->
<g id="node7" class="node">
<title>c2d1a3a90b1141baa62c425d5dc348b7</title>
<image xlink:href="C:\Users\A450373\OneDrive - ATOS\source-code\pessoal\architect-kit\backend\venv\Lib\site-packages\resources/k8s/compute\pod.png" width="100.8px" height="100.8px" preserveAspectRatio="xMinYMin meet" x="1292.75" y="-432.15"/>
<text xml:space="preserve" text-anchor="middle" x="1343.15" y="-319.6" font-family="Sans-Serif" font-size="13.00" fill="#2d3436">Pod: Dev Environment</text>
<text xml:space="preserve" text-anchor="middle" x="1343.15" y="-303.1" font-family="Sans-Serif" font-size="13.00" fill="#2d3436">(Jupyter + VS Code)</text>
</g>
<!-- 253a2b14d88747bbaec6ddb2e64ef6ae&#45;&gt;c2d1a3a90b1141baa62c425d5dc348b7 -->
<g id="edge5" class="edge">
<title>253a2b14d88747bbaec6ddb2e64ef6ae&#45;&gt;c2d1a3a90b1141baa62c425d5dc348b7</title>
<path fill="none" stroke="darkgreen" stroke-dasharray="5,2" d="M1074.12,-683.75C1160.01,-683.75 1325.95,-683.75 1325.95,-683.75 1325.95,-683.75 1325.95,-475.79 1325.95,-475.79"/>
<polygon fill="darkgreen" stroke="darkgreen" points="1329.45,-475.79 1325.95,-465.79 1322.45,-475.79 1329.45,-475.79"/>
<text xml:space="preserve" text-anchor="middle" x="1183.15" y="-553.4" font-family="Sans-Serif" font-size="13.00" fill="#2d3436">K8s Image Pull</text>
<text xml:space="preserve" text-anchor="middle" x="1183.15" y="-536.9" font-family="Sans-Serif" font-size="13.00" fill="#2d3436">(Always)</text>
</g>
<!-- 928a65a3e2914201acdddf15610ef608 -->
<g id="node4" class="node">
<title>928a65a3e2914201acdddf15610ef608</title>
<image xlink:href="C:\Users\A450373\OneDrive - ATOS\source-code\pessoal\architect-kit\backend\venv\Lib\site-packages\resources/gcp/storage\storage.png" width="100.8px" height="100.8px" preserveAspectRatio="xMinYMin meet" x="622.6" y="-809.15"/>
<text xml:space="preserve" text-anchor="middle" x="673" y="-696.6" font-family="Sans-Serif" font-size="13.00" fill="#2d3436">Cloud Storage Bucket</text>
<text xml:space="preserve" text-anchor="middle" x="673" y="-680.1" font-family="Sans-Serif" font-size="13.00" fill="#2d3436">(Gemma weights &amp; datasets)</text>
</g>
<!-- 928a65a3e2914201acdddf15610ef608&#45;&gt;c2d1a3a90b1141baa62c425d5dc348b7 -->
<g id="edge6" class="edge">
<title>928a65a3e2914201acdddf15610ef608&#45;&gt;c2d1a3a90b1141baa62c425d5dc348b7</title>
<path fill="none" stroke="darkorange" d="M723.23,-804.05C881.6,-804.05 1359.95,-804.05 1359.95,-804.05 1359.95,-804.05 1359.95,-475.94 1359.95,-475.94"/>
<polygon fill="darkorange" stroke="darkorange" points="1363.45,-475.94 1359.95,-465.94 1356.45,-475.94 1363.45,-475.94"/>
<text xml:space="preserve" text-anchor="middle" x="1023.9" y="-903.4" font-family="Sans-Serif" font-size="13.00" fill="#2d3436">GCS FUSE CSI Driver</text>
<text xml:space="preserve" text-anchor="middle" x="1023.9" y="-886.9" font-family="Sans-Serif" font-size="13.00" fill="#2d3436">gcsfuse.csi.storage.gke.io</text>
</g>
<!-- cbe490a8846941a98280a1ef2fc65bcd -->
<g id="node8" class="node">
<title>cbe490a8846941a98280a1ef2fc65bcd</title>
<image xlink:href="C:\Users\A450373\OneDrive - ATOS\source-code\pessoal\architect-kit\backend\venv\Lib\site-packages\resources/k8s/compute\job.png" width="100.8px" height="100.8px" preserveAspectRatio="xMinYMin meet" x="973.5" y="-432.15"/>
<text xml:space="preserve" text-anchor="middle" x="1023.9" y="-319.6" font-family="Sans-Serif" font-size="13.00" fill="#2d3436">Job: Fine&#45;Tuning</text>
<text xml:space="preserve" text-anchor="middle" x="1023.9" y="-303.1" font-family="Sans-Serif" font-size="13.00" fill="#2d3436">(Gemma Gemma3LLMTrain)</text>
</g>
<!-- 928a65a3e2914201acdddf15610ef608&#45;&gt;cbe490a8846941a98280a1ef2fc65bcd -->
<g id="edge7" class="edge">
<title>928a65a3e2914201acdddf15610ef608&#45;&gt;cbe490a8846941a98280a1ef2fc65bcd</title>
<path fill="none" stroke="darkorange" d="M672.95,-676.02C672.95,-565.04 672.95,-381.75 672.95,-381.75 672.95,-381.75 962.1,-381.75 962.1,-381.75"/>
<polygon fill="darkorange" stroke="darkorange" points="962.1,-385.25 972.1,-381.75 962.1,-378.25 962.1,-385.25"/>
<text xml:space="preserve" text-anchor="middle" x="836.9" y="-590.4" font-family="Sans-Serif" font-size="13.00" fill="#2d3436">Mount Dataset &amp; Weight</text>
<text xml:space="preserve" text-anchor="middle" x="836.9" y="-573.9" font-family="Sans-Serif" font-size="13.00" fill="#2d3436">Path: /data</text>
</g>
<!-- 90386763143b49a6936482a4a0519160 -->
<g id="node6" class="node">
<title>90386763143b49a6936482a4a0519160</title>
<image xlink:href="C:\Users\A450373\OneDrive - ATOS\source-code\pessoal\architect-kit\backend\venv\Lib\site-packages\resources/k8s/network\svc.png" width="100.8px" height="100.8px" preserveAspectRatio="xMinYMin meet" x="973.5" y="-208.15"/>
<text xml:space="preserve" text-anchor="middle" x="1023.9" y="-95.6" font-family="Sans-Serif" font-size="13.00" fill="#2d3436">K8s Service</text>
<text xml:space="preserve" text-anchor="middle" x="1023.9" y="-79.1" font-family="Sans-Serif" font-size="13.00" fill="#2d3436">(Porta 8888 &amp; 8080)</text>
</g>
<!-- 0c91b07b61514bdcbf05faf6db0c4044&#45;&gt;90386763143b49a6936482a4a0519160 -->
<g id="edge3" class="edge">
<title>0c91b07b61514bdcbf05faf6db0c4044&#45;&gt;90386763143b49a6936482a4a0519160</title>
<path fill="none" stroke="#7b8894" d="M723.28,-157.75C723.28,-157.75 962.2,-157.75 962.2,-157.75"/>
<polygon fill="#7b8894" stroke="#7b8894" points="962.2,-161.25 972.2,-157.75 962.2,-154.25 962.2,-161.25"/>
</g>
<!-- 90386763143b49a6936482a4a0519160&#45;&gt;c2d1a3a90b1141baa62c425d5dc348b7 -->
<g id="edge4" class="edge">
<title>90386763143b49a6936482a4a0519160&#45;&gt;c2d1a3a90b1141baa62c425d5dc348b7</title>
<path fill="none" stroke="#7b8894" d="M1074.1,-212.75C1163.95,-212.75 1342.95,-212.75 1342.95,-212.75 1342.95,-212.75 1342.95,-287.72 1342.95,-287.72"/>
<polygon fill="#7b8894" stroke="#7b8894" points="1339.45,-287.72 1342.95,-297.72 1346.45,-287.72 1339.45,-287.72"/>
</g>
<!-- f485a2b1b1864f4581781615a618a320 -->
<g id="node9" class="node">
<title>f485a2b1b1864f4581781615a618a320</title>
<image xlink:href="C:\Users\A450373\OneDrive - ATOS\source-code\pessoal\architect-kit\backend\venv\Lib\site-packages\resources/gcp/ml\tpu.png" width="100.8px" height="100.8px" preserveAspectRatio="xMinYMin meet" x="1600.15" y="-318.15"/>
<text xml:space="preserve" text-anchor="middle" x="1650.55" y="-205.6" font-family="Sans-Serif" font-size="13.00" fill="#2d3436">Cloud TPU v6e Slice</text>
<text xml:space="preserve" text-anchor="middle" x="1650.55" y="-189.1" font-family="Sans-Serif" font-size="13.00" fill="#2d3436">(Topology: 2x4/Trillium)</text>
</g>
<!-- c2d1a3a90b1141baa62c425d5dc348b7&#45;&gt;f485a2b1b1864f4581781615a618a320 -->
<g id="edge8" class="edge">
<title>c2d1a3a90b1141baa62c425d5dc348b7&#45;&gt;f485a2b1b1864f4581781615a618a320</title>
<path fill="none" stroke="purple" d="M1393.22,-324.75C1393.22,-324.75 1588.73,-324.75 1588.73,-324.75"/>
<polygon fill="purple" stroke="purple" points="1588.73,-328.25 1598.73,-324.75 1588.73,-321.25 1588.73,-328.25"/>
<text xml:space="preserve" text-anchor="middle" x="1508.78" y="-347.4" font-family="Sans-Serif" font-size="13.00" fill="#2d3436">Privileged Mode</text>
<text xml:space="preserve" text-anchor="middle" x="1508.78" y="-330.9" font-family="Sans-Serif" font-size="13.00" fill="#2d3436">Device Allocation</text>
</g>
<!-- cbe490a8846941a98280a1ef2fc65bcd&#45;&gt;f485a2b1b1864f4581781615a618a320 -->
<g id="edge9" class="edge">
<title>cbe490a8846941a98280a1ef2fc65bcd&#45;&gt;f485a2b1b1864f4581781615a618a320</title>
<path fill="none" stroke="purple" d="M1023.95,-299.18C1023.95,-282.39 1023.95,-269.75 1023.95,-269.75 1023.95,-269.75 1588.82,-269.75 1588.82,-269.75"/>
<polygon fill="purple" stroke="purple" points="1588.82,-273.25 1598.82,-269.75 1588.82,-266.25 1588.82,-273.25"/>
<text xml:space="preserve" text-anchor="middle" x="1343.15" y="-228.4" font-family="Sans-Serif" font-size="13.00" fill="#2d3436">Target Topology</text>
<text xml:space="preserve" text-anchor="middle" x="1343.15" y="-211.9" font-family="Sans-Serif" font-size="13.00" fill="#2d3436">Limits: google.com/tpu: 4</text>
</g>
</g>
</svg>
