<?xml version="1.0" encoding="UTF-8" standalone="no"?>
<!DOCTYPE svg PUBLIC "-//W3C//DTD SVG 1.1//EN"
 "http://www.w3.org/Graphics/SVG/1.1/DTD/svg11.dtd">
<!-- Generated by graphviz version 14.1.1 (20251213.1925)
 -->
<!-- Title: Caixa GKE Private Jupyter Lab Architecture (southamerica&#45;east1&#45;c) Pages: 1 -->
<svg width="13917pt" height="6750pt"
 viewBox="0.00 0.00 13917.00 6750.00" xmlns="http://www.w3.org/2000/svg" xmlns:xlink="http://www.w3.org/1999/xlink">
<g id="graph0" class="graph" transform="scale(8.33333 8.33333) rotate(0) translate(21.6 788.35)">
<title>Caixa GKE Private Jupyter Lab Architecture (southamerica&#45;east1&#45;c)</title>
<polygon fill="white" stroke="none" points="-21.6,21.6 -21.6,-788.35 1648.4,-788.35 1648.4,21.6 -21.6,21.6"/>
<text xml:space="preserve" text-anchor="middle" x="813.4" y="-7.55" font-family="Arial" font-size="16.00" fill="#2d3436">Caixa GKE Private Jupyter Lab Architecture (southamerica&#45;east1&#45;c)</text>
<g id="clust1" class="cluster">
<title>cluster_Google Cloud Project (GCP)</title>
<path fill="#e5f5fd" stroke="#aeb6be" d="M281.3,-34.75C281.3,-34.75 1606.8,-34.75 1606.8,-34.75 1612.8,-34.75 1618.8,-40.75 1618.8,-46.75 1618.8,-46.75 1618.8,-746.75 1618.8,-746.75 1618.8,-752.75 1612.8,-758.75 1606.8,-758.75 1606.8,-758.75 281.3,-758.75 281.3,-758.75 275.3,-758.75 269.3,-752.75 269.3,-746.75 269.3,-746.75 269.3,-46.75 269.3,-46.75 269.3,-40.75 275.3,-34.75 281.3,-34.75"/>
<text xml:space="preserve" text-anchor="middle" x="351.18" y="-743.35" font-family="Sans-Serif" font-size="12.00" fill="#2d3436">Google Cloud Project (GCP)</text>
</g>
<g id="clust2" class="cluster">
<title>cluster_VPC Network (Rede Privada)</title>
<path fill="#ebf3e7" stroke="#aeb6be" d="M289.3,-42.75C289.3,-42.75 1598.8,-42.75 1598.8,-42.75 1604.8,-42.75 1610.8,-48.75 1610.8,-54.75 1610.8,-54.75 1610.8,-316.75 1610.8,-316.75 1610.8,-322.75 1604.8,-328.75 1598.8,-328.75 1598.8,-328.75 289.3,-328.75 289.3,-328.75 283.3,-328.75 277.3,-322.75 277.3,-316.75 277.3,-316.75 277.3,-54.75 277.3,-54.75 277.3,-48.75 283.3,-42.75 289.3,-42.75"/>
<text xml:space="preserve" text-anchor="middle" x="361.05" y="-313.35" font-family="Sans-Serif" font-size="12.00" fill="#2d3436">VPC Network (Rede Privada)</text>
</g>
<g id="clust3" class="cluster">
<title>cluster_Regional Ingress Security Layer</title>
<path fill="#ece8f6" stroke="#aeb6be" d="M297.3,-58.75C297.3,-58.75 675.9,-58.75 675.9,-58.75 681.9,-58.75 687.9,-64.75 687.9,-70.75 687.9,-70.75 687.9,-252.75 687.9,-252.75 687.9,-258.75 681.9,-264.75 675.9,-264.75 675.9,-264.75 297.3,-264.75 297.3,-264.75 291.3,-264.75 285.3,-258.75 285.3,-252.75 285.3,-252.75 285.3,-70.75 285.3,-70.75 285.3,-64.75 291.3,-58.75 297.3,-58.75"/>
<text xml:space="preserve" text-anchor="middle" x="376.55" y="-249.35" font-family="Sans-Serif" font-size="12.00" fill="#2d3436">Regional Ingress Security Layer</text>
</g>
<g id="clust4" class="cluster">
<title>cluster_Subnet: southamerica&#45;east1 (Sao Paulo)</title>
<path fill="#ece8f6" stroke="#aeb6be" d="M923.15,-50.75C923.15,-50.75 1590.8,-50.75 1590.8,-50.75 1596.8,-50.75 1602.8,-56.75 1602.8,-62.75 1602.8,-62.75 1602.8,-284.75 1602.8,-284.75 1602.8,-290.75 1596.8,-296.75 1590.8,-296.75 1590.8,-296.75 923.15,-296.75 923.15,-296.75 917.15,-296.75 911.15,-290.75 911.15,-284.75 911.15,-284.75 911.15,-62.75 911.15,-62.75 911.15,-56.75 917.15,-50.75 923.15,-50.75"/>
<text xml:space="preserve" text-anchor="middle" x="1025.28" y="-281.35" font-family="Sans-Serif" font-size="12.00" fill="#2d3436">Subnet: southamerica&#45;east1 (Sao Paulo)</text>
</g>
<g id="clust5" class="cluster">
<title>cluster_GKE Private Cluster (southamerica&#45;east1&#45;c)</title>
<path fill="#fdf7e3" stroke="#aeb6be" d="M931.15,-58.75C931.15,-58.75 1582.8,-58.75 1582.8,-58.75 1588.8,-58.75 1594.8,-64.75 1594.8,-70.75 1594.8,-70.75 1594.8,-252.75 1594.8,-252.75 1594.8,-258.75 1588.8,-264.75 1582.8,-264.75 1582.8,-264.75 931.15,-264.75 931.15,-264.75 925.15,-264.75 919.15,-258.75 919.15,-252.75 919.15,-252.75 919.15,-70.75 919.15,-70.75 919.15,-64.75 925.15,-58.75 931.15,-58.75"/>
<text xml:space="preserve" text-anchor="middle" x="1040.4" y="-249.35" font-family="Sans-Serif" font-size="12.00" fill="#2d3436">GKE Private Cluster (southamerica&#45;east1&#45;c)</text>
</g>
<!-- 9bed08a4bc0b44368521ed992c007e9f -->
<g id="node1" class="node">
<title>9bed08a4bc0b44368521ed992c007e9f</title>
<image xlink:href="C:\Users\A450373\OneDrive - ATOS\source-code\pessoal\architect-kit\backend\venv\Lib\site-packages\resources/onprem/client\users.png" width="100.8px" height="100.8px" preserveAspectRatio="xMinYMin meet" x="8.52651e-14" y="-200.15"/>
<text xml:space="preserve" text-anchor="middle" x="50.4" y="-87.6" font-family="Sans-Serif" font-size="13.00" fill="#2d3436">Usuarios Caixa</text>
<text xml:space="preserve" text-anchor="middle" x="50.4" y="-71.1" font-family="Sans-Serif" font-size="13.00" fill="#2d3436">(Perimetro Interno)</text>
</g>
<!-- a29ba0bc9c284540ad569128349975e3 -->
<g id="node2" class="node">
<title>a29ba0bc9c284540ad569128349975e3</title>
<image xlink:href="C:\Users\A450373\OneDrive - ATOS\source-code\pessoal\architect-kit\backend\venv\Lib\site-packages\resources/gcp/network\load-balancing.png" width="100.8px" height="100.8px" preserveAspectRatio="xMinYMin meet" x="293.3" y="-200.15"/>
<text xml:space="preserve" text-anchor="middle" x="343.7" y="-87.6" font-family="Sans-Serif" font-size="13.00" fill="#2d3436">Internal Load Balancer</text>
<text xml:space="preserve" text-anchor="middle" x="343.7" y="-71.1" font-family="Sans-Serif" font-size="13.00" fill="#2d3436">(http://10.8.8.8)</text>
</g>
<!-- 9bed08a4bc0b44368521ed992c007e9f&#45;&gt;a29ba0bc9c284540ad569128349975e3 -->
<g id="edge1" class="edge">
<title>9bed08a4bc0b44368521ed992c007e9f&#45;&gt;a29ba0bc9c284540ad569128349975e3</title>
<path fill="none" stroke="darkgreen" d="M100.49,-149.75C100.49,-149.75 281.82,-149.75 281.82,-149.75"/>
<polygon fill="darkgreen" stroke="darkgreen" points="281.82,-153.25 291.82,-149.75 281.82,-146.25 281.82,-153.25"/>
<text xml:space="preserve" text-anchor="middle" x="197.05" y="-170.4" font-family="Sans-Serif" font-size="13.00" fill="#2d3436">Acesso Web Direto</text>
<text xml:space="preserve" text-anchor="middle" x="197.05" y="-153.9" font-family="Sans-Serif" font-size="13.00" fill="#2d3436">http://10.8.8.8</text>
</g>
<!-- 10fef8d15cdb4c5caf6be510c7d78e26 -->
<g id="node3" class="node">
<title>10fef8d15cdb4c5caf6be510c7d78e26</title>
<image xlink:href="C:\Users\A450373\OneDrive - ATOS\source-code\pessoal\architect-kit\backend\venv\Lib\site-packages\resources/gcp/security\iap.png" width="100.8px" height="100.8px" preserveAspectRatio="xMinYMin meet" x="579.1" y="-200.15"/>
<text xml:space="preserve" text-anchor="middle" x="629.5" y="-87.6" font-family="Sans-Serif" font-size="13.00" fill="#2d3436">Identity&#45;Aware Proxy</text>
<text xml:space="preserve" text-anchor="middle" x="629.5" y="-71.1" font-family="Sans-Serif" font-size="13.00" fill="#2d3436">(IAP para ILB)</text>
</g>
<!-- a29ba0bc9c284540ad569128349975e3&#45;&gt;10fef8d15cdb4c5caf6be510c7d78e26 -->
<g id="edge2" class="edge">
<title>a29ba0bc9c284540ad569128349975e3&#45;&gt;10fef8d15cdb4c5caf6be510c7d78e26</title>
<path fill="none" stroke="red" stroke-dasharray="5,2" d="M393.81,-149.75C393.81,-149.75 567.93,-149.75 567.93,-149.75"/>
<polygon fill="red" stroke="red" points="567.93,-153.25 577.93,-149.75 567.93,-146.25 567.93,-153.25"/>
<text xml:space="preserve" text-anchor="middle" x="486.6" y="-170.4" font-family="Sans-Serif" font-size="13.00" fill="#2d3436">Intercepta para</text>
<text xml:space="preserve" text-anchor="middle" x="486.6" y="-153.9" font-family="Sans-Serif" font-size="13.00" fill="#2d3436">Autenticacao IAM</text>
</g>
<!-- b29a2f2ce80f456b910b757d859d505b -->
<g id="node4" class="node">
<title>b29a2f2ce80f456b910b757d859d505b</title>
<image xlink:href="C:\Users\A450373\OneDrive - ATOS\source-code\pessoal\architect-kit\backend\venv\Lib\site-packages\resources/k8s/network\svc.png" width="100.8px" height="100.8px" preserveAspectRatio="xMinYMin meet" x="927.15" y="-200.15"/>
<text xml:space="preserve" text-anchor="middle" x="977.55" y="-87.6" font-family="Sans-Serif" font-size="13.00" fill="#2d3436">K8s Service</text>
<text xml:space="preserve" text-anchor="middle" x="977.55" y="-71.1" font-family="Sans-Serif" font-size="13.00" fill="#2d3436">(Jupyter HTTP:8888)</text>
</g>
<!-- 10fef8d15cdb4c5caf6be510c7d78e26&#45;&gt;b29a2f2ce80f456b910b757d859d505b -->
<g id="edge3" class="edge">
<title>10fef8d15cdb4c5caf6be510c7d78e26&#45;&gt;b29a2f2ce80f456b910b757d859d505b</title>
<path fill="none" stroke="blue" d="M679.74,-149.75C679.74,-149.75 915.81,-149.75 915.81,-149.75"/>
<polygon fill="blue" stroke="blue" points="915.81,-153.25 925.81,-149.75 915.81,-146.25 915.81,-153.25"/>
<text xml:space="preserve" text-anchor="middle" x="803.53" y="-170.4" font-family="Sans-Serif" font-size="13.00" fill="#2d3436">Redireciona Tráfego</text>
<text xml:space="preserve" text-anchor="middle" x="803.53" y="-153.9" font-family="Sans-Serif" font-size="13.00" fill="#2d3436">Autorizado (IAP Role Check)</text>
</g>
<!-- 0bbc21e5db3b44a9933b028697e21d87 -->
<g id="node5" class="node">
<title>0bbc21e5db3b44a9933b028697e21d87</title>
<image xlink:href="C:\Users\A450373\OneDrive - ATOS\source-code\pessoal\architect-kit\backend\venv\Lib\site-packages\resources/k8s/compute\deploy.png" width="100.8px" height="100.8px" preserveAspectRatio="xMinYMin meet" x="1218.95" y="-200.15"/>
<text xml:space="preserve" text-anchor="middle" x="1269.35" y="-87.6" font-family="Sans-Serif" font-size="13.00" fill="#2d3436">Jupyter Server</text>
<text xml:space="preserve" text-anchor="middle" x="1269.35" y="-71.1" font-family="Sans-Serif" font-size="13.00" fill="#2d3436">Pod (Dev Environment)</text>
</g>
<!-- b29a2f2ce80f456b910b757d859d505b&#45;&gt;0bbc21e5db3b44a9933b028697e21d87 -->
<g id="edge4" class="edge">
<title>b29a2f2ce80f456b910b757d859d505b&#45;&gt;0bbc21e5db3b44a9933b028697e21d87</title>
<path fill="none" stroke="#7b8894" d="M1027.71,-149.75C1027.71,-149.75 1207.84,-149.75 1207.84,-149.75"/>
<polygon fill="#7b8894" stroke="#7b8894" points="1207.84,-153.25 1217.84,-149.75 1207.84,-146.25 1207.84,-153.25"/>
</g>
<!-- d3d6507a66174ba2ad25c8eeffea5235 -->
<g id="node8" class="node">
<title>d3d6507a66174ba2ad25c8eeffea5235</title>
<image xlink:href="C:\Users\A450373\OneDrive - ATOS\source-code\pessoal\architect-kit\backend\venv\Lib\site-packages\resources/gcp/ml\tpu.png" width="100.8px" height="100.8px" preserveAspectRatio="xMinYMin meet" x="1486" y="-200.15"/>
<text xml:space="preserve" text-anchor="middle" x="1536.4" y="-87.6" font-family="Sans-Serif" font-size="13.00" fill="#2d3436">Cloud TPU v5e/v6e</text>
<text xml:space="preserve" text-anchor="middle" x="1536.4" y="-71.1" font-family="Sans-Serif" font-size="13.00" fill="#2d3436">(Node Pool Acelerado)</text>
</g>
<!-- 0bbc21e5db3b44a9933b028697e21d87&#45;&gt;d3d6507a66174ba2ad25c8eeffea5235 -->
<g id="edge7" class="edge">
<title>0bbc21e5db3b44a9933b028697e21d87&#45;&gt;d3d6507a66174ba2ad25c8eeffea5235</title>
<path fill="none" stroke="purple" d="M1319.58,-149.75C1319.58,-149.75 1474.88,-149.75 1474.88,-149.75"/>
<polygon fill="purple" stroke="purple" points="1474.88,-153.25 1484.88,-149.75 1474.88,-146.25 1474.88,-153.25"/>
<text xml:space="preserve" text-anchor="middle" x="1402.88" y="-170.4" font-family="Sans-Serif" font-size="13.00" fill="#2d3436">&#45;&#45;privileged</text>
<text xml:space="preserve" text-anchor="middle" x="1402.88" y="-153.9" font-family="Sans-Serif" font-size="13.00" fill="#2d3436">Device Access</text>
</g>
<!-- c49198fb6e37476e8931ad47a96087f5 -->
<g id="node6" class="node">
<title>c49198fb6e37476e8931ad47a96087f5</title>
<image xlink:href="C:\Users\A450373\OneDrive - ATOS\source-code\pessoal\architect-kit\backend\venv\Lib\site-packages\resources/gcp/devtools\container-registry.png" width="100.8px" height="100.8px" preserveAspectRatio="xMinYMin meet" x="927.15" y="-470.15"/>
<text xml:space="preserve" text-anchor="middle" x="977.55" y="-357.6" font-family="Sans-Serif" font-size="13.00" fill="#2d3436">Artifact Registry</text>
<text xml:space="preserve" text-anchor="middle" x="977.55" y="-341.1" font-family="Sans-Serif" font-size="13.00" fill="#2d3436">(Custom Dev Image)</text>
</g>
<!-- c49198fb6e37476e8931ad47a96087f5&#45;&gt;0bbc21e5db3b44a9933b028697e21d87 -->
<g id="edge5" class="edge">
<title>c49198fb6e37476e8931ad47a96087f5&#45;&gt;0bbc21e5db3b44a9933b028697e21d87</title>
<path fill="none" stroke="darkgreen" stroke-dasharray="5,2" d="M1027.72,-419.75C1107.11,-419.75 1252.8,-419.75 1252.8,-419.75 1252.8,-419.75 1252.8,-243.74 1252.8,-243.74"/>
<polygon fill="darkgreen" stroke="darkgreen" points="1256.3,-243.74 1252.8,-233.74 1249.3,-243.74 1256.3,-243.74"/>
<text xml:space="preserve" text-anchor="middle" x="1123.45" y="-337.4" font-family="Sans-Serif" font-size="13.00" fill="#2d3436">K8s Image Pull</text>
<text xml:space="preserve" text-anchor="middle" x="1123.45" y="-320.9" font-family="Sans-Serif" font-size="13.00" fill="#2d3436">(Always)</text>
</g>
<!-- 7f985fe798704c9aafc44e66cd3747e8 -->
<g id="node7" class="node">
<title>7f985fe798704c9aafc44e66cd3747e8</title>
<image xlink:href="C:\Users\A450373\OneDrive - ATOS\source-code\pessoal\architect-kit\backend\venv\Lib\site-packages\resources/gcp/storage\storage.png" width="100.8px" height="100.8px" preserveAspectRatio="xMinYMin meet" x="927.15" y="-694.15"/>
<text xml:space="preserve" text-anchor="middle" x="977.55" y="-581.6" font-family="Sans-Serif" font-size="13.00" fill="#2d3436">Cloud Storage Bucket</text>
<text xml:space="preserve" text-anchor="middle" x="977.55" y="-565.1" font-family="Sans-Serif" font-size="13.00" fill="#2d3436">(Gemma Weights &amp; Datasets)</text>
</g>
<!-- 7f985fe798704c9aafc44e66cd3747e8&#45;&gt;0bbc21e5db3b44a9933b028697e21d87 -->
<g id="edge6" class="edge">
<title>7f985fe798704c9aafc44e66cd3747e8&#45;&gt;0bbc21e5db3b44a9933b028697e21d87</title>
<path fill="none" stroke="darkorange" d="M1027.76,-643.75C1115.11,-643.75 1285.8,-643.75 1285.8,-643.75 1285.8,-643.75 1285.8,-243.95 1285.8,-243.95"/>
<polygon fill="darkorange" stroke="darkorange" points="1289.3,-243.95 1285.8,-233.95 1282.3,-243.95 1289.3,-243.95"/>
<text xml:space="preserve" text-anchor="middle" x="1123.45" y="-548.4" font-family="Sans-Serif" font-size="13.00" fill="#2d3436">gcsfuse CSI Driver</text>
<text xml:space="preserve" text-anchor="middle" x="1123.45" y="-531.9" font-family="Sans-Serif" font-size="13.00" fill="#2d3436">Mount /data</text>
</g>
</g>
</svg>
