<svg xmlns="http://www.w3.org/2000/svg" xmlns:xlink="http://www.w3.org/1999/xlink" contentStyleType="text/css" data-diagram-type="SEQUENCE" height="765px" preserveAspectRatio="none" style="width:2333px;height:765px;background:#FFFFFF;" version="1.1" viewBox="0 0 2333 765" width="2333px" zoomAndPan="magnify"><?plantuml 1.2026.3beta6?><defs/><g><g class="title" data-source-line="6"><text fill="#000000" font-family="sans-serif" font-size="14" font-weight="700" lengthAdjust="spacing" textLength="403.6484" x="961.4968" y="27.9951">Fluxo de Transacao (Executivo) - Plataforma SIPML</text></g><rect fill="#ADD8E6" height="715.5781" style="stroke:#181818;stroke-width:0.5;" width="828.105" x="347.0352" y="43.2969"/><text fill="#000000" font-family="sans-serif" font-size="13" font-weight="700" lengthAdjust="spacing" textLength="393.6499" x="564.2627" y="55.3638">Hub Central de Orquestracao (prj-sipml-gateway-prd)</text><rect fill="#90EE90" height="715.5781" style="stroke:#181818;stroke-width:0.5;" width="537.0728" x="1197.1401" y="43.2969"/><text fill="#000000" font-family="sans-serif" font-size="13" font-weight="700" lengthAdjust="spacing" textLength="310.6289" x="1310.3621" y="55.3638">Spoke de Inferencia (prj-spoke-inferencia)</text><g><title>API Gateway</title><rect fill="#FFFFFF" height="487.125" style="stroke:#181818;stroke-width:1;" width="10" x="412.2568" y="172.1563"/></g><g><title>Decision Broker</title><rect fill="#FFFFFF" height="254.0625" style="stroke:#181818;stroke-width:1;" width="10" x="700.6772" y="201.2891"/></g><g><title>Cloud Spanner</title><rect fill="#FFFFFF" height="30" style="stroke:#181818;stroke-width:1;" width="10" x="1087.2134" y="396.2188"/></g><g><title>Vertex AI</title><rect fill="#FFFFFF" height="87.3984" style="stroke:#181818;stroke-width:1;" width="10" x="1302.9331" y="484.4844"/></g><g><title>Pub.Sub</title><rect fill="#FFFFFF" height="29.1328" style="stroke:#181818;stroke-width:1;" width="10" x="1783.9956" y="601.0156"/></g><g class="participant-lifeline" data-entity-uid="part1" data-qualified-name="CH" data-source-line="8" id="part1-lifeline"><g><title>Canal . Originacao</title><rect fill="#000000" fill-opacity="0.00000" height="536.2578" width="8" x="68.5244" y="141.0234"/><line style="stroke:#181818;stroke-width:0.5;stroke-dasharray:5,5;" x1="72" x2="72" y1="141.0234" y2="677.2813"/></g></g><g class="participant-lifeline" data-entity-uid="part2" data-qualified-name="GW" data-source-line="10" id="part2-lifeline"><g><title>API Gateway</title><rect fill="#000000" fill-opacity="0.00000" height="536.2578" width="8" x="413.2568" y="141.0234"/><line style="stroke:#181818;stroke-width:0.5;stroke-dasharray:5,5;" x1="417.0352" x2="417.0352" y1="141.0234" y2="677.2813"/></g></g><g class="participant-lifeline" data-entity-uid="part3" data-qualified-name="DB" data-source-line="11" id="part3-lifeline"><g><title>Decision Broker</title><rect fill="#000000" fill-opacity="0.00000" height="536.2578" width="8" x="701.6772" y="141.0234"/><line style="stroke:#181818;stroke-width:0.5;stroke-dasharray:5,5;" x1="705.4487" x2="705.4487" y1="141.0234" y2="677.2813"/></g></g><g class="participant-lifeline" data-entity-uid="part4" data-qualified-name="SP" data-source-line="12" id="part4-lifeline"><g><title>Cloud Spanner</title><rect fill="#000000" fill-opacity="0.00000" height="536.2578" width="8" x="1088.2134" y="141.0234"/><line style="stroke:#181818;stroke-width:0.5;stroke-dasharray:5,5;" x1="1091.2866" x2="1091.2866" y1="141.0234" y2="677.2813"/></g></g><g class="participant-lifeline" data-entity-uid="part5" data-qualified-name="INF" data-source-line="16" id="part5-lifeline"><g><title>Vertex AI</title><rect fill="#000000" fill-opacity="0.00000" height="536.2578" width="8" x="1303.9331" y="141.0234"/><line style="stroke:#181818;stroke-width:0.5;stroke-dasharray:5,5;" x1="1307.1401" x2="1307.1401" y1="141.0234" y2="677.2813"/></g></g><g class="participant-lifeline" data-entity-uid="part6" data-qualified-name="FS" data-source-line="17" id="part6-lifeline"><g><title>BigQuery</title><rect fill="#000000" fill-opacity="0.00000" height="536.2578" width="8" x="1634.2944" y="141.0234"/><line style="stroke:#181818;stroke-width:0.5;stroke-dasharray:5,5;" x1="1637.376" x2="1637.376" y1="141.0234" y2="677.2813"/></g></g><g class="participant-lifeline" data-entity-uid="part7" data-qualified-name="PS" data-source-line="20" id="part7-lifeline"><g><title>Pub.Sub</title><rect fill="#000000" fill-opacity="0.00000" height="536.2578" width="8" x="1784.9956" y="141.0234"/><line style="stroke:#181818;stroke-width:0.5;stroke-dasharray:5,5;" x1="1788.2129" x2="1788.2129" y1="141.0234" y2="677.2813"/></g></g><g class="participant-lifeline" data-entity-uid="part8" data-qualified-name="HD" data-source-line="21" id="part8-lifeline"><g><title>Hubs de Dados</title><rect fill="#000000" fill-opacity="0.00000" height="536.2578" width="8" x="2243.5986" y="141.0234"/><line style="stroke:#181818;stroke-width:0.5;stroke-dasharray:5,5;" x1="2247.5552" x2="2247.5552" y1="141.0234" y2="677.2813"/></g></g><g class="participant participant-head" data-entity-uid="part1" data-qualified-name="CH" data-source-line="8" id="part1-head"><text fill="#000000" font-family="sans-serif" font-size="14" lengthAdjust="spacing" textLength="129.0488" x="5" y="137.7217">Canal / Originacao</text><ellipse cx="72.5244" cy="73.2266" fill="#D3D3D3" rx="8" ry="8" style="stroke:#181818;stroke-width:0.5;"/><path d="M72.5244,81.2266 L72.5244,108.2266 M59.5244,89.2266 L85.5244,89.2266 M72.5244,108.2266 L59.5244,123.2266 M72.5244,108.2266 L85.5244,123.2266" fill="none" style="stroke:#181818;stroke-width:0.5;"/></g><g class="participant participant-tail" data-entity-uid="part1" data-qualified-name="CH" data-source-line="8" id="part1-tail"><text fill="#000000" font-family="sans-serif" font-size="14" lengthAdjust="spacing" textLength="129.0488" x="5" y="689.2764">Canal / Originacao</text><ellipse cx="72.5244" cy="701.0781" fill="#D3D3D3" rx="8" ry="8" style="stroke:#181818;stroke-width:0.5;"/><path d="M72.5244,709.0781 L72.5244,736.0781 M59.5244,717.0781 L85.5244,717.0781 M72.5244,736.0781 L59.5244,751.0781 M72.5244,736.0781 L85.5244,751.0781" fill="none" style="stroke:#181818;stroke-width:0.5;"/></g><g class="participant participant-head" data-entity-uid="part2" data-qualified-name="GW" data-source-line="10" id="part2-head"><rect fill="#E2E2F0" height="30.2969" rx="2.5" ry="2.5" style="stroke:#181818;stroke-width:0.5;" width="102.4434" x="366.0352" y="109.7266"/><text fill="#000000" font-family="sans-serif" font-size="14" lengthAdjust="spacing" textLength="88.4434" x="373.0352" y="129.7217">API Gateway</text></g><g class="participant participant-tail" data-entity-uid="part2" data-qualified-name="GW" data-source-line="10" id="part2-tail"><rect fill="#E2E2F0" height="30.2969" rx="2.5" ry="2.5" style="stroke:#181818;stroke-width:0.5;" width="102.4434" x="366.0352" y="676.2813"/><text fill="#000000" font-family="sans-serif" font-size="14" lengthAdjust="spacing" textLength="88.4434" x="373.0352" y="696.2764">API Gateway</text></g><g class="participant participant-head" data-entity-uid="part3" data-qualified-name="DB" data-source-line="11" id="part3-head"><rect fill="#E2E2F0" height="46.5938" rx="2.5" ry="2.5" style="stroke:#181818;stroke-width:0.5;" width="200.457" x="605.4487" y="93.4297"/><text fill="#000000" font-family="sans-serif" font-size="14" lengthAdjust="spacing" textLength="110.4551" x="650.4497" y="113.4248">Decision Broker</text><text fill="#000000" font-family="sans-serif" font-size="14" lengthAdjust="spacing" textLength="186.457" x="612.4487" y="129.7217">(Cloud Run - Cliente HTTP)</text></g><g class="participant participant-tail" data-entity-uid="part3" data-qualified-name="DB" data-source-line="11" id="part3-tail"><rect fill="#E2E2F0" height="46.5938" rx="2.5" ry="2.5" style="stroke:#181818;stroke-width:0.5;" width="200.457" x="605.4487" y="676.2813"/><text fill="#000000" font-family="sans-serif" font-size="14" lengthAdjust="spacing" textLength="110.4551" x="650.4497" y="696.2764">Decision Broker</text><text fill="#000000" font-family="sans-serif" font-size="14" lengthAdjust="spacing" textLength="186.457" x="612.4487" y="712.5732">(Cloud Run - Cliente HTTP)</text></g><g class="participant participant-head" data-entity-uid="part4" data-qualified-name="SP" data-source-line="12" id="part4-head"><text fill="#000000" font-family="sans-serif" font-size="14" lengthAdjust="spacing" textLength="102.9082" x="1037.7593" y="121.4248">Cloud Spanner</text><text fill="#000000" font-family="sans-serif" font-size="14" lengthAdjust="spacing" textLength="151.8535" x="1013.2866" y="137.7217">(Audit Vault &amp; Cache)</text><path d="M1074.2134,72.4297 C1074.2134,62.4297 1092.2134,62.4297 1092.2134,62.4297 C1092.2134,62.4297 1110.2134,62.4297 1110.2134,72.4297 L1110.2134,98.4297 C1110.2134,108.4297 1092.2134,108.4297 1092.2134,108.4297 C1092.2134,108.4297 1074.2134,108.4297 1074.2134,98.4297 L1074.2134,72.4297" fill="#E2E2F0" style="stroke:#181818;stroke-width:0.5;"/><path d="M1074.2134,72.4297 C1074.2134,82.4297 1092.2134,82.4297 1092.2134,82.4297 C1092.2134,82.4297 1110.2134,82.4297 1110.2134,72.4297" fill="none" style="stroke:#181818;stroke-width:0.5;"/></g><g class="participant participant-tail" data-entity-uid="part4" data-qualified-name="SP" data-source-line="12" id="part4-tail"><text fill="#000000" font-family="sans-serif" font-size="14" lengthAdjust="spacing" textLength="102.9082" x="1037.7593" y="689.2764">Cloud Spanner</text><text fill="#000000" font-family="sans-serif" font-size="14" lengthAdjust="spacing" textLength="151.8535" x="1013.2866" y="705.5732">(Audit Vault &amp; Cache)</text><path d="M1074.2134,718.875 C1074.2134,708.875 1092.2134,708.875 1092.2134,708.875 C1092.2134,708.875 1110.2134,708.875 1110.2134,718.875 L1110.2134,744.875 C1110.2134,754.875 1092.2134,754.875 1092.2134,754.875 C1092.2134,754.875 1074.2134,754.875 1074.2134,744.875 L1074.2134,718.875" fill="#E2E2F0" style="stroke:#181818;stroke-width:0.5;"/><path d="M1074.2134,718.875 C1074.2134,728.875 1092.2134,728.875 1092.2134,728.875 C1092.2134,728.875 1110.2134,728.875 1110.2134,718.875" fill="none" style="stroke:#181818;stroke-width:0.5;"/></g><g class="participant participant-head" data-entity-uid="part5" data-qualified-name="INF" data-source-line="16" id="part5-head"><rect fill="#E2E2F0" height="46.5938" rx="2.5" ry="2.5" style="stroke:#181818;stroke-width:0.5;" width="183.5859" x="1216.1401" y="93.4297"/><text fill="#000000" font-family="sans-serif" font-size="14" lengthAdjust="spacing" textLength="64.4902" x="1275.688" y="113.4248">Vertex AI</text><text fill="#000000" font-family="sans-serif" font-size="14" lengthAdjust="spacing" textLength="169.5859" x="1223.1401" y="129.7217">(Endpoint de Inferencia)</text></g><g class="participant participant-tail" data-entity-uid="part5" data-qualified-name="INF" data-source-line="16" id="part5-tail"><rect fill="#E2E2F0" height="46.5938" rx="2.5" ry="2.5" style="stroke:#181818;stroke-width:0.5;" width="183.5859" x="1216.1401" y="676.2813"/><text fill="#000000" font-family="sans-serif" font-size="14" lengthAdjust="spacing" textLength="64.4902" x="1275.688" y="696.2764">Vertex AI</text><text fill="#000000" font-family="sans-serif" font-size="14" lengthAdjust="spacing" textLength="169.5859" x="1223.1401" y="712.5732">(Endpoint de Inferencia)</text></g><g class="participant participant-head" data-entity-uid="part6" data-qualified-name="FS" data-source-line="17" id="part6-head"><text fill="#000000" font-family="sans-serif" font-size="14" lengthAdjust="spacing" textLength="64.9277" x="1602.8306" y="121.4248">BigQuery</text><text fill="#000000" font-family="sans-serif" font-size="14" lengthAdjust="spacing" textLength="177.8369" x="1546.376" y="137.7217">(Repositorio de Features)</text><path d="M1620.2944,72.4297 C1620.2944,62.4297 1638.2944,62.4297 1638.2944,62.4297 C1638.2944,62.4297 1656.2944,62.4297 1656.2944,72.4297 L1656.2944,98.4297 C1656.2944,108.4297 1638.2944,108.4297 1638.2944,108.4297 C1638.2944,108.4297 1620.2944,108.4297 1620.2944,98.4297 L1620.2944,72.4297" fill="#E2E2F0" style="stroke:#181818;stroke-width:0.5;"/><path d="M1620.2944,72.4297 C1620.2944,82.4297 1638.2944,82.4297 1638.2944,82.4297 C1638.2944,82.4297 1656.2944,82.4297 1656.2944,72.4297" fill="none" style="stroke:#181818;stroke-width:0.5;"/></g><g class="participant participant-tail" data-entity-uid="part6" data-qualified-name="FS" data-source-line="17" id="part6-tail"><text fill="#000000" font-family="sans-serif" font-size="14" lengthAdjust="spacing" textLength="64.9277" x="1602.8306" y="689.2764">BigQuery</text><text fill="#000000" font-family="sans-serif" font-size="14" lengthAdjust="spacing" textLength="177.8369" x="1546.376" y="705.5732">(Repositorio de Features)</text><path d="M1620.2944,718.875 C1620.2944,708.875 1638.2944,708.875 1638.2944,708.875 C1638.2944,708.875 1656.2944,708.875 1656.2944,718.875 L1656.2944,744.875 C1656.2944,754.875 1638.2944,754.875 1638.2944,754.875 C1638.2944,754.875 1620.2944,754.875 1620.2944,744.875 L1620.2944,718.875" fill="#E2E2F0" style="stroke:#181818;stroke-width:0.5;"/><path d="M1620.2944,718.875 C1620.2944,728.875 1638.2944,728.875 1638.2944,728.875 C1638.2944,728.875 1656.2944,728.875 1656.2944,718.875" fill="none" style="stroke:#181818;stroke-width:0.5;"/></g><g class="participant participant-head" data-entity-uid="part7" data-qualified-name="PS" data-source-line="20" id="part7-head"><path d="M1755.2129,114.7266 L1822.7783,114.7266 C1827.7783,114.7266 1827.7783,127.875 1827.7783,127.875 C1827.7783,127.875 1827.7783,141.0234 1822.7783,141.0234 L1755.2129,141.0234 C1750.2129,141.0234 1750.2129,127.875 1750.2129,127.875 C1750.2129,127.875 1750.2129,114.7266 1755.2129,114.7266" fill="#FFFFE0" style="stroke:#181818;stroke-width:0.5;"/><path d="M1822.7783,114.7266 C1817.7783,114.7266 1817.7783,127.875 1817.7783,127.875 C1817.7783,141.0234 1822.7783,141.0234 1822.7783,141.0234" fill="none" style="stroke:#181818;stroke-width:0.5;"/><text fill="#000000" font-family="sans-serif" font-size="14" lengthAdjust="spacing" textLength="57.5654" x="1755.2129" y="132.7217">Pub/Sub</text></g><g class="participant participant-tail" data-entity-uid="part7" data-qualified-name="PS" data-source-line="20" id="part7-tail"><path d="M1755.2129,676.2813 L1822.7783,676.2813 C1827.7783,676.2813 1827.7783,689.4297 1827.7783,689.4297 C1827.7783,689.4297 1827.7783,702.5781 1822.7783,702.5781 L1755.2129,702.5781 C1750.2129,702.5781 1750.2129,689.4297 1750.2129,689.4297 C1750.2129,689.4297 1750.2129,676.2813 1755.2129,676.2813" fill="#FFFFE0" style="stroke:#181818;stroke-width:0.5;"/><path d="M1822.7783,676.2813 C1817.7783,676.2813 1817.7783,689.4297 1817.7783,689.4297 C1817.7783,702.5781 1822.7783,702.5781 1822.7783,702.5781" fill="none" style="stroke:#181818;stroke-width:0.5;"/><text fill="#000000" font-family="sans-serif" font-size="14" lengthAdjust="spacing" textLength="57.5654" x="1755.2129" y="694.2764">Pub/Sub</text></g><g class="participant participant-head" data-entity-uid="part8" data-qualified-name="HD" data-source-line="21" id="part8-head"><rect fill="#D3D3D3" height="46.5938" rx="2.5" ry="2.5" style="stroke:#181818;stroke-width:0.5;" width="120.0869" x="2187.5552" y="93.4297"/><text fill="#000000" font-family="sans-serif" font-size="14" lengthAdjust="spacing" textLength="106.0869" x="2194.5552" y="113.4248">Hubs de Dados</text><text fill="#000000" font-family="sans-serif" font-size="14" lengthAdjust="spacing" textLength="93.0371" x="2201.0801" y="129.7217">(Corporativo)</text></g><g class="participant participant-tail" data-entity-uid="part8" data-qualified-name="HD" data-source-line="21" id="part8-tail"><rect fill="#D3D3D3" height="46.5938" rx="2.5" ry="2.5" style="stroke:#181818;stroke-width:0.5;" width="120.0869" x="2187.5552" y="676.2813"/><text fill="#000000" font-family="sans-serif" font-size="14" lengthAdjust="spacing" textLength="106.0869" x="2194.5552" y="696.2764">Hubs de Dados</text><text fill="#000000" font-family="sans-serif" font-size="14" lengthAdjust="spacing" textLength="93.0371" x="2201.0801" y="712.5732">(Corporativo)</text></g><g><title>API Gateway</title><rect fill="#FFFFFF" height="487.125" style="stroke:#181818;stroke-width:1;" width="10" x="412.2568" y="172.1563"/></g><g><title>Decision Broker</title><rect fill="#FFFFFF" height="254.0625" style="stroke:#181818;stroke-width:1;" width="10" x="700.6772" y="201.2891"/></g><g><title>Cloud Spanner</title><rect fill="#FFFFFF" height="30" style="stroke:#181818;stroke-width:1;" width="10" x="1087.2134" y="396.2188"/></g><g><title>Vertex AI</title><rect fill="#FFFFFF" height="87.3984" style="stroke:#181818;stroke-width:1;" width="10" x="1302.9331" y="484.4844"/></g><g><title>Pub.Sub</title><rect fill="#FFFFFF" height="29.1328" style="stroke:#181818;stroke-width:1;" width="10" x="1783.9956" y="601.0156"/></g><g class="message" data-entity-1="part1" data-entity-2="part2" data-source-line="27" id="msg1"><polygon fill="#181818" points="400.2568,168.1563,410.2568,172.1563,400.2568,176.1563,404.2568,172.1563" style="stroke:#181818;stroke-width:1;"/><line style="stroke:#181818;stroke-width:1;" x1="72.5244" x2="406.2568" y1="172.1563" y2="172.1563"/><text fill="#000000" font-family="sans-serif" font-size="13" lengthAdjust="spacing" textLength="133.5928" x="79.5244" y="167.0903">1) Solicita inferencia</text></g><g class="message" data-entity-1="part2" data-entity-2="part3" data-source-line="30" id="msg2"><polygon fill="#181818" points="688.6772,197.2891,698.6772,201.2891,688.6772,205.2891,692.6772,201.2891" style="stroke:#181818;stroke-width:1;"/><line style="stroke:#181818;stroke-width:1;" x1="422.2568" x2="694.6772" y1="201.2891" y2="201.2891"/><text fill="#000000" font-family="sans-serif" font-size="13" lengthAdjust="spacing" textLength="226.5479" x="429.2568" y="196.2231">2) Ingestao de dados de inferencia</text></g><g class="message" data-entity-1="part3" data-entity-2="part4" data-source-line="33" id="msg3"><polygon fill="#181818" points="1080.2134,226.4219,1090.2134,230.4219,1080.2134,234.4219,1084.2134,230.4219" style="stroke:#181818;stroke-width:1;"/><line style="stroke:#181818;stroke-width:1;" x1="710.6772" x2="1086.2134" y1="230.4219" y2="230.4219"/><text fill="#000000" font-family="sans-serif" font-size="13" lengthAdjust="spacing" textLength="207.4604" x="717.6772" y="225.356">2.1) Consulta cache de Bureaus</text></g><g class="message" data-entity-1="part4" data-entity-2="part3" data-source-line="34" id="msg4"><polygon fill="#181818" points="721.6772,255.5547,711.6772,259.5547,721.6772,263.5547,717.6772,259.5547" style="stroke:#181818;stroke-width:1;"/><line style="stroke:#181818;stroke-width:1;" x1="715.6772" x2="1091.2134" y1="259.5547" y2="259.5547"/><text fill="#000000" font-family="sans-serif" font-size="13" lengthAdjust="spacing" textLength="217.8262" x="727.6772" y="254.4888">2.2) Retorna cache (se existente)</text></g><path d="M587,272.5547 L587,312.5547 L823,312.5547 L823,282.5547 L813,272.5547 L587,272.5547" fill="#FEFFDD" style="stroke:#181818;stroke-width:0.5;"/><path d="M813,272.5547 L813,282.5547 L823,282.5547 L813,272.5547" fill="#FEFFDD" style="stroke:#181818;stroke-width:0.5;"/><text fill="#000000" font-family="sans-serif" font-size="13" lengthAdjust="spacing" textLength="215.1919" x="593" y="289.6216">Opcional: Aciona Cloud Workflow</text><text fill="#000000" font-family="sans-serif" font-size="13" lengthAdjust="spacing" textLength="198.0151" x="593" y="304.7544">apenas para fluxos complexos</text><g class="message" data-entity-1="part3" data-entity-2="part3" data-source-line="41" id="msg5"><line style="stroke:#181818;stroke-width:1;" x1="710.6772" x2="752.6772" y1="354.0859" y2="354.0859"/><line style="stroke:#181818;stroke-width:1;" x1="752.6772" x2="752.6772" y1="354.0859" y2="367.0859"/><line style="stroke:#181818;stroke-width:1;" x1="711.6772" x2="752.6772" y1="367.0859" y2="367.0859"/><polygon fill="#181818" points="721.6772,363.0859,711.6772,367.0859,721.6772,371.0859,717.6772,367.0859" style="stroke:#181818;stroke-width:1;"/><text fill="#000000" font-family="sans-serif" font-size="13" lengthAdjust="spacing" textLength="352.5361" x="717.6772" y="333.8872">2.3) Chamadas HTTP paralelas para Bureaus externos</text><text fill="#000000" font-family="sans-serif" font-size="13" lengthAdjust="spacing" textLength="207.6064" x="717.6772" y="349.02">(SCR BACEN, Serasa, Boa Vista)</text></g><g class="message" data-entity-1="part3" data-entity-2="part4" data-source-line="43" id="msg6"><polygon fill="#181818" points="1075.2134,392.2188,1085.2134,396.2188,1075.2134,400.2188,1079.2134,396.2188" style="stroke:#181818;stroke-width:1;"/><line style="stroke:#181818;stroke-width:1;" x1="710.6772" x2="1081.2134" y1="396.2188" y2="396.2188"/><text fill="#000000" font-family="sans-serif" font-size="13" lengthAdjust="spacing" textLength="344.6016" x="717.6772" y="391.1528">2.4) Grava persistencia de auditoria e atualiza cache</text></g><g class="message" data-entity-1="part3" data-entity-2="part2" data-source-line="47" id="msg7"><polygon fill="#181818" points="433.2568,451.3516,423.2568,455.3516,433.2568,459.3516,429.2568,455.3516" style="stroke:#181818;stroke-width:1;"/><line style="stroke:#181818;stroke-width:1;" x1="427.2568" x2="704.6772" y1="455.3516" y2="455.3516"/><text fill="#000000" font-family="sans-serif" font-size="13" lengthAdjust="spacing" textLength="254.4204" x="439.2568" y="450.2856">3) Retorna carga de dados enriquecida</text></g><g class="message" data-entity-1="part2" data-entity-2="part5" data-source-line="50" id="msg8"><polygon fill="#181818" points="1290.9331,480.4844,1300.9331,484.4844,1290.9331,488.4844,1294.9331,484.4844" style="stroke:#181818;stroke-width:1;"/><line style="stroke:#181818;stroke-width:1;" x1="422.2568" x2="1296.9331" y1="484.4844" y2="484.4844"/><text fill="#000000" font-family="sans-serif" font-size="13" lengthAdjust="spacing" textLength="263.3198" x="429.2568" y="479.4185">4) Encaminha requisicao para inferencia</text></g><g class="message" data-entity-1="part5" data-entity-2="part6" data-source-line="53" id="msg9"><polygon fill="#181818" points="1626.2944,509.6172,1636.2944,513.6172,1626.2944,517.6172,1630.2944,513.6172" style="stroke:#181818;stroke-width:1;"/><line style="stroke:#181818;stroke-width:1;" x1="1312.9331" x2="1632.2944" y1="513.6172" y2="513.6172"/><text fill="#000000" font-family="sans-serif" font-size="13" lengthAdjust="spacing" textLength="301.3613" x="1319.9331" y="508.5513">4.1) Lookup de variaveis locais em tempo real</text></g><g class="message" data-entity-1="part6" data-entity-2="part5" data-source-line="54" id="msg10"><polygon fill="#181818" points="1323.9331,538.75,1313.9331,542.75,1323.9331,546.75,1319.9331,542.75" style="stroke:#181818;stroke-width:1;"/><line style="stroke:#181818;stroke-width:1;" x1="1317.9331" x2="1637.2944" y1="542.75" y2="542.75"/><text fill="#000000" font-family="sans-serif" font-size="13" lengthAdjust="spacing" textLength="253.4746" x="1329.9331" y="537.6841">4.2) Retorna features complementares</text></g><g class="message" data-entity-1="part5" data-entity-2="part2" data-source-line="56" id="msg11"><polygon fill="#181818" points="433.2568,567.8828,423.2568,571.8828,433.2568,575.8828,429.2568,571.8828" style="stroke:#181818;stroke-width:1;"/><line style="stroke:#181818;stroke-width:1;stroke-dasharray:2,2;" x1="427.2568" x2="1306.9331" y1="571.8828" y2="571.8828"/><text fill="#000000" font-family="sans-serif" font-size="13" lengthAdjust="spacing" textLength="223.6914" x="439.2568" y="566.8169">5) Retorna resultado da inferencia</text></g><g class="message" data-entity-1="part2" data-entity-2="part7" data-source-line="60" id="msg12"><polygon fill="#181818" points="1771.9956,597.0156,1781.9956,601.0156,1771.9956,605.0156,1775.9956,601.0156" style="stroke:#181818;stroke-width:1;"/><line style="stroke:#181818;stroke-width:1;" x1="422.2568" x2="1777.9956" y1="601.0156" y2="601.0156"/><text fill="#000000" font-family="sans-serif" font-size="13" lengthAdjust="spacing" textLength="384.7822" x="429.2568" y="595.9497">6) Publica assincronamente dados capturados nos bureaus</text></g><g class="message" data-entity-1="part7" data-entity-2="part8" data-source-line="62" id="msg13"><polygon fill="#181818" points="2235.5986,626.1484,2245.5986,630.1484,2235.5986,634.1484,2239.5986,630.1484" style="stroke:#181818;stroke-width:1;"/><line style="stroke:#181818;stroke-width:1;" x1="1788.9956" x2="2241.5986" y1="630.1484" y2="630.1484"/><text fill="#000000" font-family="sans-serif" font-size="13" lengthAdjust="spacing" textLength="429.603" x="1795.9956" y="625.0825">7) Envia dados para ingestao nos Hubs de Dados (futuros treinos)</text></g><g class="message" data-entity-1="part2" data-entity-2="part1" data-source-line="65" id="msg14"><polygon fill="#181818" points="83.5244,655.2813,73.5244,659.2813,83.5244,663.2813,79.5244,659.2813" style="stroke:#181818;stroke-width:1;"/><line style="stroke:#181818;stroke-width:1;stroke-dasharray:2,2;" x1="77.5244" x2="416.2568" y1="659.2813" y2="659.2813"/><text fill="#000000" font-family="sans-serif" font-size="13" lengthAdjust="spacing" textLength="315.7324" x="89.5244" y="654.2153">8) Devolve resultado da inferencia ao originador</text></g><?plantuml-src hLLDZzis4BthLmosGBC2ugHfchGmsWAovAzYQwlMThS5UXbBOvjTcbH8okljhy-GqjfoajxYWqsBd9dtvhsXx8DGDHhSWnIAh7kI1DgudOxiQSVkiDAFGcrXWz9IRsUaZpbMbTzwyrtlUOx6YLBKgDnf_rqKEU4u_KGsHmqLmQr1PR543TVZ8vMD4mSTmm1oYGutskmHYdd--qqKOUcqWQiK5Kfu3KiZjaBvo2j02-aClhaHsvsR6doArle8LxDc3IafP_WyLrgQ3msJCssnslmxiABUoy4M7JtYqw0sLNpL9Hd9XYBWJtqc0LT9FeTfUphKdDv_VYQZKbYX5OoCVY3pZxfEfMugM3MAMQLIC222sUrj7eSSsIZag9Zj6Yqnlt2yu6mgX2TD9HpSOICTV0ifbZjg8uiy8bK1KurQlaND5JtJkTgG8LKAx7ZwZO4uFJtHd1eYzJc7EpAEZf3CkVnOLRKM_FGYRujWlfXy0duajdyqP9uuS4Mrje8b4q7d2Q5h3DasSbASiRCg3OVcpVfrqQp3Tbvq0FycAVLZT86EPRK-OyQ6jBw_sjJQO31EY9vbVIj4B-2Nh_NXNByjLuiaIo1RmkJcpx-Ma8tXTfKiYYHDbZ3sFHclnejqddpLmX7xU_0hEsu8Rs8ejEHsE8Ipfduyn87DwLqPJU_zwMmqXEzZbctBliSWG-MRvXTVYcGlHjd8HnOvHxxYIgbMbfs7K7hZ-S0HguYDzGT_7dG7kSYAM6hrVEwQpK17OPrtUnn5IdDwVI3J-drPbpmYA8UGX0Mqfh_Nvc7ZzGR0cXHBwMyIsFYxmaAfzxKaNWNh-8pFQ0FFLsyPxGxtM7aBy7o5O4doEKq7d74vCYfOfqXNC4hIyU8b56JGuak-pH3k63Z6bxtu8GQsqm6X9cC3CJzUt0_qyyakH-2rQr2A_xekd1lBerfH_vyNYBldWR_jzyviyQmIAIDuE4fHOJ_SgzJgoruR0WCRgnBtGkqG37re-FhnDrpW_2ML_TH6_EKpJ0fEu7M-qVgXgNtj0pAN0maBKfV8FxG7H_jQStAK8P2Hju4ztJVTV7SoxLbuvByTqq6BzTtvFEzvNrNioWkOFQ81w8lpgu93ZUR-XjoU8behL6cqwjXopoukXwvDEMDz7mDVC3mrU8x2VRYBssQNM3F-i6HlmBfp-GbCNaHyAt6sMJQ47ttF3rx_4D2rkfiozIaCkDuqd9iNpf3WxRZFaXFxuVOzyjFzKmmP7RGyqF-r2BY6Rbz-bJRzLDFxZm00?></g></svg>