<?xml version="1.0" encoding="UTF-8" standalone="no"?>
<!DOCTYPE svg PUBLIC "-//W3C//DTD SVG 1.1//EN"
 "http://www.w3.org/Graphics/SVG/1.1/DTD/svg11.dtd">
<!-- Generated by graphviz version 14.1.1 (20251213.1925)
 -->
<!-- Title: Plataforma MLOps SIPML &#45; Referência Gartner v4 Pages: 1 -->
<svg width="17538pt" height="11466pt"
 viewBox="0.00 0.00 17538.00 11466.00" xmlns="http://www.w3.org/2000/svg" xmlns:xlink="http://www.w3.org/1999/xlink">
<g id="graph0" class="graph" transform="scale(8.33333 8.33333) rotate(0) translate(21.6 1354.35)">
<title>Plataforma MLOps SIPML &#45; Referência Gartner v4</title>
<polygon fill="white" stroke="none" points="-21.6,21.6 -21.6,-1354.35 2082.9,-1354.35 2082.9,21.6 -21.6,21.6"/>
<text xml:space="preserve" text-anchor="middle" x="1030.65" y="-7.55" font-family="Arial" font-size="16.00" fill="#2d3436">Plataforma MLOps SIPML &#45; Referência Gartner v4</text>
<g id="clust1" class="cluster">
<title>cluster_Fontes Externas de Dados</title>
<path fill="#e5f5fd" stroke="#aeb6be" d="M12,-221.75C12,-221.75 186.5,-221.75 186.5,-221.75 192.5,-221.75 198.5,-227.75 198.5,-233.75 198.5,-233.75 198.5,-841.75 198.5,-841.75 198.5,-847.75 192.5,-853.75 186.5,-853.75 186.5,-853.75 12,-853.75 12,-853.75 6,-853.75 0,-847.75 0,-841.75 0,-841.75 0,-233.75 0,-233.75 0,-227.75 6,-221.75 12,-221.75"/>
<text xml:space="preserve" text-anchor="middle" x="76.25" y="-838.35" font-family="Sans-Serif" font-size="12.00" fill="#2d3436">Fontes Externas de Dados</text>
</g>
<g id="clust2" class="cluster">
<title>cluster_Dados Analíticos (P&amp;D)</title>
<path fill="#ebf3e7" stroke="#aeb6be" d="M41.75,-615.75C41.75,-615.75 156.75,-615.75 156.75,-615.75 162.75,-615.75 168.75,-621.75 168.75,-627.75 168.75,-627.75 168.75,-809.75 168.75,-809.75 168.75,-815.75 162.75,-821.75 156.75,-821.75 156.75,-821.75 41.75,-821.75 41.75,-821.75 35.75,-821.75 29.75,-815.75 29.75,-809.75 29.75,-809.75 29.75,-627.75 29.75,-627.75 29.75,-621.75 35.75,-615.75 41.75,-615.75"/>
<text xml:space="preserve" text-anchor="middle" x="99.25" y="-806.35" font-family="Sans-Serif" font-size="12.00" fill="#2d3436">Dados Analíticos (P&amp;D)</text>
</g>
<g id="clust3" class="cluster">
<title>cluster_Dados Operacionais (Produção)</title>
<path fill="#ebf3e7" stroke="#aeb6be" d="M20,-229.75C20,-229.75 178.5,-229.75 178.5,-229.75 184.5,-229.75 190.5,-235.75 190.5,-241.75 190.5,-241.75 190.5,-595.75 190.5,-595.75 190.5,-601.75 184.5,-607.75 178.5,-607.75 178.5,-607.75 20,-607.75 20,-607.75 14,-607.75 8,-601.75 8,-595.75 8,-595.75 8,-241.75 8,-241.75 8,-235.75 14,-229.75 20,-229.75"/>
<text xml:space="preserve" text-anchor="middle" x="99.25" y="-592.35" font-family="Sans-Serif" font-size="12.00" fill="#2d3436">Dados Operacionais (Produção)</text>
</g>
<g id="clust4" class="cluster">
<title>cluster_Spoke de Modelagem (Ciclo de Vida Analítico)</title>
<path fill="#e5f5fd" stroke="#aeb6be" d="M306.75,-876.75C306.75,-876.75 1297.58,-876.75 1297.58,-876.75 1303.58,-876.75 1309.58,-882.75 1309.58,-888.75 1309.58,-888.75 1309.58,-1312.75 1309.58,-1312.75 1309.58,-1318.75 1303.58,-1324.75 1297.58,-1324.75 1297.58,-1324.75 306.75,-1324.75 306.75,-1324.75 300.75,-1324.75 294.75,-1318.75 294.75,-1312.75 294.75,-1312.75 294.75,-888.75 294.75,-888.75 294.75,-882.75 300.75,-876.75 306.75,-876.75"/>
<text xml:space="preserve" text-anchor="middle" x="424.25" y="-1309.35" font-family="Sans-Serif" font-size="12.00" fill="#2d3436">Spoke de Modelagem (Ciclo de Vida Analítico)</text>
</g>
<g id="clust5" class="cluster">
<title>cluster_M1: Sandbox e Ingestão</title>
<path fill="#ebf3e7" stroke="#aeb6be" d="M314.75,-884.75C314.75,-884.75 567.35,-884.75 567.35,-884.75 573.35,-884.75 579.35,-890.75 579.35,-896.75 579.35,-896.75 579.35,-1280.75 579.35,-1280.75 579.35,-1286.75 573.35,-1292.75 567.35,-1292.75 567.35,-1292.75 314.75,-1292.75 314.75,-1292.75 308.75,-1292.75 302.75,-1286.75 302.75,-1280.75 302.75,-1280.75 302.75,-896.75 302.75,-896.75 302.75,-890.75 308.75,-884.75 314.75,-884.75"/>
<text xml:space="preserve" text-anchor="middle" x="375.25" y="-1277.35" font-family="Sans-Serif" font-size="12.00" fill="#2d3436">M1: Sandbox e Ingestão</text>
</g>
<g id="clust6" class="cluster">
<title>cluster_M2: Orquestração MLOps (Vertex AI Pipelines)</title>
<path fill="#ebf3e7" stroke="#aeb6be" d="M721.85,-884.75C721.85,-884.75 974.45,-884.75 974.45,-884.75 980.45,-884.75 986.45,-890.75 986.45,-896.75 986.45,-896.75 986.45,-1078.75 986.45,-1078.75 986.45,-1084.75 980.45,-1090.75 974.45,-1090.75 974.45,-1090.75 721.85,-1090.75 721.85,-1090.75 715.85,-1090.75 709.85,-1084.75 709.85,-1078.75 709.85,-1078.75 709.85,-896.75 709.85,-896.75 709.85,-890.75 715.85,-884.75 721.85,-884.75"/>
<text xml:space="preserve" text-anchor="middle" x="840.1" y="-1075.35" font-family="Sans-Serif" font-size="12.00" fill="#2d3436">M2: Orquestração MLOps (Vertex AI Pipelines)</text>
</g>
<g id="clust7" class="cluster">
<title>cluster_M3: Registro de Modelos</title>
<path fill="#ebf3e7" stroke="#aeb6be" d="M1166.33,-884.75C1166.33,-884.75 1289.58,-884.75 1289.58,-884.75 1295.58,-884.75 1301.58,-890.75 1301.58,-896.75 1301.58,-896.75 1301.58,-1078.75 1301.58,-1078.75 1301.58,-1084.75 1295.58,-1090.75 1289.58,-1090.75 1289.58,-1090.75 1166.33,-1090.75 1166.33,-1090.75 1160.33,-1090.75 1154.33,-1084.75 1154.33,-1078.75 1154.33,-1078.75 1154.33,-896.75 1154.33,-896.75 1154.33,-890.75 1160.33,-884.75 1166.33,-884.75"/>
<text xml:space="preserve" text-anchor="middle" x="1227.95" y="-1075.35" font-family="Sans-Serif" font-size="12.00" fill="#2d3436">M3: Registro de Modelos</text>
</g>
<g id="clust8" class="cluster">
<title>cluster_Spoke de Inferência (Ciclo de Vida Operacional)</title>
<path fill="#e5f5fd" stroke="#aeb6be" d="M873.65,-34.75C873.65,-34.75 1879.05,-34.75 1879.05,-34.75 1885.05,-34.75 1891.05,-40.75 1891.05,-46.75 1891.05,-46.75 1891.05,-856.75 1891.05,-856.75 1891.05,-862.75 1885.05,-868.75 1879.05,-868.75 1879.05,-868.75 873.65,-868.75 873.65,-868.75 867.65,-868.75 861.65,-862.75 861.65,-856.75 861.65,-856.75 861.65,-46.75 861.65,-46.75 861.65,-40.75 867.65,-34.75 873.65,-34.75"/>
<text xml:space="preserve" text-anchor="middle" x="996.03" y="-853.35" font-family="Sans-Serif" font-size="12.00" fill="#2d3436">Spoke de Inferência (Ciclo de Vida Operacional)</text>
</g>
<g id="clust9" class="cluster">
<title>cluster_I1: Ingestão e Entrada</title>
<path fill="#ebf3e7" stroke="#aeb6be" d="M881.65,-42.75C881.65,-42.75 1273.85,-42.75 1273.85,-42.75 1279.85,-42.75 1285.85,-48.75 1285.85,-54.75 1285.85,-54.75 1285.85,-408.75 1285.85,-408.75 1285.85,-414.75 1279.85,-420.75 1273.85,-420.75 1273.85,-420.75 881.65,-420.75 881.65,-420.75 875.65,-420.75 869.65,-414.75 869.65,-408.75 869.65,-408.75 869.65,-54.75 869.65,-54.75 869.65,-48.75 875.65,-42.75 881.65,-42.75"/>
<text xml:space="preserve" text-anchor="middle" x="937.28" y="-405.35" font-family="Sans-Serif" font-size="12.00" fill="#2d3436">I1: Ingestão e Entrada</text>
</g>
<g id="clust10" class="cluster">
<title>cluster_I2: Armazenamento e Features</title>
<path fill="#ebf3e7" stroke="#aeb6be" d="M1150.95,-428.75C1150.95,-428.75 1304.95,-428.75 1304.95,-428.75 1310.95,-428.75 1316.95,-434.75 1316.95,-440.75 1316.95,-440.75 1316.95,-824.75 1316.95,-824.75 1316.95,-830.75 1310.95,-836.75 1304.95,-836.75 1304.95,-836.75 1150.95,-836.75 1150.95,-836.75 1144.95,-836.75 1138.95,-830.75 1138.95,-824.75 1138.95,-824.75 1138.95,-440.75 1138.95,-440.75 1138.95,-434.75 1144.95,-428.75 1150.95,-428.75"/>
<text xml:space="preserve" text-anchor="middle" x="1227.95" y="-821.35" font-family="Sans-Serif" font-size="12.00" fill="#2d3436">I2: Armazenamento e Features</text>
</g>
<g id="clust11" class="cluster">
<title>cluster_I3: Serving e Inferência</title>
<path fill="#ebf3e7" stroke="#aeb6be" d="M1426.2,-520.75C1426.2,-520.75 1543.45,-520.75 1543.45,-520.75 1549.45,-520.75 1555.45,-526.75 1555.45,-532.75 1555.45,-532.75 1555.45,-714.75 1555.45,-714.75 1555.45,-720.75 1549.45,-726.75 1543.45,-726.75 1543.45,-726.75 1426.2,-726.75 1426.2,-726.75 1420.2,-726.75 1414.2,-720.75 1414.2,-714.75 1414.2,-714.75 1414.2,-532.75 1414.2,-532.75 1414.2,-526.75 1420.2,-520.75 1426.2,-520.75"/>
<text xml:space="preserve" text-anchor="middle" x="1484.83" y="-711.35" font-family="Sans-Serif" font-size="12.00" fill="#2d3436">I3: Serving e Inferência</text>
</g>
<g id="clust12" class="cluster">
<title>cluster_I4: Observabilidade</title>
<path fill="#ebf3e7" stroke="#aeb6be" d="M1618.45,-520.75C1618.45,-520.75 1871.05,-520.75 1871.05,-520.75 1877.05,-520.75 1883.05,-526.75 1883.05,-532.75 1883.05,-532.75 1883.05,-714.75 1883.05,-714.75 1883.05,-720.75 1877.05,-726.75 1871.05,-726.75 1871.05,-726.75 1618.45,-726.75 1618.45,-726.75 1612.45,-726.75 1606.45,-720.75 1606.45,-714.75 1606.45,-714.75 1606.45,-532.75 1606.45,-532.75 1606.45,-526.75 1612.45,-520.75 1618.45,-520.75"/>
<text xml:space="preserve" text-anchor="middle" x="1666.2" y="-711.35" font-family="Sans-Serif" font-size="12.00" fill="#2d3436">I4: Observabilidade</text>
</g>
<g id="clust13" class="cluster">
<title>cluster_Governança Enterprise</title>
<path fill="#e5f5fd" stroke="#aeb6be" d="M1938.05,-626.75C1938.05,-626.75 2049.3,-626.75 2049.3,-626.75 2055.3,-626.75 2061.3,-632.75 2061.3,-638.75 2061.3,-638.75 2061.3,-820.75 2061.3,-820.75 2061.3,-826.75 2055.3,-832.75 2049.3,-832.75 2049.3,-832.75 1938.05,-832.75 1938.05,-832.75 1932.05,-832.75 1926.05,-826.75 1926.05,-820.75 1926.05,-820.75 1926.05,-638.75 1926.05,-638.75 1926.05,-632.75 1932.05,-626.75 1938.05,-626.75"/>
<text xml:space="preserve" text-anchor="middle" x="1993.68" y="-817.35" font-family="Sans-Serif" font-size="12.00" fill="#2d3436">Governança Enterprise</text>
</g>
<!-- 024c0c42ea1249889a5bab0dc25abf36 -->
<g id="node1" class="node">
<title>024c0c42ea1249889a5bab0dc25abf36</title>
<image xlink:href="C:\Users\A450373\AppData\Local\Programs\Python\Python312\Lib\site-packages\resources/generic/database\sql.png" width="100.8px" height="100.8px" preserveAspectRatio="xMinYMin meet" x="48.35" y="-757.15"/>
<text xml:space="preserve" text-anchor="middle" x="98.75" y="-644.6" font-family="Sans-Serif" font-size="13.00" fill="#2d3436">Azure Databricks</text>
<text xml:space="preserve" text-anchor="middle" x="98.75" y="-628.1" font-family="Sans-Serif" font-size="13.00" fill="#2d3436">(Delta Lake)</text>
</g>
<!-- ba28e574991541538ef7eb219a44b4b2 -->
<g id="node4" class="node">
<title>ba28e574991541538ef7eb219a44b4b2</title>
<image xlink:href="C:\Users\A450373\AppData\Local\Programs\Python\Python312\Lib\site-packages\resources/gcp/analytics\bigquery.png" width="100.8px" height="100.8px" preserveAspectRatio="xMinYMin meet" x="310.75" y="-1228.15"/>
<text xml:space="preserve" text-anchor="middle" x="361.15" y="-1115.6" font-family="Sans-Serif" font-size="13.00" fill="#2d3436">BigQuery</text>
<text xml:space="preserve" text-anchor="middle" x="361.15" y="-1099.1" font-family="Sans-Serif" font-size="13.00" fill="#2d3436">(Sandbox)</text>
</g>
<!-- 024c0c42ea1249889a5bab0dc25abf36&#45;&gt;ba28e574991541538ef7eb219a44b4b2 -->
<!-- 024c0c42ea1249889a5bab0dc25abf36&#45;&gt;ba28e574991541538ef7eb219a44b4b2 -->
<g id="edge8" class="edge">
<title>024c0c42ea1249889a5bab0dc25abf36&#45;&gt;ba28e574991541538ef7eb219a44b4b2</title>
<path fill="none" stroke="blue" d="M115.3,-789.37C115.3,-917.65 115.3,-1150.15 115.3,-1150.15 115.3,-1150.15 299.29,-1150.15 299.29,-1150.15"/>
<polygon fill="blue" stroke="blue" points="299.29,-1153.65 309.29,-1150.15 299.29,-1146.65 299.29,-1153.65"/>
<text xml:space="preserve" text-anchor="middle" x="250.62" y="-1078.9" font-family="Sans-Serif" font-size="13.00" fill="#2d3436">Carga P&amp;D</text>
</g>
<!-- cfbf448e74ec4533ad6bb39f34e05589 -->
<g id="node2" class="node">
<title>cfbf448e74ec4533ad6bb39f34e05589</title>
<image xlink:href="C:\Users\A450373\AppData\Local\Programs\Python\Python312\Lib\site-packages\resources/generic/storage\storage.png" width="100.8px" height="100.8px" preserveAspectRatio="xMinYMin meet" x="48.35" y="-371.15"/>
<text xml:space="preserve" text-anchor="middle" x="98.75" y="-258.6" font-family="Sans-Serif" font-size="13.00" fill="#2d3436">On&#45;Premises</text>
<text xml:space="preserve" text-anchor="middle" x="98.75" y="-242.1" font-family="Sans-Serif" font-size="13.00" fill="#2d3436">(IBM Db2 / Files)</text>
</g>
<!-- 72a3c12c40404099a72d414c4f498701 -->
<g id="node10" class="node">
<title>72a3c12c40404099a72d414c4f498701</title>
<image xlink:href="C:\Users\A450373\AppData\Local\Programs\Python\Python312\Lib\site-packages\resources/gcp/api\api-gateway.png" width="100.8px" height="100.8px" preserveAspectRatio="xMinYMin meet" x="877.65" y="-371.15"/>
<text xml:space="preserve" text-anchor="middle" x="928.05" y="-256.5" font-family="Sans-Serif" font-size="13.00" fill="#2d3436">Cloud API Gateway</text>
</g>
<!-- cfbf448e74ec4533ad6bb39f34e05589&#45;&gt;72a3c12c40404099a72d414c4f498701 -->
<!-- cfbf448e74ec4533ad6bb39f34e05589&#45;&gt;72a3c12c40404099a72d414c4f498701 -->
<g id="edge15" class="edge">
<title>cfbf448e74ec4533ad6bb39f34e05589&#45;&gt;72a3c12c40404099a72d414c4f498701</title>
<path fill="none" stroke="#7b8894" d="M149.07,-297.95C149.07,-297.95 866.25,-297.95 866.25,-297.95"/>
<polygon fill="#7b8894" stroke="#7b8894" points="866.25,-301.45 876.25,-297.95 866.25,-294.45 866.25,-301.45"/>
</g>
<!-- ceed0b30e69d46d7b977c6bc0692d6ae -->
<g id="node11" class="node">
<title>ceed0b30e69d46d7b977c6bc0692d6ae</title>
<image xlink:href="C:\Users\A450373\AppData\Local\Programs\Python\Python312\Lib\site-packages\resources/gcp/analytics\pubsub.png" width="100.8px" height="100.8px" preserveAspectRatio="xMinYMin meet" x="877.65" y="-184.15"/>
<text xml:space="preserve" text-anchor="middle" x="928.05" y="-71.6" font-family="Sans-Serif" font-size="13.00" fill="#2d3436">Pub/Sub</text>
<text xml:space="preserve" text-anchor="middle" x="928.05" y="-55.1" font-family="Sans-Serif" font-size="13.00" fill="#2d3436">(Streaming)</text>
</g>
<!-- cfbf448e74ec4533ad6bb39f34e05589&#45;&gt;ceed0b30e69d46d7b977c6bc0692d6ae -->
<g id="edge17" class="edge">
<title>cfbf448e74ec4533ad6bb39f34e05589&#45;&gt;ceed0b30e69d46d7b977c6bc0692d6ae</title>
<path fill="none" stroke="#7b8894" d="M148.97,-245.15C326.12,-245.15 911.3,-245.15 911.3,-245.15 911.3,-245.15 911.3,-227.98 911.3,-227.98"/>
<polygon fill="#7b8894" stroke="#7b8894" points="914.8,-227.98 911.3,-217.98 907.8,-227.98 914.8,-227.98"/>
</g>
<!-- 7b5a955377084c76969973a066d31a83 -->
<g id="node3" class="node">
<title>7b5a955377084c76969973a066d31a83</title>
<image xlink:href="C:\Users\A450373\AppData\Local\Programs\Python\Python312\Lib\site-packages\resources/generic/network\router.png" width="100.8px" height="100.8px" preserveAspectRatio="xMinYMin meet" x="48.35" y="-558.15"/>
<text xml:space="preserve" text-anchor="middle" x="98.75" y="-443.5" font-family="Sans-Serif" font-size="13.00" fill="#2d3436">API</text>
</g>
<!-- 7b5a955377084c76969973a066d31a83&#45;&gt;72a3c12c40404099a72d414c4f498701 -->
<g id="edge16" class="edge">
<title>7b5a955377084c76969973a066d31a83&#45;&gt;72a3c12c40404099a72d414c4f498701</title>
<path fill="none" stroke="#7b8894" d="M148.97,-484.95C326.12,-484.95 911.3,-484.95 911.3,-484.95 911.3,-484.95 911.3,-400.47 911.3,-400.47"/>
<polygon fill="#7b8894" stroke="#7b8894" points="914.8,-400.47 911.3,-390.47 907.8,-400.47 914.8,-400.47"/>
</g>
<!-- 7f3e9c76d5b4437cafb3588294fa1625 -->
<g id="node6" class="node">
<title>7f3e9c76d5b4437cafb3588294fa1625</title>
<image xlink:href="C:\Users\A450373\AppData\Local\Programs\Python\Python312\Lib\site-packages\resources/gcp/ml\ai-platform.png" width="100.8px" height="100.8px" preserveAspectRatio="xMinYMin meet" x="470.55" y="-1026.15"/>
<text xml:space="preserve" text-anchor="middle" x="520.95" y="-913.6" font-family="Sans-Serif" font-size="13.00" fill="#2d3436">Vertex AI Workbench</text>
<text xml:space="preserve" text-anchor="middle" x="520.95" y="-897.1" font-family="Sans-Serif" font-size="13.00" fill="#2d3436">(Notebooks)</text>
</g>
<!-- ba28e574991541538ef7eb219a44b4b2&#45;&gt;7f3e9c76d5b4437cafb3588294fa1625 -->
<g id="edge10" class="edge">
<title>ba28e574991541538ef7eb219a44b4b2&#45;&gt;7f3e9c76d5b4437cafb3588294fa1625</title>
<path fill="none" stroke="#7b8894" d="M411.38,-1136.35C458.35,-1136.35 521.3,-1136.35 521.3,-1136.35 521.3,-1136.35 521.3,-1069.92 521.3,-1069.92"/>
<polygon fill="#7b8894" stroke="#7b8894" points="524.8,-1069.92 521.3,-1059.92 517.8,-1069.92 524.8,-1069.92"/>
</g>
<!-- 4bf6b75d035e41b68a211e390f859e51 -->
<g id="node7" class="node">
<title>4bf6b75d035e41b68a211e390f859e51</title>
<image xlink:href="C:\Users\A450373\AppData\Local\Programs\Python\Python312\Lib\site-packages\resources/gcp/analytics\dataflow.png" width="100.8px" height="100.8px" preserveAspectRatio="xMinYMin meet" x="717.85" y="-1026.15"/>
<text xml:space="preserve" text-anchor="middle" x="768.25" y="-913.6" font-family="Sans-Serif" font-size="13.00" fill="#2d3436">Dataflow / Dataproc</text>
<text xml:space="preserve" text-anchor="middle" x="768.25" y="-897.1" font-family="Sans-Serif" font-size="13.00" fill="#2d3436">(Feature Engineering)</text>
</g>
<!-- ba28e574991541538ef7eb219a44b4b2&#45;&gt;4bf6b75d035e41b68a211e390f859e51 -->
<!-- 1f3d345e827a4c35b34d6b9d5eb0328b -->
<g id="node18" class="node">
<title>1f3d345e827a4c35b34d6b9d5eb0328b</title>
<image xlink:href="C:\Users\A450373\AppData\Local\Programs\Python\Python312\Lib\site-packages\resources/gcp/analytics\dataprep.png" width="100.8px" height="100.8px" preserveAspectRatio="xMinYMin meet" x="1942.78" y="-768.15"/>
<text xml:space="preserve" text-anchor="middle" x="1993.18" y="-655.6" font-family="Sans-Serif" font-size="13.00" fill="#2d3436">Dataplex (Data Mesh)</text>
<text xml:space="preserve" text-anchor="middle" x="1993.18" y="-639.1" font-family="Sans-Serif" font-size="13.00" fill="#2d3436">Lineage &amp; Qualidade</text>
</g>
<!-- ba28e574991541538ef7eb219a44b4b2&#45;&gt;1f3d345e827a4c35b34d6b9d5eb0328b -->
<g id="edge25" class="edge">
<title>ba28e574991541538ef7eb219a44b4b2&#45;&gt;1f3d345e827a4c35b34d6b9d5eb0328b</title>
<path fill="none" stroke="darkgreen" stroke-dasharray="5,2" d="M411.34,-1219.15C685.85,-1219.15 1993.3,-1219.15 1993.3,-1219.15 1993.3,-1219.15 1993.3,-812.06 1993.3,-812.06"/>
<polygon fill="darkgreen" stroke="darkgreen" points="1996.8,-812.06 1993.3,-802.06 1989.8,-812.06 1996.8,-812.06"/>
</g>
<!-- 4cb62924b6ae4632a73c9c6ad163b0cf -->
<g id="node5" class="node">
<title>4cb62924b6ae4632a73c9c6ad163b0cf</title>
<image xlink:href="C:\Users\A450373\AppData\Local\Programs\Python\Python312\Lib\site-packages\resources/gcp/storage\storage.png" width="100.8px" height="100.8px" preserveAspectRatio="xMinYMin meet" x="310.75" y="-1026.15"/>
<text xml:space="preserve" text-anchor="middle" x="361.15" y="-913.6" font-family="Sans-Serif" font-size="13.00" fill="#2d3436">Cloud Storage</text>
<text xml:space="preserve" text-anchor="middle" x="361.15" y="-897.1" font-family="Sans-Serif" font-size="13.00" fill="#2d3436">(Raw Data)</text>
</g>
<!-- 4cb62924b6ae4632a73c9c6ad163b0cf&#45;&gt;7f3e9c76d5b4437cafb3588294fa1625 -->
<g id="edge9" class="edge">
<title>4cb62924b6ae4632a73c9c6ad163b0cf&#45;&gt;7f3e9c76d5b4437cafb3588294fa1625</title>
<path fill="none" stroke="#7b8894" d="M411.27,-975.75C411.27,-975.75 459.22,-975.75 459.22,-975.75"/>
<polygon fill="#7b8894" stroke="#7b8894" points="459.22,-979.25 469.22,-975.75 459.22,-972.25 459.22,-979.25"/>
</g>
<!-- 7f3e9c76d5b4437cafb3588294fa1625&#45;&gt;4bf6b75d035e41b68a211e390f859e51 -->
<g id="edge11" class="edge">
<title>7f3e9c76d5b4437cafb3588294fa1625&#45;&gt;4bf6b75d035e41b68a211e390f859e51</title>
<path fill="none" stroke="blue" d="M571.29,-975.75C571.29,-975.75 706.46,-975.75 706.46,-975.75"/>
<polygon fill="blue" stroke="blue" points="706.46,-979.25 716.46,-975.75 706.46,-972.25 706.46,-979.25"/>
<text xml:space="preserve" text-anchor="middle" x="644.6" y="-979.9" font-family="Sans-Serif" font-size="13.00" fill="#2d3436">Trigger Pipeline</text>
</g>
<!-- db96be5d9cc54b49b18415b23a23a8bc -->
<g id="node8" class="node">
<title>db96be5d9cc54b49b18415b23a23a8bc</title>
<image xlink:href="C:\Users\A450373\AppData\Local\Programs\Python\Python312\Lib\site-packages\resources/gcp/ml\ai-platform.png" width="100.8px" height="100.8px" preserveAspectRatio="xMinYMin meet" x="877.65" y="-1026.15"/>
<text xml:space="preserve" text-anchor="middle" x="928.05" y="-913.6" font-family="Sans-Serif" font-size="13.00" fill="#2d3436">Custom Training Jobs</text>
<text xml:space="preserve" text-anchor="middle" x="928.05" y="-897.1" font-family="Sans-Serif" font-size="13.00" fill="#2d3436">(Experiments &amp; Tuning)</text>
</g>
<!-- 4bf6b75d035e41b68a211e390f859e51&#45;&gt;db96be5d9cc54b49b18415b23a23a8bc -->
<g id="edge12" class="edge">
<title>4bf6b75d035e41b68a211e390f859e51&#45;&gt;db96be5d9cc54b49b18415b23a23a8bc</title>
<path fill="none" stroke="#7b8894" d="M818.37,-975.75C818.37,-975.75 866.32,-975.75 866.32,-975.75"/>
<polygon fill="#7b8894" stroke="#7b8894" points="866.32,-979.25 876.32,-975.75 866.32,-972.25 866.32,-979.25"/>
</g>
<!-- 1ec7c48f1e6d496996143ab35a0f3535 -->
<g id="node9" class="node">
<title>1ec7c48f1e6d496996143ab35a0f3535</title>
<image xlink:href="C:\Users\A450373\AppData\Local\Programs\Python\Python312\Lib\site-packages\resources/gcp/ml\ai-platform.png" width="100.8px" height="100.8px" preserveAspectRatio="xMinYMin meet" x="1177.05" y="-1026.15"/>
<text xml:space="preserve" text-anchor="middle" x="1227.45" y="-913.6" font-family="Sans-Serif" font-size="13.00" fill="#2d3436">Vertex AI</text>
<text xml:space="preserve" text-anchor="middle" x="1227.45" y="-897.1" font-family="Sans-Serif" font-size="13.00" fill="#2d3436">Model Registry</text>
</g>
<!-- 4bf6b75d035e41b68a211e390f859e51&#45;&gt;1ec7c48f1e6d496996143ab35a0f3535 -->
<!-- 8622449f1fd145a0bc01b621a78580f4 -->
<g id="node13" class="node">
<title>8622449f1fd145a0bc01b621a78580f4</title>
<image xlink:href="C:\Users\A450373\AppData\Local\Programs\Python\Python312\Lib\site-packages\resources/gcp/analytics\bigquery.png" width="100.8px" height="100.8px" preserveAspectRatio="xMinYMin meet" x="1177.05" y="-570.15"/>
<text xml:space="preserve" text-anchor="middle" x="1227.45" y="-457.6" font-family="Sans-Serif" font-size="13.00" fill="#2d3436">BigQuery</text>
<text xml:space="preserve" text-anchor="middle" x="1227.45" y="-441.1" font-family="Sans-Serif" font-size="13.00" fill="#2d3436">(Repositório de Features)</text>
</g>
<!-- 4bf6b75d035e41b68a211e390f859e51&#45;&gt;8622449f1fd145a0bc01b621a78580f4 -->
<g id="edge14" class="edge">
<title>4bf6b75d035e41b68a211e390f859e51&#45;&gt;8622449f1fd145a0bc01b621a78580f4</title>
<path fill="none" stroke="darkblue" stroke-dasharray="5,2" d="M768.3,-893.33C768.3,-779.85 768.3,-589.35 768.3,-589.35 768.3,-589.35 1165.93,-589.35 1165.93,-589.35"/>
<polygon fill="darkblue" stroke="darkblue" points="1165.93,-592.85 1175.93,-589.35 1165.93,-585.85 1165.93,-592.85"/>
<text xml:space="preserve" text-anchor="middle" x="928.05" y="-554.9" font-family="Sans-Serif" font-size="13.00" fill="#2d3436">Publica Features</text>
</g>
<!-- db96be5d9cc54b49b18415b23a23a8bc&#45;&gt;1ec7c48f1e6d496996143ab35a0f3535 -->
<g id="edge13" class="edge">
<title>db96be5d9cc54b49b18415b23a23a8bc&#45;&gt;1ec7c48f1e6d496996143ab35a0f3535</title>
<path fill="none" stroke="blue" d="M978.16,-975.75C978.16,-975.75 1165.66,-975.75 1165.66,-975.75"/>
<polygon fill="blue" stroke="blue" points="1165.66,-979.25 1175.66,-975.75 1165.66,-972.25 1165.66,-979.25"/>
<text xml:space="preserve" text-anchor="middle" x="1054.7" y="-979.9" font-family="Sans-Serif" font-size="13.00" fill="#2d3436">Promove Modelo</text>
</g>
<!-- 79891bf9430741d0829347b3186e5fe1 -->
<g id="node15" class="node">
<title>79891bf9430741d0829347b3186e5fe1</title>
<image xlink:href="C:\Users\A450373\AppData\Local\Programs\Python\Python312\Lib\site-packages\resources/gcp/ml\ai-platform.png" width="100.8px" height="100.8px" preserveAspectRatio="xMinYMin meet" x="1433.93" y="-662.15"/>
<text xml:space="preserve" text-anchor="middle" x="1484.33" y="-549.6" font-family="Sans-Serif" font-size="13.00" fill="#2d3436">Vertex AI</text>
<text xml:space="preserve" text-anchor="middle" x="1484.33" y="-533.1" font-family="Sans-Serif" font-size="13.00" fill="#2d3436">Endpoint de Inferência</text>
</g>
<!-- 1ec7c48f1e6d496996143ab35a0f3535&#45;&gt;79891bf9430741d0829347b3186e5fe1 -->
<g id="edge20" class="edge">
<title>1ec7c48f1e6d496996143ab35a0f3535&#45;&gt;79891bf9430741d0829347b3186e5fe1</title>
<path fill="none" stroke="black" d="M1277.68,-975.75C1356.74,-975.75 1501.3,-975.75 1501.3,-975.75 1501.3,-975.75 1501.3,-705.86 1501.3,-705.86"/>
<polygon fill="black" stroke="black" points="1504.8,-705.86 1501.3,-695.86 1497.8,-705.86 1504.8,-705.86"/>
<text xml:space="preserve" text-anchor="middle" x="1361.58" y="-848.9" font-family="Sans-Serif" font-size="13.00" fill="#2d3436">Deploy</text>
</g>
<!-- dbe40a4587a4452781e940d20f7e97a7 -->
<g id="node12" class="node">
<title>dbe40a4587a4452781e940d20f7e97a7</title>
<image xlink:href="C:\Users\A450373\AppData\Local\Programs\Python\Python312\Lib\site-packages\resources/gcp/compute\run.png" width="100.8px" height="100.8px" preserveAspectRatio="xMinYMin meet" x="1177.05" y="-356.15"/>
<text xml:space="preserve" text-anchor="middle" x="1227.45" y="-243.6" font-family="Sans-Serif" font-size="13.00" fill="#2d3436">Cloud Run</text>
<text xml:space="preserve" text-anchor="middle" x="1227.45" y="-227.1" font-family="Sans-Serif" font-size="13.00" fill="#2d3436">(Business Rules)</text>
</g>
<!-- 72a3c12c40404099a72d414c4f498701&#45;&gt;dbe40a4587a4452781e940d20f7e97a7 -->
<g id="edge18" class="edge">
<title>72a3c12c40404099a72d414c4f498701&#45;&gt;dbe40a4587a4452781e940d20f7e97a7</title>
<path fill="none" stroke="#7b8894" d="M978.16,-320.45C978.16,-320.45 1165.66,-320.45 1165.66,-320.45"/>
<polygon fill="#7b8894" stroke="#7b8894" points="1165.66,-323.95 1175.66,-320.45 1165.66,-316.95 1165.66,-323.95"/>
</g>
<!-- 72a3c12c40404099a72d414c4f498701&#45;&gt;8622449f1fd145a0bc01b621a78580f4 -->
<!-- ceed0b30e69d46d7b977c6bc0692d6ae&#45;&gt;dbe40a4587a4452781e940d20f7e97a7 -->
<g id="edge19" class="edge">
<title>ceed0b30e69d46d7b977c6bc0692d6ae&#45;&gt;dbe40a4587a4452781e940d20f7e97a7</title>
<path fill="none" stroke="#7b8894" d="M945.3,-216.18C945.3,-224.78 945.3,-230.45 945.3,-230.45 945.3,-230.45 1165.82,-230.45 1165.82,-230.45"/>
<polygon fill="#7b8894" stroke="#7b8894" points="1165.82,-233.95 1175.82,-230.45 1165.82,-226.95 1165.82,-233.95"/>
</g>
<!-- dbe40a4587a4452781e940d20f7e97a7&#45;&gt;79891bf9430741d0829347b3186e5fe1 -->
<g id="edge22" class="edge">
<title>dbe40a4587a4452781e940d20f7e97a7&#45;&gt;79891bf9430741d0829347b3186e5fe1</title>
<path fill="none" stroke="black" d="M1277.58,-305.75C1352.33,-305.75 1484.3,-305.75 1484.3,-305.75 1484.3,-305.75 1484.3,-517.83 1484.3,-517.83"/>
<polygon fill="black" stroke="black" points="1480.8,-517.83 1484.3,-527.83 1487.8,-517.83 1480.8,-517.83"/>
<text xml:space="preserve" text-anchor="middle" x="1361.58" y="-543.9" font-family="Sans-Serif" font-size="13.00" fill="#2d3436">Request</text>
</g>
<!-- 8622449f1fd145a0bc01b621a78580f4&#45;&gt;79891bf9430741d0829347b3186e5fe1 -->
<!-- 8622449f1fd145a0bc01b621a78580f4&#45;&gt;79891bf9430741d0829347b3186e5fe1 -->
<g id="edge21" class="edge">
<title>8622449f1fd145a0bc01b621a78580f4&#45;&gt;79891bf9430741d0829347b3186e5fe1</title>
<path fill="none" stroke="black" stroke-dasharray="5,2" d="M1277.59,-578.02C1277.59,-578.02 1422.8,-578.02 1422.8,-578.02"/>
<polygon fill="black" stroke="black" points="1422.8,-581.52 1432.8,-578.02 1422.8,-574.52 1422.8,-581.52"/>
<text xml:space="preserve" text-anchor="middle" x="1361.58" y="-613.9" font-family="Sans-Serif" font-size="13.00" fill="#2d3436">Lookup</text>
</g>
<!-- 8622449f1fd145a0bc01b621a78580f4&#45;&gt;1f3d345e827a4c35b34d6b9d5eb0328b -->
<g id="edge26" class="edge">
<title>8622449f1fd145a0bc01b621a78580f4&#45;&gt;1f3d345e827a4c35b34d6b9d5eb0328b</title>
<path fill="none" stroke="darkgreen" stroke-dasharray="5,2" d="M1277.7,-482.95C1448.08,-482.95 1993.3,-482.95 1993.3,-482.95 1993.3,-482.95 1993.3,-623.45 1993.3,-623.45"/>
<polygon fill="darkgreen" stroke="darkgreen" points="1989.8,-623.45 1993.3,-633.45 1996.8,-623.45 1989.8,-623.45"/>
</g>
<!-- a25d86bb498e4688820ee1df81158d4b -->
<g id="node14" class="node">
<title>a25d86bb498e4688820ee1df81158d4b</title>
<image xlink:href="C:\Users\A450373\AppData\Local\Programs\Python\Python312\Lib\site-packages\resources/gcp/database\spanner.png" width="100.8px" height="100.8px" preserveAspectRatio="xMinYMin meet" x="1177.05" y="-772.15"/>
<text xml:space="preserve" text-anchor="middle" x="1227.45" y="-659.6" font-family="Sans-Serif" font-size="13.00" fill="#2d3436">Cloud Spanner</text>
<text xml:space="preserve" text-anchor="middle" x="1227.45" y="-643.1" font-family="Sans-Serif" font-size="13.00" fill="#2d3436">(Estado/Transacional)</text>
</g>
<!-- 84914eefb6ec4344ad8227f215e17d19 -->
<g id="node16" class="node">
<title>84914eefb6ec4344ad8227f215e17d19</title>
<image xlink:href="C:\Users\A450373\AppData\Local\Programs\Python\Python312\Lib\site-packages\resources/gcp/operations\monitoring.png" width="100.8px" height="100.8px" preserveAspectRatio="xMinYMin meet" x="1614.45" y="-662.15"/>
<text xml:space="preserve" text-anchor="middle" x="1664.85" y="-549.6" font-family="Sans-Serif" font-size="13.00" fill="#2d3436">Model Monitoring</text>
<text xml:space="preserve" text-anchor="middle" x="1664.85" y="-533.1" font-family="Sans-Serif" font-size="13.00" fill="#2d3436">(Métricas e Drift)</text>
</g>
<!-- 79891bf9430741d0829347b3186e5fe1&#45;&gt;84914eefb6ec4344ad8227f215e17d19 -->
<g id="edge23" class="edge">
<title>79891bf9430741d0829347b3186e5fe1&#45;&gt;84914eefb6ec4344ad8227f215e17d19</title>
<path fill="none" stroke="#7b8894" d="M1534.61,-611.75C1534.61,-611.75 1603.01,-611.75 1603.01,-611.75"/>
<polygon fill="#7b8894" stroke="#7b8894" points="1603.01,-615.25 1613.01,-611.75 1603.01,-608.25 1603.01,-615.25"/>
</g>
<!-- 79891bf9430741d0829347b3186e5fe1&#45;&gt;1f3d345e827a4c35b34d6b9d5eb0328b -->
<!-- d51fddf394b244e3a039195d0ae56c07 -->
<g id="node17" class="node">
<title>d51fddf394b244e3a039195d0ae56c07</title>
<image xlink:href="C:\Users\A450373\AppData\Local\Programs\Python\Python312\Lib\site-packages\resources/gcp/analytics\bigquery.png" width="100.8px" height="100.8px" preserveAspectRatio="xMinYMin meet" x="1774.25" y="-662.15"/>
<text xml:space="preserve" text-anchor="middle" x="1824.65" y="-549.6" font-family="Sans-Serif" font-size="13.00" fill="#2d3436">BigQuery</text>
<text xml:space="preserve" text-anchor="middle" x="1824.65" y="-533.1" font-family="Sans-Serif" font-size="13.00" fill="#2d3436">(Logs Operacionais)</text>
</g>
<!-- 84914eefb6ec4344ad8227f215e17d19&#45;&gt;d51fddf394b244e3a039195d0ae56c07 -->
<g id="edge24" class="edge">
<title>84914eefb6ec4344ad8227f215e17d19&#45;&gt;d51fddf394b244e3a039195d0ae56c07</title>
<path fill="none" stroke="#7b8894" d="M1714.97,-611.75C1714.97,-611.75 1762.92,-611.75 1762.92,-611.75"/>
<polygon fill="#7b8894" stroke="#7b8894" points="1762.92,-615.25 1772.92,-611.75 1762.92,-608.25 1762.92,-615.25"/>
</g>
<!-- d51fddf394b244e3a039195d0ae56c07&#45;&gt;1f3d345e827a4c35b34d6b9d5eb0328b -->
<g id="edge27" class="edge">
<title>d51fddf394b244e3a039195d0ae56c07&#45;&gt;1f3d345e827a4c35b34d6b9d5eb0328b</title>
<path fill="none" stroke="darkgreen" stroke-dasharray="5,2" d="M1874.76,-664.75C1874.76,-664.75 1931.46,-664.75 1931.46,-664.75"/>
<polygon fill="darkgreen" stroke="darkgreen" points="1931.46,-668.25 1941.46,-664.75 1931.46,-661.25 1931.46,-668.25"/>
</g>
</g>
</svg>
