<?xml version="1.0" encoding="UTF-8" standalone="no"?>
<!DOCTYPE svg PUBLIC "-//W3C//DTD SVG 1.1//EN"
 "http://www.w3.org/Graphics/SVG/1.1/DTD/svg11.dtd">
<!-- Generated by graphviz version 14.1.1 (20251213.1925)
 -->
<!-- Title: Plataforma MLOps SIPML &#45; Referência Gartner v3 Pages: 1 -->
<svg width="17538pt" height="11466pt"
 viewBox="0.00 0.00 17538.00 11466.00" xmlns="http://www.w3.org/2000/svg" xmlns:xlink="http://www.w3.org/1999/xlink">
<g id="graph0" class="graph" transform="scale(8.33333 8.33333) rotate(0) translate(21.6 1354.35)">
<title>Plataforma MLOps SIPML &#45; Referência Gartner v3</title>
<polygon fill="white" stroke="none" points="-21.6,21.6 -21.6,-1354.35 2082.9,-1354.35 2082.9,21.6 -21.6,21.6"/>
<text xml:space="preserve" text-anchor="middle" x="1030.65" y="-7.55" font-family="Arial" font-size="16.00" fill="#2d3436">Plataforma MLOps SIPML &#45; Referência Gartner v3</text>
<g id="clust1" class="cluster">
<title>cluster_Fontes Externas de Dados</title>
<path fill="#e5f5fd" stroke="#aeb6be" d="M12,-221.75C12,-221.75 186.5,-221.75 186.5,-221.75 192.5,-221.75 198.5,-227.75 198.5,-233.75 198.5,-233.75 198.5,-871.75 198.5,-871.75 198.5,-877.75 192.5,-883.75 186.5,-883.75 186.5,-883.75 12,-883.75 12,-883.75 6,-883.75 0,-877.75 0,-871.75 0,-871.75 0,-233.75 0,-233.75 0,-227.75 6,-221.75 12,-221.75"/>
<text xml:space="preserve" text-anchor="middle" x="76.25" y="-868.35" font-family="Sans-Serif" font-size="12.00" fill="#2d3436">Fontes Externas de Dados</text>
</g>
<g id="clust2" class="cluster">
<title>cluster_Dados Analíticos (P&amp;D)</title>
<path fill="#ebf3e7" stroke="#aeb6be" d="M41.75,-645.75C41.75,-645.75 156.75,-645.75 156.75,-645.75 162.75,-645.75 168.75,-651.75 168.75,-657.75 168.75,-657.75 168.75,-839.75 168.75,-839.75 168.75,-845.75 162.75,-851.75 156.75,-851.75 156.75,-851.75 41.75,-851.75 41.75,-851.75 35.75,-851.75 29.75,-845.75 29.75,-839.75 29.75,-839.75 29.75,-657.75 29.75,-657.75 29.75,-651.75 35.75,-645.75 41.75,-645.75"/>
<text xml:space="preserve" text-anchor="middle" x="99.25" y="-836.35" font-family="Sans-Serif" font-size="12.00" fill="#2d3436">Dados Analíticos (P&amp;D)</text>
</g>
<g id="clust3" class="cluster">
<title>cluster_Dados Operacionais (Produção)</title>
<path fill="#ebf3e7" stroke="#aeb6be" d="M20,-229.75C20,-229.75 178.5,-229.75 178.5,-229.75 184.5,-229.75 190.5,-235.75 190.5,-241.75 190.5,-241.75 190.5,-625.75 190.5,-625.75 190.5,-631.75 184.5,-637.75 178.5,-637.75 178.5,-637.75 20,-637.75 20,-637.75 14,-637.75 8,-631.75 8,-625.75 8,-625.75 8,-241.75 8,-241.75 8,-235.75 14,-229.75 20,-229.75"/>
<text xml:space="preserve" text-anchor="middle" x="99.25" y="-622.35" font-family="Sans-Serif" font-size="12.00" fill="#2d3436">Dados Operacionais (Produção)</text>
</g>
<g id="clust4" class="cluster">
<title>cluster_Spoke de Modelagem (Ciclo de Vida Analítico)</title>
<path fill="#e5f5fd" stroke="#aeb6be" d="M306.75,-876.75C306.75,-876.75 1297.58,-876.75 1297.58,-876.75 1303.58,-876.75 1309.58,-882.75 1309.58,-888.75 1309.58,-888.75 1309.58,-1312.75 1309.58,-1312.75 1309.58,-1318.75 1303.58,-1324.75 1297.58,-1324.75 1297.58,-1324.75 306.75,-1324.75 306.75,-1324.75 300.75,-1324.75 294.75,-1318.75 294.75,-1312.75 294.75,-1312.75 294.75,-888.75 294.75,-888.75 294.75,-882.75 300.75,-876.75 306.75,-876.75"/>
<text xml:space="preserve" text-anchor="middle" x="424.25" y="-1309.35" font-family="Sans-Serif" font-size="12.00" fill="#2d3436">Spoke de Modelagem (Ciclo de Vida Analítico)</text>
</g>
<g id="clust5" class="cluster">
<title>cluster_M1: Sandbox e Ingestão</title>
<path fill="#ebf3e7" stroke="#aeb6be" d="M314.75,-884.75C314.75,-884.75 567.35,-884.75 567.35,-884.75 573.35,-884.75 579.35,-890.75 579.35,-896.75 579.35,-896.75 579.35,-1280.75 579.35,-1280.75 579.35,-1286.75 573.35,-1292.75 567.35,-1292.75 567.35,-1292.75 314.75,-1292.75 314.75,-1292.75 308.75,-1292.75 302.75,-1286.75 302.75,-1280.75 302.75,-1280.75 302.75,-896.75 302.75,-896.75 302.75,-890.75 308.75,-884.75 314.75,-884.75"/>
<text xml:space="preserve" text-anchor="middle" x="375.25" y="-1277.35" font-family="Sans-Serif" font-size="12.00" fill="#2d3436">M1: Sandbox e Ingestão</text>
</g>
<g id="clust6" class="cluster">
<title>cluster_M2: Orquestração MLOps (Vertex AI Pipelines)</title>
<path fill="#ebf3e7" stroke="#aeb6be" d="M721.85,-884.75C721.85,-884.75 974.45,-884.75 974.45,-884.75 980.45,-884.75 986.45,-890.75 986.45,-896.75 986.45,-896.75 986.45,-1078.75 986.45,-1078.75 986.45,-1084.75 980.45,-1090.75 974.45,-1090.75 974.45,-1090.75 721.85,-1090.75 721.85,-1090.75 715.85,-1090.75 709.85,-1084.75 709.85,-1078.75 709.85,-1078.75 709.85,-896.75 709.85,-896.75 709.85,-890.75 715.85,-884.75 721.85,-884.75"/>
<text xml:space="preserve" text-anchor="middle" x="840.1" y="-1075.35" font-family="Sans-Serif" font-size="12.00" fill="#2d3436">M2: Orquestração MLOps (Vertex AI Pipelines)</text>
</g>
<g id="clust7" class="cluster">
<title>cluster_M3: Registro de Modelos</title>
<path fill="#ebf3e7" stroke="#aeb6be" d="M1166.33,-884.75C1166.33,-884.75 1289.58,-884.75 1289.58,-884.75 1295.58,-884.75 1301.58,-890.75 1301.58,-896.75 1301.58,-896.75 1301.58,-1078.75 1301.58,-1078.75 1301.58,-1084.75 1295.58,-1090.75 1289.58,-1090.75 1289.58,-1090.75 1166.33,-1090.75 1166.33,-1090.75 1160.33,-1090.75 1154.33,-1084.75 1154.33,-1078.75 1154.33,-1078.75 1154.33,-896.75 1154.33,-896.75 1154.33,-890.75 1160.33,-884.75 1166.33,-884.75"/>
<text xml:space="preserve" text-anchor="middle" x="1227.95" y="-1075.35" font-family="Sans-Serif" font-size="12.00" fill="#2d3436">M3: Registro de Modelos</text>
</g>
<g id="clust8" class="cluster">
<title>cluster_Spoke de Inferência (Ciclo de Vida Operacional)</title>
<path fill="#e5f5fd" stroke="#aeb6be" d="M873.65,-34.75C873.65,-34.75 1879.05,-34.75 1879.05,-34.75 1885.05,-34.75 1891.05,-40.75 1891.05,-46.75 1891.05,-46.75 1891.05,-856.75 1891.05,-856.75 1891.05,-862.75 1885.05,-868.75 1879.05,-868.75 1879.05,-868.75 873.65,-868.75 873.65,-868.75 867.65,-868.75 861.65,-862.75 861.65,-856.75 861.65,-856.75 861.65,-46.75 861.65,-46.75 861.65,-40.75 867.65,-34.75 873.65,-34.75"/>
<text xml:space="preserve" text-anchor="middle" x="996.03" y="-853.35" font-family="Sans-Serif" font-size="12.00" fill="#2d3436">Spoke de Inferência (Ciclo de Vida Operacional)</text>
</g>
<g id="clust9" class="cluster">
<title>cluster_I1: Ingestão e Entrada</title>
<path fill="#ebf3e7" stroke="#aeb6be" d="M881.65,-42.75C881.65,-42.75 1273.85,-42.75 1273.85,-42.75 1279.85,-42.75 1285.85,-48.75 1285.85,-54.75 1285.85,-54.75 1285.85,-408.75 1285.85,-408.75 1285.85,-414.75 1279.85,-420.75 1273.85,-420.75 1273.85,-420.75 881.65,-420.75 881.65,-420.75 875.65,-420.75 869.65,-414.75 869.65,-408.75 869.65,-408.75 869.65,-54.75 869.65,-54.75 869.65,-48.75 875.65,-42.75 881.65,-42.75"/>
<text xml:space="preserve" text-anchor="middle" x="937.28" y="-405.35" font-family="Sans-Serif" font-size="12.00" fill="#2d3436">I1: Ingestão e Entrada</text>
</g>
<g id="clust10" class="cluster">
<title>cluster_I2: Armazenamento e Features</title>
<path fill="#ebf3e7" stroke="#aeb6be" d="M1150.95,-428.75C1150.95,-428.75 1304.95,-428.75 1304.95,-428.75 1310.95,-428.75 1316.95,-434.75 1316.95,-440.75 1316.95,-440.75 1316.95,-824.75 1316.95,-824.75 1316.95,-830.75 1310.95,-836.75 1304.95,-836.75 1304.95,-836.75 1150.95,-836.75 1150.95,-836.75 1144.95,-836.75 1138.95,-830.75 1138.95,-824.75 1138.95,-824.75 1138.95,-440.75 1138.95,-440.75 1138.95,-434.75 1144.95,-428.75 1150.95,-428.75"/>
<text xml:space="preserve" text-anchor="middle" x="1227.95" y="-821.35" font-family="Sans-Serif" font-size="12.00" fill="#2d3436">I2: Armazenamento e Features</text>
</g>
<g id="clust11" class="cluster">
<title>cluster_I3: Serving e Inferência</title>
<path fill="#ebf3e7" stroke="#aeb6be" d="M1426.2,-520.75C1426.2,-520.75 1543.45,-520.75 1543.45,-520.75 1549.45,-520.75 1555.45,-526.75 1555.45,-532.75 1555.45,-532.75 1555.45,-714.75 1555.45,-714.75 1555.45,-720.75 1549.45,-726.75 1543.45,-726.75 1543.45,-726.75 1426.2,-726.75 1426.2,-726.75 1420.2,-726.75 1414.2,-720.75 1414.2,-714.75 1414.2,-714.75 1414.2,-532.75 1414.2,-532.75 1414.2,-526.75 1420.2,-520.75 1426.2,-520.75"/>
<text xml:space="preserve" text-anchor="middle" x="1484.83" y="-711.35" font-family="Sans-Serif" font-size="12.00" fill="#2d3436">I3: Serving e Inferência</text>
</g>
<g id="clust12" class="cluster">
<title>cluster_I4: Observabilidade</title>
<path fill="#ebf3e7" stroke="#aeb6be" d="M1618.45,-520.75C1618.45,-520.75 1871.05,-520.75 1871.05,-520.75 1877.05,-520.75 1883.05,-526.75 1883.05,-532.75 1883.05,-532.75 1883.05,-714.75 1883.05,-714.75 1883.05,-720.75 1877.05,-726.75 1871.05,-726.75 1871.05,-726.75 1618.45,-726.75 1618.45,-726.75 1612.45,-726.75 1606.45,-720.75 1606.45,-714.75 1606.45,-714.75 1606.45,-532.75 1606.45,-532.75 1606.45,-526.75 1612.45,-520.75 1618.45,-520.75"/>
<text xml:space="preserve" text-anchor="middle" x="1666.2" y="-711.35" font-family="Sans-Serif" font-size="12.00" fill="#2d3436">I4: Observabilidade</text>
</g>
<g id="clust13" class="cluster">
<title>cluster_Governança Enterprise</title>
<path fill="#e5f5fd" stroke="#aeb6be" d="M1938.05,-626.75C1938.05,-626.75 2049.3,-626.75 2049.3,-626.75 2055.3,-626.75 2061.3,-632.75 2061.3,-638.75 2061.3,-638.75 2061.3,-820.75 2061.3,-820.75 2061.3,-826.75 2055.3,-832.75 2049.3,-832.75 2049.3,-832.75 1938.05,-832.75 1938.05,-832.75 1932.05,-832.75 1926.05,-826.75 1926.05,-820.75 1926.05,-820.75 1926.05,-638.75 1926.05,-638.75 1926.05,-632.75 1932.05,-626.75 1938.05,-626.75"/>
<text xml:space="preserve" text-anchor="middle" x="1993.68" y="-817.35" font-family="Sans-Serif" font-size="12.00" fill="#2d3436">Governança Enterprise</text>
</g>
<!-- 5d1f8f9faf5541cabc772662368a1f0f -->
<g id="node1" class="node">
<title>5d1f8f9faf5541cabc772662368a1f0f</title>
<image xlink:href="C:\Users\A450373\AppData\Local\Programs\Python\Python312\Lib\site-packages\resources/generic/database\sql.png" width="100.8px" height="100.8px" preserveAspectRatio="xMinYMin meet" x="48.35" y="-787.15"/>
<text xml:space="preserve" text-anchor="middle" x="98.75" y="-674.6" font-family="Sans-Serif" font-size="13.00" fill="#2d3436">Azure Databricks</text>
<text xml:space="preserve" text-anchor="middle" x="98.75" y="-658.1" font-family="Sans-Serif" font-size="13.00" fill="#2d3436">(Delta Lake)</text>
</g>
<!-- a1ec0a4e8e4243c7b1beb3e884e965fa -->
<g id="node4" class="node">
<title>a1ec0a4e8e4243c7b1beb3e884e965fa</title>
<image xlink:href="C:\Users\A450373\AppData\Local\Programs\Python\Python312\Lib\site-packages\resources/gcp/analytics\bigquery.png" width="100.8px" height="100.8px" preserveAspectRatio="xMinYMin meet" x="310.75" y="-1228.15"/>
<text xml:space="preserve" text-anchor="middle" x="361.15" y="-1115.6" font-family="Sans-Serif" font-size="13.00" fill="#2d3436">BigQuery</text>
<text xml:space="preserve" text-anchor="middle" x="361.15" y="-1099.1" font-family="Sans-Serif" font-size="13.00" fill="#2d3436">(Sandbox)</text>
</g>
<!-- 5d1f8f9faf5541cabc772662368a1f0f&#45;&gt;a1ec0a4e8e4243c7b1beb3e884e965fa -->
<!-- 5d1f8f9faf5541cabc772662368a1f0f&#45;&gt;a1ec0a4e8e4243c7b1beb3e884e965fa -->
<g id="edge8" class="edge">
<title>5d1f8f9faf5541cabc772662368a1f0f&#45;&gt;a1ec0a4e8e4243c7b1beb3e884e965fa</title>
<path fill="none" stroke="blue" d="M115.3,-819.41C115.3,-940.05 115.3,-1150.15 115.3,-1150.15 115.3,-1150.15 299.29,-1150.15 299.29,-1150.15"/>
<polygon fill="blue" stroke="blue" points="299.29,-1153.65 309.29,-1150.15 299.29,-1146.65 299.29,-1153.65"/>
<text xml:space="preserve" text-anchor="middle" x="250.62" y="-1085.9" font-family="Sans-Serif" font-size="13.00" fill="#2d3436">Carga P&amp;D</text>
</g>
<!-- dfa2d97d38714518940a17a91d2ba597 -->
<g id="node2" class="node">
<title>dfa2d97d38714518940a17a91d2ba597</title>
<image xlink:href="C:\Users\A450373\AppData\Local\Programs\Python\Python312\Lib\site-packages\resources/generic/database\sql.png" width="100.8px" height="100.8px" preserveAspectRatio="xMinYMin meet" x="48.35" y="-371.15"/>
<text xml:space="preserve" text-anchor="middle" x="98.75" y="-258.6" font-family="Sans-Serif" font-size="13.00" fill="#2d3436">SIARA / On&#45;Premises</text>
<text xml:space="preserve" text-anchor="middle" x="98.75" y="-242.1" font-family="Sans-Serif" font-size="13.00" fill="#2d3436">(IBM Db2 / Files)</text>
</g>
<!-- 017f0122637944af8cf5c11f105a882a -->
<g id="node10" class="node">
<title>017f0122637944af8cf5c11f105a882a</title>
<image xlink:href="C:\Users\A450373\AppData\Local\Programs\Python\Python312\Lib\site-packages\resources/gcp/api\api-gateway.png" width="100.8px" height="100.8px" preserveAspectRatio="xMinYMin meet" x="877.65" y="-371.15"/>
<text xml:space="preserve" text-anchor="middle" x="928.05" y="-256.5" font-family="Sans-Serif" font-size="13.00" fill="#2d3436">Cloud API Gateway</text>
</g>
<!-- dfa2d97d38714518940a17a91d2ba597&#45;&gt;017f0122637944af8cf5c11f105a882a -->
<!-- dfa2d97d38714518940a17a91d2ba597&#45;&gt;017f0122637944af8cf5c11f105a882a -->
<g id="edge15" class="edge">
<title>dfa2d97d38714518940a17a91d2ba597&#45;&gt;017f0122637944af8cf5c11f105a882a</title>
<path fill="none" stroke="#7b8894" d="M149.07,-297.95C149.07,-297.95 866.25,-297.95 866.25,-297.95"/>
<polygon fill="#7b8894" stroke="#7b8894" points="866.25,-301.45 876.25,-297.95 866.25,-294.45 866.25,-301.45"/>
</g>
<!-- 014d5527ce0943bdadd198e7ef0095e3 -->
<g id="node11" class="node">
<title>014d5527ce0943bdadd198e7ef0095e3</title>
<image xlink:href="C:\Users\A450373\AppData\Local\Programs\Python\Python312\Lib\site-packages\resources/gcp/analytics\pubsub.png" width="100.8px" height="100.8px" preserveAspectRatio="xMinYMin meet" x="877.65" y="-184.15"/>
<text xml:space="preserve" text-anchor="middle" x="928.05" y="-71.6" font-family="Sans-Serif" font-size="13.00" fill="#2d3436">Pub/Sub</text>
<text xml:space="preserve" text-anchor="middle" x="928.05" y="-55.1" font-family="Sans-Serif" font-size="13.00" fill="#2d3436">(Streaming)</text>
</g>
<!-- dfa2d97d38714518940a17a91d2ba597&#45;&gt;014d5527ce0943bdadd198e7ef0095e3 -->
<g id="edge17" class="edge">
<title>dfa2d97d38714518940a17a91d2ba597&#45;&gt;014d5527ce0943bdadd198e7ef0095e3</title>
<path fill="none" stroke="#7b8894" d="M148.97,-245.15C326.12,-245.15 911.3,-245.15 911.3,-245.15 911.3,-245.15 911.3,-227.98 911.3,-227.98"/>
<polygon fill="#7b8894" stroke="#7b8894" points="914.8,-227.98 911.3,-217.98 907.8,-227.98 914.8,-227.98"/>
</g>
<!-- ddfa9e3e3c884ff5af69cd411ccc60db -->
<g id="node3" class="node">
<title>ddfa9e3e3c884ff5af69cd411ccc60db</title>
<image xlink:href="C:\Users\A450373\AppData\Local\Programs\Python\Python312\Lib\site-packages\resources/generic/storage\storage.png" width="100.8px" height="100.8px" preserveAspectRatio="xMinYMin meet" x="48.35" y="-573.15"/>
<text xml:space="preserve" text-anchor="middle" x="98.75" y="-460.6" font-family="Sans-Serif" font-size="13.00" fill="#2d3436">APIs Externas</text>
<text xml:space="preserve" text-anchor="middle" x="98.75" y="-444.1" font-family="Sans-Serif" font-size="13.00" fill="#2d3436">(Bacen / Serasa)</text>
</g>
<!-- ddfa9e3e3c884ff5af69cd411ccc60db&#45;&gt;017f0122637944af8cf5c11f105a882a -->
<g id="edge16" class="edge">
<title>ddfa9e3e3c884ff5af69cd411ccc60db&#45;&gt;017f0122637944af8cf5c11f105a882a</title>
<path fill="none" stroke="#7b8894" d="M148.97,-480.6C326.12,-480.6 911.3,-480.6 911.3,-480.6 911.3,-480.6 911.3,-400.52 911.3,-400.52"/>
<polygon fill="#7b8894" stroke="#7b8894" points="914.8,-400.52 911.3,-390.52 907.8,-400.52 914.8,-400.52"/>
</g>
<!-- 054aa59d84c545859a258e3db74c29ab -->
<g id="node6" class="node">
<title>054aa59d84c545859a258e3db74c29ab</title>
<image xlink:href="C:\Users\A450373\AppData\Local\Programs\Python\Python312\Lib\site-packages\resources/gcp/ml\ai-platform.png" width="100.8px" height="100.8px" preserveAspectRatio="xMinYMin meet" x="470.55" y="-1026.15"/>
<text xml:space="preserve" text-anchor="middle" x="520.95" y="-913.6" font-family="Sans-Serif" font-size="13.00" fill="#2d3436">Vertex AI Workbench</text>
<text xml:space="preserve" text-anchor="middle" x="520.95" y="-897.1" font-family="Sans-Serif" font-size="13.00" fill="#2d3436">(Notebooks)</text>
</g>
<!-- a1ec0a4e8e4243c7b1beb3e884e965fa&#45;&gt;054aa59d84c545859a258e3db74c29ab -->
<g id="edge10" class="edge">
<title>a1ec0a4e8e4243c7b1beb3e884e965fa&#45;&gt;054aa59d84c545859a258e3db74c29ab</title>
<path fill="none" stroke="#7b8894" d="M411.38,-1136.35C458.35,-1136.35 521.3,-1136.35 521.3,-1136.35 521.3,-1136.35 521.3,-1069.92 521.3,-1069.92"/>
<polygon fill="#7b8894" stroke="#7b8894" points="524.8,-1069.92 521.3,-1059.92 517.8,-1069.92 524.8,-1069.92"/>
</g>
<!-- 8442efc09cc0426c8f0b28a31ab30559 -->
<g id="node7" class="node">
<title>8442efc09cc0426c8f0b28a31ab30559</title>
<image xlink:href="C:\Users\A450373\AppData\Local\Programs\Python\Python312\Lib\site-packages\resources/gcp/analytics\dataflow.png" width="100.8px" height="100.8px" preserveAspectRatio="xMinYMin meet" x="717.85" y="-1026.15"/>
<text xml:space="preserve" text-anchor="middle" x="768.25" y="-913.6" font-family="Sans-Serif" font-size="13.00" fill="#2d3436">Dataflow / Dataproc</text>
<text xml:space="preserve" text-anchor="middle" x="768.25" y="-897.1" font-family="Sans-Serif" font-size="13.00" fill="#2d3436">(Feature Engineering)</text>
</g>
<!-- a1ec0a4e8e4243c7b1beb3e884e965fa&#45;&gt;8442efc09cc0426c8f0b28a31ab30559 -->
<!-- 4f185eed72ec48eba094a1cf7d0362c0 -->
<g id="node18" class="node">
<title>4f185eed72ec48eba094a1cf7d0362c0</title>
<image xlink:href="C:\Users\A450373\AppData\Local\Programs\Python\Python312\Lib\site-packages\resources/gcp/analytics\dataprep.png" width="100.8px" height="100.8px" preserveAspectRatio="xMinYMin meet" x="1942.78" y="-768.15"/>
<text xml:space="preserve" text-anchor="middle" x="1993.18" y="-655.6" font-family="Sans-Serif" font-size="13.00" fill="#2d3436">Dataplex (Data Mesh)</text>
<text xml:space="preserve" text-anchor="middle" x="1993.18" y="-639.1" font-family="Sans-Serif" font-size="13.00" fill="#2d3436">Lineage &amp; Qualidade</text>
</g>
<!-- a1ec0a4e8e4243c7b1beb3e884e965fa&#45;&gt;4f185eed72ec48eba094a1cf7d0362c0 -->
<g id="edge25" class="edge">
<title>a1ec0a4e8e4243c7b1beb3e884e965fa&#45;&gt;4f185eed72ec48eba094a1cf7d0362c0</title>
<path fill="none" stroke="darkgreen" stroke-dasharray="5,2" d="M411.34,-1219.15C685.85,-1219.15 1993.3,-1219.15 1993.3,-1219.15 1993.3,-1219.15 1993.3,-812.06 1993.3,-812.06"/>
<polygon fill="darkgreen" stroke="darkgreen" points="1996.8,-812.06 1993.3,-802.06 1989.8,-812.06 1996.8,-812.06"/>
</g>
<!-- 45e84b704b594eb5acdb6c9a5167baaa -->
<g id="node5" class="node">
<title>45e84b704b594eb5acdb6c9a5167baaa</title>
<image xlink:href="C:\Users\A450373\AppData\Local\Programs\Python\Python312\Lib\site-packages\resources/gcp/storage\storage.png" width="100.8px" height="100.8px" preserveAspectRatio="xMinYMin meet" x="310.75" y="-1026.15"/>
<text xml:space="preserve" text-anchor="middle" x="361.15" y="-913.6" font-family="Sans-Serif" font-size="13.00" fill="#2d3436">Cloud Storage</text>
<text xml:space="preserve" text-anchor="middle" x="361.15" y="-897.1" font-family="Sans-Serif" font-size="13.00" fill="#2d3436">(Raw Data)</text>
</g>
<!-- 45e84b704b594eb5acdb6c9a5167baaa&#45;&gt;054aa59d84c545859a258e3db74c29ab -->
<g id="edge9" class="edge">
<title>45e84b704b594eb5acdb6c9a5167baaa&#45;&gt;054aa59d84c545859a258e3db74c29ab</title>
<path fill="none" stroke="#7b8894" d="M411.27,-975.75C411.27,-975.75 459.22,-975.75 459.22,-975.75"/>
<polygon fill="#7b8894" stroke="#7b8894" points="459.22,-979.25 469.22,-975.75 459.22,-972.25 459.22,-979.25"/>
</g>
<!-- 054aa59d84c545859a258e3db74c29ab&#45;&gt;8442efc09cc0426c8f0b28a31ab30559 -->
<g id="edge11" class="edge">
<title>054aa59d84c545859a258e3db74c29ab&#45;&gt;8442efc09cc0426c8f0b28a31ab30559</title>
<path fill="none" stroke="blue" d="M571.29,-975.75C571.29,-975.75 706.46,-975.75 706.46,-975.75"/>
<polygon fill="blue" stroke="blue" points="706.46,-979.25 716.46,-975.75 706.46,-972.25 706.46,-979.25"/>
<text xml:space="preserve" text-anchor="middle" x="644.6" y="-979.9" font-family="Sans-Serif" font-size="13.00" fill="#2d3436">Trigger Pipeline</text>
</g>
<!-- e03382b4aacb431eb6996f9239878f7e -->
<g id="node8" class="node">
<title>e03382b4aacb431eb6996f9239878f7e</title>
<image xlink:href="C:\Users\A450373\AppData\Local\Programs\Python\Python312\Lib\site-packages\resources/gcp/ml\ai-platform.png" width="100.8px" height="100.8px" preserveAspectRatio="xMinYMin meet" x="877.65" y="-1026.15"/>
<text xml:space="preserve" text-anchor="middle" x="928.05" y="-913.6" font-family="Sans-Serif" font-size="13.00" fill="#2d3436">Custom Training Jobs</text>
<text xml:space="preserve" text-anchor="middle" x="928.05" y="-897.1" font-family="Sans-Serif" font-size="13.00" fill="#2d3436">(Experiments &amp; Tuning)</text>
</g>
<!-- 8442efc09cc0426c8f0b28a31ab30559&#45;&gt;e03382b4aacb431eb6996f9239878f7e -->
<g id="edge12" class="edge">
<title>8442efc09cc0426c8f0b28a31ab30559&#45;&gt;e03382b4aacb431eb6996f9239878f7e</title>
<path fill="none" stroke="#7b8894" d="M818.37,-975.75C818.37,-975.75 866.32,-975.75 866.32,-975.75"/>
<polygon fill="#7b8894" stroke="#7b8894" points="866.32,-979.25 876.32,-975.75 866.32,-972.25 866.32,-979.25"/>
</g>
<!-- 4d9df80b157d4a4086f122ea77a8b48b -->
<g id="node9" class="node">
<title>4d9df80b157d4a4086f122ea77a8b48b</title>
<image xlink:href="C:\Users\A450373\AppData\Local\Programs\Python\Python312\Lib\site-packages\resources/gcp/ml\ai-platform.png" width="100.8px" height="100.8px" preserveAspectRatio="xMinYMin meet" x="1177.05" y="-1026.15"/>
<text xml:space="preserve" text-anchor="middle" x="1227.45" y="-913.6" font-family="Sans-Serif" font-size="13.00" fill="#2d3436">Vertex AI</text>
<text xml:space="preserve" text-anchor="middle" x="1227.45" y="-897.1" font-family="Sans-Serif" font-size="13.00" fill="#2d3436">Model Registry</text>
</g>
<!-- 8442efc09cc0426c8f0b28a31ab30559&#45;&gt;4d9df80b157d4a4086f122ea77a8b48b -->
<!-- f978c970a92346afb2842ff66c5ebcff -->
<g id="node13" class="node">
<title>f978c970a92346afb2842ff66c5ebcff</title>
<image xlink:href="C:\Users\A450373\AppData\Local\Programs\Python\Python312\Lib\site-packages\resources/gcp/analytics\bigquery.png" width="100.8px" height="100.8px" preserveAspectRatio="xMinYMin meet" x="1177.05" y="-570.15"/>
<text xml:space="preserve" text-anchor="middle" x="1227.45" y="-457.6" font-family="Sans-Serif" font-size="13.00" fill="#2d3436">BigQuery</text>
<text xml:space="preserve" text-anchor="middle" x="1227.45" y="-441.1" font-family="Sans-Serif" font-size="13.00" fill="#2d3436">(Repositório de Features)</text>
</g>
<!-- 8442efc09cc0426c8f0b28a31ab30559&#45;&gt;f978c970a92346afb2842ff66c5ebcff -->
<g id="edge14" class="edge">
<title>8442efc09cc0426c8f0b28a31ab30559&#45;&gt;f978c970a92346afb2842ff66c5ebcff</title>
<path fill="none" stroke="darkblue" stroke-dasharray="5,2" d="M768.3,-893C768.3,-772.22 768.3,-561.9 768.3,-561.9 768.3,-561.9 1165.93,-561.9 1165.93,-561.9"/>
<polygon fill="darkblue" stroke="darkblue" points="1165.93,-565.4 1175.93,-561.9 1165.93,-558.4 1165.93,-565.4"/>
<text xml:space="preserve" text-anchor="middle" x="928.05" y="-695.9" font-family="Sans-Serif" font-size="13.00" fill="#2d3436">Publica Features</text>
</g>
<!-- e03382b4aacb431eb6996f9239878f7e&#45;&gt;4d9df80b157d4a4086f122ea77a8b48b -->
<g id="edge13" class="edge">
<title>e03382b4aacb431eb6996f9239878f7e&#45;&gt;4d9df80b157d4a4086f122ea77a8b48b</title>
<path fill="none" stroke="blue" d="M978.16,-975.75C978.16,-975.75 1165.66,-975.75 1165.66,-975.75"/>
<polygon fill="blue" stroke="blue" points="1165.66,-979.25 1175.66,-975.75 1165.66,-972.25 1165.66,-979.25"/>
<text xml:space="preserve" text-anchor="middle" x="1054.7" y="-979.9" font-family="Sans-Serif" font-size="13.00" fill="#2d3436">Promove Modelo</text>
</g>
<!-- 5eab555fd977490d871f43f44a085cc4 -->
<g id="node15" class="node">
<title>5eab555fd977490d871f43f44a085cc4</title>
<image xlink:href="C:\Users\A450373\AppData\Local\Programs\Python\Python312\Lib\site-packages\resources/gcp/ml\ai-platform.png" width="100.8px" height="100.8px" preserveAspectRatio="xMinYMin meet" x="1433.93" y="-662.15"/>
<text xml:space="preserve" text-anchor="middle" x="1484.33" y="-549.6" font-family="Sans-Serif" font-size="13.00" fill="#2d3436">Vertex AI</text>
<text xml:space="preserve" text-anchor="middle" x="1484.33" y="-533.1" font-family="Sans-Serif" font-size="13.00" fill="#2d3436">Endpoint de Inferência</text>
</g>
<!-- 4d9df80b157d4a4086f122ea77a8b48b&#45;&gt;5eab555fd977490d871f43f44a085cc4 -->
<g id="edge20" class="edge">
<title>4d9df80b157d4a4086f122ea77a8b48b&#45;&gt;5eab555fd977490d871f43f44a085cc4</title>
<path fill="none" stroke="black" d="M1277.68,-975.75C1356.74,-975.75 1501.3,-975.75 1501.3,-975.75 1501.3,-975.75 1501.3,-705.86 1501.3,-705.86"/>
<polygon fill="black" stroke="black" points="1504.8,-705.86 1501.3,-695.86 1497.8,-705.86 1504.8,-705.86"/>
<text xml:space="preserve" text-anchor="middle" x="1361.58" y="-802.9" font-family="Sans-Serif" font-size="13.00" fill="#2d3436">Deploy</text>
</g>
<!-- b722c995c40d4c39a4ef69fa61a1d8d6 -->
<g id="node12" class="node">
<title>b722c995c40d4c39a4ef69fa61a1d8d6</title>
<image xlink:href="C:\Users\A450373\AppData\Local\Programs\Python\Python312\Lib\site-packages\resources/gcp/compute\run.png" width="100.8px" height="100.8px" preserveAspectRatio="xMinYMin meet" x="1177.05" y="-356.15"/>
<text xml:space="preserve" text-anchor="middle" x="1227.45" y="-243.6" font-family="Sans-Serif" font-size="13.00" fill="#2d3436">Cloud Run</text>
<text xml:space="preserve" text-anchor="middle" x="1227.45" y="-227.1" font-family="Sans-Serif" font-size="13.00" fill="#2d3436">(Business Rules)</text>
</g>
<!-- 017f0122637944af8cf5c11f105a882a&#45;&gt;b722c995c40d4c39a4ef69fa61a1d8d6 -->
<g id="edge18" class="edge">
<title>017f0122637944af8cf5c11f105a882a&#45;&gt;b722c995c40d4c39a4ef69fa61a1d8d6</title>
<path fill="none" stroke="#7b8894" d="M978.16,-320.45C978.16,-320.45 1165.66,-320.45 1165.66,-320.45"/>
<polygon fill="#7b8894" stroke="#7b8894" points="1165.66,-323.95 1175.66,-320.45 1165.66,-316.95 1165.66,-323.95"/>
</g>
<!-- 017f0122637944af8cf5c11f105a882a&#45;&gt;f978c970a92346afb2842ff66c5ebcff -->
<!-- 014d5527ce0943bdadd198e7ef0095e3&#45;&gt;b722c995c40d4c39a4ef69fa61a1d8d6 -->
<g id="edge19" class="edge">
<title>014d5527ce0943bdadd198e7ef0095e3&#45;&gt;b722c995c40d4c39a4ef69fa61a1d8d6</title>
<path fill="none" stroke="#7b8894" d="M945.3,-216.18C945.3,-224.78 945.3,-230.45 945.3,-230.45 945.3,-230.45 1165.82,-230.45 1165.82,-230.45"/>
<polygon fill="#7b8894" stroke="#7b8894" points="1165.82,-233.95 1175.82,-230.45 1165.82,-226.95 1165.82,-233.95"/>
</g>
<!-- b722c995c40d4c39a4ef69fa61a1d8d6&#45;&gt;5eab555fd977490d871f43f44a085cc4 -->
<g id="edge22" class="edge">
<title>b722c995c40d4c39a4ef69fa61a1d8d6&#45;&gt;5eab555fd977490d871f43f44a085cc4</title>
<path fill="none" stroke="black" d="M1277.58,-305.75C1352.33,-305.75 1484.3,-305.75 1484.3,-305.75 1484.3,-305.75 1484.3,-517.83 1484.3,-517.83"/>
<polygon fill="black" stroke="black" points="1480.8,-517.83 1484.3,-527.83 1487.8,-517.83 1480.8,-517.83"/>
<text xml:space="preserve" text-anchor="middle" x="1361.58" y="-543.9" font-family="Sans-Serif" font-size="13.00" fill="#2d3436">Request</text>
</g>
<!-- f978c970a92346afb2842ff66c5ebcff&#45;&gt;5eab555fd977490d871f43f44a085cc4 -->
<!-- f978c970a92346afb2842ff66c5ebcff&#45;&gt;5eab555fd977490d871f43f44a085cc4 -->
<g id="edge21" class="edge">
<title>f978c970a92346afb2842ff66c5ebcff&#45;&gt;5eab555fd977490d871f43f44a085cc4</title>
<path fill="none" stroke="black" stroke-dasharray="5,2" d="M1277.59,-553.48C1277.59,-553.48 1422.8,-553.48 1422.8,-553.48"/>
<polygon fill="black" stroke="black" points="1422.8,-556.98 1432.8,-553.48 1422.8,-549.98 1422.8,-556.98"/>
<text xml:space="preserve" text-anchor="middle" x="1361.58" y="-613.9" font-family="Sans-Serif" font-size="13.00" fill="#2d3436">Lookup</text>
</g>
<!-- f978c970a92346afb2842ff66c5ebcff&#45;&gt;4f185eed72ec48eba094a1cf7d0362c0 -->
<g id="edge26" class="edge">
<title>f978c970a92346afb2842ff66c5ebcff&#45;&gt;4f185eed72ec48eba094a1cf7d0362c0</title>
<path fill="none" stroke="darkgreen" stroke-dasharray="5,2" d="M1277.7,-482.95C1448.08,-482.95 1993.3,-482.95 1993.3,-482.95 1993.3,-482.95 1993.3,-623.45 1993.3,-623.45"/>
<polygon fill="darkgreen" stroke="darkgreen" points="1989.8,-623.45 1993.3,-633.45 1996.8,-623.45 1989.8,-623.45"/>
</g>
<!-- 6a32d5d3f8194b0cba64abe2f26881a0 -->
<g id="node14" class="node">
<title>6a32d5d3f8194b0cba64abe2f26881a0</title>
<image xlink:href="C:\Users\A450373\AppData\Local\Programs\Python\Python312\Lib\site-packages\resources/gcp/database\spanner.png" width="100.8px" height="100.8px" preserveAspectRatio="xMinYMin meet" x="1177.05" y="-772.15"/>
<text xml:space="preserve" text-anchor="middle" x="1227.45" y="-659.6" font-family="Sans-Serif" font-size="13.00" fill="#2d3436">Cloud Spanner</text>
<text xml:space="preserve" text-anchor="middle" x="1227.45" y="-643.1" font-family="Sans-Serif" font-size="13.00" fill="#2d3436">(Estado/Transacional)</text>
</g>
<!-- 6e04bd569a784db7bb55f5e4be21fd9d -->
<g id="node16" class="node">
<title>6e04bd569a784db7bb55f5e4be21fd9d</title>
<image xlink:href="C:\Users\A450373\AppData\Local\Programs\Python\Python312\Lib\site-packages\resources/gcp/operations\monitoring.png" width="100.8px" height="100.8px" preserveAspectRatio="xMinYMin meet" x="1614.45" y="-662.15"/>
<text xml:space="preserve" text-anchor="middle" x="1664.85" y="-549.6" font-family="Sans-Serif" font-size="13.00" fill="#2d3436">Model Monitoring</text>
<text xml:space="preserve" text-anchor="middle" x="1664.85" y="-533.1" font-family="Sans-Serif" font-size="13.00" fill="#2d3436">(Métricas e Drift)</text>
</g>
<!-- 5eab555fd977490d871f43f44a085cc4&#45;&gt;6e04bd569a784db7bb55f5e4be21fd9d -->
<g id="edge23" class="edge">
<title>5eab555fd977490d871f43f44a085cc4&#45;&gt;6e04bd569a784db7bb55f5e4be21fd9d</title>
<path fill="none" stroke="#7b8894" d="M1534.61,-611.75C1534.61,-611.75 1603.01,-611.75 1603.01,-611.75"/>
<polygon fill="#7b8894" stroke="#7b8894" points="1603.01,-615.25 1613.01,-611.75 1603.01,-608.25 1603.01,-615.25"/>
</g>
<!-- 5eab555fd977490d871f43f44a085cc4&#45;&gt;4f185eed72ec48eba094a1cf7d0362c0 -->
<!-- 290dae56807842fc9bf2c96c941bb13b -->
<g id="node17" class="node">
<title>290dae56807842fc9bf2c96c941bb13b</title>
<image xlink:href="C:\Users\A450373\AppData\Local\Programs\Python\Python312\Lib\site-packages\resources/gcp/analytics\bigquery.png" width="100.8px" height="100.8px" preserveAspectRatio="xMinYMin meet" x="1774.25" y="-662.15"/>
<text xml:space="preserve" text-anchor="middle" x="1824.65" y="-549.6" font-family="Sans-Serif" font-size="13.00" fill="#2d3436">BigQuery</text>
<text xml:space="preserve" text-anchor="middle" x="1824.65" y="-533.1" font-family="Sans-Serif" font-size="13.00" fill="#2d3436">(Logs Operacionais)</text>
</g>
<!-- 6e04bd569a784db7bb55f5e4be21fd9d&#45;&gt;290dae56807842fc9bf2c96c941bb13b -->
<g id="edge24" class="edge">
<title>6e04bd569a784db7bb55f5e4be21fd9d&#45;&gt;290dae56807842fc9bf2c96c941bb13b</title>
<path fill="none" stroke="#7b8894" d="M1714.97,-611.75C1714.97,-611.75 1762.92,-611.75 1762.92,-611.75"/>
<polygon fill="#7b8894" stroke="#7b8894" points="1762.92,-615.25 1772.92,-611.75 1762.92,-608.25 1762.92,-615.25"/>
</g>
<!-- 290dae56807842fc9bf2c96c941bb13b&#45;&gt;4f185eed72ec48eba094a1cf7d0362c0 -->
<g id="edge27" class="edge">
<title>290dae56807842fc9bf2c96c941bb13b&#45;&gt;4f185eed72ec48eba094a1cf7d0362c0</title>
<path fill="none" stroke="darkgreen" stroke-dasharray="5,2" d="M1874.76,-664.75C1874.76,-664.75 1931.46,-664.75 1931.46,-664.75"/>
<polygon fill="darkgreen" stroke="darkgreen" points="1931.46,-668.25 1941.46,-664.75 1931.46,-661.25 1931.46,-668.25"/>
</g>
</g>
</svg>
